{"glyphs":{"0":{"ha":875,"x_min":97,"x_max":792,"o":"m 446 -21 q 292 11 358 -21 q 183 108 226 43 q 119 272 140 174 q 97 500 97 369 q 119 722 97 628 q 183 879 140 817 q 292 973 226 942 q 446 1004 358 1004 q 598 973 533 1004 q 706 879 663 942 q 770 722 749 817 q 792 500 792 628 q 770 272 792 369 q 706 108 749 174 q 598 11 663 43 q 446 -21 533 -21 m 446 0 q 626 54 554 0 q 734 215 699 108 q 769 476 769 321 l 769 524 q 731 783 769 682 q 621 934 693 885 q 446 983 549 983 q 267 933 340 983 q 157 782 194 883 q 119 526 119 681 l 119 493 q 156 219 119 329 q 264 55 192 110 q 446 0 336 0 z "},"1":{"ha":424,"x_min":111,"x_max":313,"o":"m 125 0 l 125 14 l 208 35 l 208 947 l 111 947 l 111 963 l 215 1006 l 229 1006 l 229 35 l 313 14 l 313 0 l 125 0 z "},"2":{"ha":847,"x_min":97,"x_max":778,"o":"m 172 -21 q 122 -3 146 -21 q 97 60 97 15 q 132 184 97 132 q 222 276 167 236 q 315 334 256 300 q 458 414 374 368 q 619 519 560 468 q 703 626 678 569 q 729 758 729 683 q 694 876 729 825 q 594 955 660 926 q 438 983 529 983 q 276 956 342 983 q 177 896 211 929 q 143 844 143 863 q 158 825 143 835 q 208 801 172 815 q 265 772 249 786 q 281 733 281 757 q 268 699 281 714 q 237 678 256 685 q 196 671 218 671 q 149 679 172 671 q 112 706 126 688 q 97 751 97 724 q 116 837 97 793 q 175 919 135 881 q 281 981 215 957 q 438 1004 346 1004 q 667 937 585 1004 q 750 758 750 869 q 724 613 750 675 q 635 500 697 551 q 465 394 572 449 q 290 297 361 342 q 180 214 219 253 q 128 138 140 175 l 151 128 q 185 115 167 122 q 226 99 204 107 q 274 82 249 90 q 325 65 299 74 q 402 40 364 51 q 475 19 440 28 q 537 5 510 10 q 579 0 564 0 q 721 63 678 0 q 764 269 764 125 l 778 269 q 767 135 778 190 q 734 45 757 79 q 673 -5 711 11 q 579 -21 635 -21 q 522 -13 558 -21 q 437 10 486 -6 q 326 46 388 25 q 232 78 272 65 q 167 97 192 90 q 135 104 143 104 q 122 97 122 104 q 131 83 122 90 q 158 65 139 76 q 205 37 192 49 q 218 10 218 25 q 206 -12 218 -4 q 172 -21 193 -21 z "},"3":{"ha":853,"x_min":97,"x_max":728,"o":"m 406 -21 q 267 3 325 -21 q 171 63 208 26 q 115 142 133 100 q 97 219 97 183 q 111 274 97 253 q 147 306 125 296 q 190 317 168 317 q 228 309 211 317 q 256 288 246 301 q 267 251 267 274 q 254 222 267 233 q 224 200 242 210 q 187 182 206 190 q 156 164 168 174 q 143 140 143 154 q 160 103 143 126 q 212 57 178 81 q 294 17 246 33 q 406 0 343 0 q 564 29 496 0 q 669 113 632 58 q 707 243 707 167 q 675 367 707 314 q 578 449 643 419 q 413 479 513 479 l 357 479 l 357 500 q 548 528 474 500 q 657 614 622 556 q 692 763 692 672 q 656 878 692 828 q 558 956 621 928 q 414 983 496 983 q 298 967 349 983 q 212 928 247 951 q 158 881 176 904 q 140 844 140 858 q 154 825 140 832 q 190 813 168 818 q 232 800 211 807 q 267 781 253 793 q 281 747 281 768 q 269 708 281 724 q 238 684 257 692 q 197 676 219 676 q 150 686 174 676 q 112 716 126 696 q 97 765 97 736 q 115 842 97 801 q 172 920 133 883 q 271 981 211 957 q 414 1004 331 1004 q 569 974 501 1004 q 674 889 636 943 q 713 763 713 835 q 699 657 713 703 q 655 578 685 611 q 579 526 625 546 q 471 496 533 506 l 471 493 q 572 471 525 488 q 653 424 618 454 q 708 350 688 394 q 728 243 728 306 q 713 152 728 193 q 671 79 699 111 q 603 25 643 47 q 514 -9 564 3 q 406 -21 464 -21 z "},"4":{"ha":792,"x_min":69,"x_max":722,"o":"m 69 264 l 69 293 q 192 397 131 342 q 297 519 254 453 q 344 618 326 565 q 363 731 363 671 q 339 828 363 796 q 288 876 315 860 q 221 924 240 904 q 201 964 201 944 q 208 985 201 976 q 225 1000 214 994 q 250 1006 236 1006 q 318 969 288 1006 q 366 870 349 932 q 383 731 383 808 q 364 620 383 675 q 311 514 344 565 q 248 431 283 471 q 172 354 213 390 q 89 286 132 318 l 89 278 l 569 283 l 569 758 l 583 1006 l 590 1006 l 590 283 l 722 285 l 722 264 l 590 264 l 590 28 l 688 14 l 688 0 l 472 0 l 472 14 l 569 28 l 569 264 l 69 264 z "},"5":{"ha":861,"x_min":97,"x_max":764,"o":"m 425 -21 q 288 3 349 -21 q 184 65 226 26 q 119 147 142 103 q 97 233 97 192 q 104 267 97 251 q 124 292 111 282 q 156 309 138 303 q 196 315 174 315 q 231 310 215 315 q 257 297 246 306 q 274 277 268 289 q 281 251 281 265 q 267 221 281 233 q 235 199 254 208 q 197 181 217 189 q 165 163 178 172 q 151 140 151 153 q 174 103 151 126 q 235 57 196 81 q 322 17 274 33 q 425 0 371 0 q 597 35 525 0 q 706 135 668 69 q 743 292 743 200 q 709 425 743 369 q 612 510 675 481 q 460 540 549 540 q 350 524 404 540 q 250 480 296 508 q 172 414 204 451 l 151 414 q 163 501 158 460 q 168 590 167 542 q 169 699 169 638 q 160 863 169 806 q 151 951 151 921 q 160 978 151 967 q 185 997 169 990 q 218 1004 200 1004 q 260 997 246 1004 q 274 975 274 990 q 264 951 274 961 q 240 933 254 942 q 212 917 226 925 q 188 903 197 910 q 178 888 178 896 q 186 881 178 881 q 213 887 194 881 q 264 908 231 893 q 351 947 297 922 q 433 981 397 968 q 497 999 468 993 q 551 1004 525 1004 q 635 985 599 1004 q 698 928 672 965 q 737 837 724 890 q 750 715 750 783 l 736 715 q 688 913 736 843 q 551 983 639 983 q 508 981 529 983 q 464 972 486 978 q 416 956 442 967 q 358 931 390 946 q 331 918 347 925 q 294 903 315 911 q 249 884 274 894 q 194 863 224 874 l 181 857 q 182 785 181 826 q 183 699 183 743 q 182 599 183 643 q 178 522 181 556 q 172 467 176 489 l 186 457 q 275 515 231 492 q 365 549 319 538 q 460 561 411 561 q 588 543 532 561 q 684 490 644 525 q 744 406 724 456 q 764 292 764 356 q 741 160 764 218 q 674 63 718 103 q 567 1 631 22 q 425 -21 504 -21 z "},"6":{"ha":799,"x_min":97,"x_max":688,"o":"m 421 1004 q 522 983 475 1004 q 604 929 569 963 q 658 857 639 896 q 678 782 678 818 q 662 726 678 749 q 622 693 646 704 q 572 682 597 682 q 533 689 551 682 q 504 709 515 696 q 493 742 493 722 q 503 774 493 761 q 527 798 513 788 q 559 817 542 808 q 591 833 576 825 q 615 849 606 840 q 625 867 625 857 q 612 901 625 882 q 573 940 599 921 q 509 971 547 958 q 421 983 471 983 q 217 885 290 983 q 125 604 143 786 q 121 551 122 576 q 119 499 119 525 q 118 448 118 474 q 118 396 118 422 l 128 396 q 163 456 139 421 q 225 526 188 492 q 313 584 263 561 q 428 607 364 607 q 560 571 501 607 q 653 468 618 535 q 688 311 688 401 q 667 172 688 233 q 608 67 647 110 q 515 1 569 24 q 394 -21 461 -21 q 257 4 314 -21 q 165 83 200 29 q 113 223 129 136 q 97 433 97 310 q 131 758 97 632 q 237 944 165 885 q 421 1004 308 1004 m 428 586 q 351 574 393 586 q 265 532 308 561 q 186 453 222 503 q 129 331 150 404 q 158 142 129 215 q 244 35 186 69 q 394 0 303 0 q 538 37 476 0 q 633 144 599 74 q 667 311 667 214 q 635 457 667 396 q 549 552 603 518 q 428 586 494 586 z "},"7":{"ha":806,"x_min":97,"x_max":778,"o":"m 431 -21 q 306 4 358 -21 q 224 76 253 29 q 194 185 194 122 q 220 291 194 240 q 306 399 246 342 q 467 533 365 457 q 609 649 554 599 q 697 747 664 700 q 747 846 729 793 l 724 856 q 679 874 706 864 q 620 895 653 883 q 550 919 588 907 q 464 946 504 935 q 390 966 424 957 q 333 979 357 975 q 296 983 308 983 q 205 958 240 983 q 149 872 169 932 q 114 707 129 811 l 111 644 l 97 644 l 97 983 l 117 983 l 117 822 q 176 965 136 925 q 296 1004 215 1004 q 366 995 325 1004 q 453 972 407 986 q 547 942 500 958 q 633 912 593 926 q 702 888 674 897 q 740 879 731 879 q 753 886 753 879 q 741 902 753 893 q 706 924 729 911 q 670 949 683 936 q 657 974 657 963 q 669 997 657 989 q 703 1004 681 1004 q 756 981 735 1004 q 778 924 778 957 q 769 849 778 886 q 743 779 760 811 q 648 658 717 728 q 478 514 579 589 q 322 386 379 442 q 240 283 264 331 q 215 185 215 235 q 274 50 215 100 q 431 0 332 0 q 538 29 489 0 q 620 113 586 58 q 668 242 654 168 l 681 233 q 633 99 668 156 q 547 10 599 42 q 431 -21 494 -21 z "},"8":{"ha":822,"x_min":118,"x_max":704,"o":"m 419 -21 q 293 -3 349 -21 q 198 51 238 15 q 138 136 158 86 q 118 250 118 186 q 131 333 118 294 q 172 403 144 371 q 246 467 200 436 q 356 528 292 497 l 356 553 l 410 526 q 313 483 356 506 q 237 434 269 460 q 183 379 204 408 q 150 318 161 350 q 139 250 139 286 q 172 116 139 172 q 269 30 206 60 q 419 0 332 0 q 562 30 503 0 q 652 116 621 60 q 683 250 683 172 q 658 354 683 310 q 575 438 633 399 q 415 517 517 476 q 290 575 340 546 q 208 636 239 604 q 164 706 178 668 q 150 793 150 744 q 169 879 150 840 q 224 946 189 918 q 308 989 260 974 q 415 1004 357 1004 q 501 994 461 1004 q 574 964 542 983 q 631 917 607 944 q 667 856 654 890 q 679 783 679 822 q 670 728 679 756 q 643 675 661 701 q 599 624 625 649 q 538 578 572 600 q 463 536 504 556 l 463 514 l 407 538 q 486 568 443 546 q 569 623 529 590 q 633 697 608 656 q 658 783 658 738 q 627 888 658 843 q 542 958 596 932 q 415 983 488 983 q 289 959 344 983 q 202 892 233 935 q 171 793 171 850 q 195 692 171 736 q 277 610 219 647 q 433 532 335 572 q 540 483 494 507 q 616 433 585 458 q 667 381 647 408 q 695 321 686 353 q 704 250 704 289 q 685 136 704 186 q 628 51 665 86 q 539 -3 592 15 q 419 -21 486 -21 z "},"9":{"ha":799,"x_min":97,"x_max":688,"o":"m 364 -21 q 263 0 310 -21 q 181 54 215 21 q 126 126 146 88 q 107 201 107 165 q 123 258 107 236 q 163 290 139 279 q 213 301 188 301 q 251 294 233 301 q 281 274 269 288 q 292 242 292 261 q 282 210 292 224 q 258 185 272 196 q 226 167 243 175 q 194 151 208 158 q 169 135 179 143 q 160 117 160 126 q 173 83 160 103 q 212 44 186 63 q 276 13 238 25 q 364 0 314 0 q 569 99 496 0 q 660 379 642 197 q 664 433 663 407 q 666 484 665 458 q 667 535 667 510 q 667 588 667 561 l 657 588 q 622 527 647 563 q 560 457 597 492 q 472 399 522 422 q 357 376 421 376 q 226 413 285 376 q 132 515 167 449 q 97 672 97 582 q 117 812 97 750 q 176 917 138 874 q 269 982 215 960 q 390 1004 324 1004 q 528 979 471 1004 q 620 901 585 954 q 672 760 656 847 q 688 550 688 674 q 653 225 688 351 q 548 39 619 99 q 364 -21 476 -21 m 357 397 q 434 410 392 397 q 519 451 476 422 q 599 530 563 481 q 656 653 635 579 q 628 841 656 768 q 541 949 600 914 q 390 983 482 983 q 247 947 308 983 q 152 840 186 910 q 118 672 118 771 q 150 527 118 589 q 236 431 182 465 q 357 397 290 397 z "},"A":{"ha":985,"x_min":28,"x_max":957,"o":"m 28 0 l 28 14 l 125 35 l 479 983 l 504 983 l 860 35 l 957 14 l 957 0 l 740 0 l 740 14 l 839 33 l 499 944 l 486 944 l 186 143 q 174 106 178 124 q 169 75 169 88 q 182 39 169 53 q 224 19 194 25 q 301 14 253 14 l 301 0 l 28 0 m 271 403 l 271 417 l 710 424 l 710 403 l 271 403 z "},"Á":{"ha":985,"x_min":28,"x_max":957,"o":"m 28 0 l 28 14 l 125 35 l 479 983 l 504 983 l 860 35 l 957 14 l 957 0 l 740 0 l 740 14 l 839 33 l 499 944 l 486 944 l 186 143 q 174 106 178 124 q 169 75 169 88 q 182 39 169 53 q 224 19 194 25 q 301 14 253 14 l 301 0 l 28 0 m 271 403 l 271 417 l 710 424 l 710 403 l 271 403 m 458 1103 l 444 1117 l 653 1290 l 667 1275 l 458 1103 z "},"Ă":{"ha":985,"x_min":28,"x_max":957,"o":"m 28 0 l 28 14 l 125 35 l 479 983 l 504 983 l 860 35 l 957 14 l 957 0 l 740 0 l 740 14 l 839 33 l 499 944 l 486 944 l 186 143 q 174 106 178 124 q 169 75 169 88 q 182 39 169 53 q 224 19 194 25 q 301 14 253 14 l 301 0 l 28 0 m 271 403 l 271 417 l 710 424 l 710 403 l 271 403 m 493 1117 q 369 1153 424 1117 q 285 1256 315 1189 l 303 1263 q 349 1194 321 1222 q 413 1152 376 1167 q 493 1138 450 1138 q 574 1152 538 1138 q 638 1194 610 1167 q 683 1263 665 1222 l 701 1256 q 617 1153 671 1189 q 493 1117 563 1117 z "},"Ǎ":{"ha":985,"x_min":28,"x_max":957,"o":"m 28 0 l 28 14 l 125 35 l 479 983 l 504 983 l 860 35 l 957 14 l 957 0 l 740 0 l 740 14 l 839 33 l 499 944 l 486 944 l 186 143 q 174 106 178 124 q 169 75 169 88 q 182 39 169 53 q 224 19 194 25 q 301 14 253 14 l 301 0 l 28 0 m 271 403 l 271 417 l 710 424 l 710 403 l 271 403 m 690 1276 l 701 1265 l 506 1103 l 483 1103 l 285 1265 l 297 1276 l 494 1118 l 690 1276 z "},"Â":{"ha":985,"x_min":28,"x_max":957,"o":"m 28 0 l 28 14 l 125 35 l 479 983 l 504 983 l 860 35 l 957 14 l 957 0 l 740 0 l 740 14 l 839 33 l 499 944 l 486 944 l 186 143 q 174 106 178 124 q 169 75 169 88 q 182 39 169 53 q 224 19 194 25 q 301 14 253 14 l 301 0 l 28 0 m 271 403 l 271 417 l 710 424 l 710 403 l 271 403 m 296 1103 l 285 1114 l 482 1276 l 504 1276 l 701 1114 l 689 1103 l 493 1261 l 296 1103 z "},"Ä":{"ha":985,"x_min":28,"x_max":957,"o":"m 28 0 l 28 14 l 125 35 l 479 983 l 504 983 l 860 35 l 957 14 l 957 0 l 740 0 l 740 14 l 839 33 l 499 944 l 486 944 l 186 143 q 174 106 178 124 q 169 75 169 88 q 182 39 169 53 q 224 19 194 25 q 301 14 253 14 l 301 0 l 28 0 m 271 403 l 271 417 l 710 424 l 710 403 l 271 403 m 632 1263 q 682 1246 663 1263 q 701 1203 701 1229 q 682 1160 701 1176 q 632 1144 663 1144 q 580 1160 600 1144 q 560 1203 560 1176 q 580 1246 560 1229 q 632 1263 600 1263 m 354 1263 q 404 1246 385 1263 q 424 1203 424 1229 q 404 1160 424 1176 q 354 1144 385 1144 q 302 1160 322 1144 q 282 1203 282 1176 q 302 1246 282 1229 q 354 1263 322 1263 z "},"À":{"ha":985,"x_min":28,"x_max":957,"o":"m 28 0 l 28 14 l 125 35 l 479 983 l 504 983 l 860 35 l 957 14 l 957 0 l 740 0 l 740 14 l 839 33 l 499 944 l 486 944 l 186 143 q 174 106 178 124 q 169 75 169 88 q 182 39 169 53 q 224 19 194 25 q 301 14 253 14 l 301 0 l 28 0 m 271 403 l 271 417 l 710 424 l 710 403 l 271 403 m 549 1103 l 340 1275 l 354 1290 l 563 1117 l 549 1103 z "},"Ā":{"ha":985,"x_min":28,"x_max":957,"o":"m 28 0 l 28 14 l 125 35 l 479 983 l 504 983 l 860 35 l 957 14 l 957 0 l 740 0 l 740 14 l 839 33 l 499 944 l 486 944 l 186 143 q 174 106 178 124 q 169 75 169 88 q 182 39 169 53 q 224 19 194 25 q 301 14 253 14 l 301 0 l 28 0 m 271 403 l 271 417 l 710 424 l 710 403 l 271 403 m 271 1178 l 271 1199 l 715 1199 l 715 1178 l 271 1178 z "},"Ą":{"ha":985,"x_min":28,"x_max":1006,"o":"m 28 0 l 28 14 l 125 35 l 479 983 l 504 983 l 860 35 l 957 14 l 957 0 l 740 0 l 740 14 l 839 33 l 499 944 l 486 944 l 186 143 q 174 106 178 124 q 169 75 169 88 q 182 39 169 53 q 224 19 194 25 q 301 14 253 14 l 301 0 l 28 0 m 271 403 l 271 417 l 710 424 l 710 403 l 271 403 m 957 6 q 815 -97 863 -47 q 768 -194 768 -146 q 792 -251 768 -229 q 854 -272 817 -272 q 930 -251 894 -272 q 996 -187 965 -231 l 1006 -197 q 936 -268 975 -243 q 854 -293 897 -293 q 799 -281 824 -293 q 761 -246 775 -268 q 747 -194 747 -224 q 797 -87 747 -139 q 947 14 847 -35 l 957 6 z "},"Å":{"ha":985,"x_min":28,"x_max":957,"o":"m 28 0 l 28 14 l 125 35 l 479 983 l 504 983 l 860 35 l 957 14 l 957 0 l 740 0 l 740 14 l 839 33 l 499 944 l 486 944 l 186 143 q 174 106 178 124 q 169 75 169 88 q 182 39 169 53 q 224 19 194 25 q 301 14 253 14 l 301 0 l 28 0 m 271 403 l 271 417 l 710 424 l 710 403 l 271 403 m 492 1286 q 549 1274 524 1286 q 590 1241 575 1263 q 604 1192 604 1219 q 590 1142 604 1164 q 549 1107 575 1119 q 492 1094 524 1094 q 435 1107 460 1094 q 396 1142 410 1119 q 382 1192 382 1164 q 396 1241 382 1219 q 435 1274 410 1263 q 492 1286 460 1286 m 492 1265 q 428 1244 453 1265 q 403 1192 403 1224 q 428 1137 403 1158 q 492 1115 453 1115 q 557 1137 531 1115 q 583 1192 583 1158 q 557 1244 583 1224 q 492 1265 531 1265 z "},"Ã":{"ha":985,"x_min":28,"x_max":957,"o":"m 28 0 l 28 14 l 125 35 l 479 983 l 504 983 l 860 35 l 957 14 l 957 0 l 740 0 l 740 14 l 839 33 l 499 944 l 486 944 l 186 143 q 174 106 178 124 q 169 75 169 88 q 182 39 169 53 q 224 19 194 25 q 301 14 253 14 l 301 0 l 28 0 m 271 403 l 271 417 l 710 424 l 710 403 l 271 403 m 625 1117 q 558 1135 589 1117 q 500 1179 528 1154 q 444 1223 472 1204 q 386 1242 417 1242 q 315 1212 340 1242 q 268 1119 289 1182 l 250 1122 q 281 1199 263 1168 q 325 1247 299 1231 q 386 1263 351 1263 q 449 1244 419 1263 q 508 1200 479 1225 q 565 1156 536 1175 q 625 1138 594 1138 q 685 1167 665 1138 q 718 1260 704 1197 l 736 1257 q 714 1178 728 1210 q 679 1132 700 1147 q 625 1117 658 1117 z "},"Æ":{"ha":1307,"x_min":28,"x_max":1203,"o":"m 28 0 l 28 14 l 125 35 l 565 954 l 492 969 l 492 983 l 592 983 l 592 947 l 583 949 l 199 143 q 190 123 193 133 q 183 103 186 113 q 179 87 181 94 q 178 72 178 79 q 191 38 178 51 q 234 19 204 25 q 314 14 264 14 l 314 0 l 28 0 m 315 403 l 315 417 l 592 424 l 592 403 l 315 403 m 1072 963 l 610 963 l 610 511 l 872 511 q 896 517 886 511 q 911 535 906 524 q 921 589 918 550 q 924 692 924 628 l 938 692 l 938 356 l 924 356 l 915 490 l 610 490 l 610 21 l 1096 21 q 1158 42 1143 21 q 1165 115 1172 63 l 1135 338 l 1156 338 l 1203 0 l 492 0 l 492 14 l 589 35 l 589 983 l 1203 983 l 1156 672 l 1135 672 l 1157 882 q 1144 945 1163 928 q 1072 963 1125 963 z "},"B":{"ha":929,"x_min":111,"x_max":846,"o":"m 479 983 q 651 957 583 983 q 751 878 718 931 q 783 746 783 826 q 768 654 783 694 q 726 586 753 614 q 665 542 700 558 q 589 519 629 525 l 589 513 q 688 493 642 508 q 770 448 735 478 q 826 372 806 418 q 846 260 846 326 q 824 147 846 196 q 760 65 803 97 q 653 17 718 33 q 501 0 589 0 l 111 0 l 111 14 l 208 35 l 208 949 l 111 969 l 111 983 l 479 983 m 479 961 q 335 958 397 961 q 229 949 272 956 l 229 33 q 501 21 303 21 q 682 47 610 21 q 790 127 754 74 q 825 260 825 181 q 751 437 825 375 q 500 501 678 499 l 218 506 l 218 519 l 500 524 q 657 558 600 525 q 738 641 714 590 q 763 746 763 692 q 694 908 763 854 q 479 961 625 961 z "},"C":{"ha":1007,"x_min":111,"x_max":896,"o":"m 893 190 q 804 76 860 124 q 678 4 749 29 q 526 -21 608 -21 q 352 13 429 -21 q 221 113 275 47 q 139 273 167 179 q 111 486 111 367 q 142 694 111 600 q 231 858 174 789 q 366 966 288 928 q 538 1004 444 1004 q 686 988 619 1004 q 806 939 753 972 q 896 856 858 906 l 831 533 l 808 533 l 839 729 q 826 874 853 818 q 728 956 799 929 q 538 983 657 983 q 374 947 449 983 q 245 844 299 911 q 162 687 192 778 q 132 486 132 596 q 159 282 132 372 q 237 128 186 192 q 360 33 288 65 q 526 0 433 0 q 729 53 636 0 q 879 200 822 106 l 893 190 z "},"Ć":{"ha":1007,"x_min":111,"x_max":896,"o":"m 893 190 q 804 76 860 124 q 678 4 749 29 q 526 -21 608 -21 q 352 13 429 -21 q 221 113 275 47 q 139 273 167 179 q 111 486 111 367 q 142 694 111 600 q 231 858 174 789 q 366 966 288 928 q 538 1004 444 1004 q 686 988 619 1004 q 806 939 753 972 q 896 856 858 906 l 831 533 l 808 533 l 839 729 q 826 874 853 818 q 728 956 799 929 q 538 983 657 983 q 374 947 449 983 q 245 844 299 911 q 162 687 192 778 q 132 486 132 596 q 159 282 132 372 q 237 128 186 192 q 360 33 288 65 q 526 0 433 0 q 729 53 636 0 q 879 200 822 106 l 893 190 m 503 1103 l 489 1117 l 697 1290 l 711 1275 l 503 1103 z "},"Č":{"ha":1007,"x_min":111,"x_max":896,"o":"m 893 190 q 804 76 860 124 q 678 4 749 29 q 526 -21 608 -21 q 352 13 429 -21 q 221 113 275 47 q 139 273 167 179 q 111 486 111 367 q 142 694 111 600 q 231 858 174 789 q 366 966 288 928 q 538 1004 444 1004 q 686 988 619 1004 q 806 939 753 972 q 896 856 858 906 l 831 533 l 808 533 l 839 729 q 826 874 853 818 q 728 956 799 929 q 538 983 657 983 q 374 947 449 983 q 245 844 299 911 q 162 687 192 778 q 132 486 132 596 q 159 282 132 372 q 237 128 186 192 q 360 33 288 65 q 526 0 433 0 q 729 53 636 0 q 879 200 822 106 l 893 190 m 735 1276 l 746 1265 l 550 1103 l 528 1103 l 329 1265 l 342 1276 l 539 1118 l 735 1276 z "},"Ç":{"ha":1007,"x_min":111,"x_max":896,"o":"m 893 190 q 804 76 860 124 q 678 4 749 29 q 526 -21 608 -21 q 352 13 429 -21 q 221 113 275 47 q 139 273 167 179 q 111 486 111 367 q 142 694 111 600 q 231 858 174 789 q 366 966 288 928 q 538 1004 444 1004 q 686 988 619 1004 q 806 939 753 972 q 896 856 858 906 l 831 533 l 808 533 l 839 729 q 826 874 853 818 q 728 956 799 929 q 538 983 657 983 q 374 947 449 983 q 245 844 299 911 q 162 687 192 778 q 132 486 132 596 q 159 282 132 372 q 237 128 186 192 q 360 33 288 65 q 526 0 433 0 q 729 53 636 0 q 879 200 822 106 l 893 190 m 554 -299 q 469 -275 506 -299 q 418 -208 433 -251 l 432 -194 q 479 -256 447 -233 q 554 -278 511 -278 q 602 -266 582 -278 q 634 -232 622 -254 q 646 -182 646 -210 q 635 -136 646 -157 q 605 -99 625 -115 q 555 -73 585 -82 q 488 -64 525 -64 l 513 0 l 533 0 l 522 -32 l 533 -47 q 606 -74 576 -56 q 651 -119 636 -92 q 667 -182 667 -146 q 652 -242 667 -215 q 613 -283 638 -268 q 554 -299 588 -299 z "},"Ċ":{"ha":1007,"x_min":111,"x_max":896,"o":"m 893 190 q 804 76 860 124 q 678 4 749 29 q 526 -21 608 -21 q 352 13 429 -21 q 221 113 275 47 q 139 273 167 179 q 111 486 111 367 q 142 694 111 600 q 231 858 174 789 q 366 966 288 928 q 538 1004 444 1004 q 686 988 619 1004 q 806 939 753 972 q 896 856 858 906 l 831 533 l 808 533 l 839 729 q 826 874 853 818 q 728 956 799 929 q 538 983 657 983 q 374 947 449 983 q 245 844 299 911 q 162 687 192 778 q 132 486 132 596 q 159 282 132 372 q 237 128 186 192 q 360 33 288 65 q 526 0 433 0 q 729 53 636 0 q 879 200 822 106 l 893 190 m 539 1263 q 589 1246 569 1263 q 608 1203 608 1229 q 589 1160 608 1176 q 539 1144 569 1144 q 487 1160 507 1144 q 467 1203 467 1176 q 487 1246 467 1229 q 539 1263 507 1263 z "},"D":{"ha":1022,"x_min":111,"x_max":911,"o":"m 481 983 q 721 930 625 983 q 864 768 817 876 q 911 496 911 660 q 865 219 911 329 q 724 55 818 110 q 488 0 631 0 l 111 0 l 111 14 l 208 35 l 208 949 l 111 969 l 111 983 l 481 983 m 481 961 q 348 958 418 961 q 229 949 278 954 l 229 49 l 257 21 l 488 21 q 790 139 690 21 q 890 496 890 257 q 845 756 890 653 q 709 910 800 858 q 481 961 618 961 z "},"Ď":{"ha":1022,"x_min":111,"x_max":911,"o":"m 481 983 q 721 930 625 983 q 864 768 817 876 q 911 496 911 660 q 865 219 911 329 q 724 55 818 110 q 488 0 631 0 l 111 0 l 111 14 l 208 35 l 208 949 l 111 969 l 111 983 l 481 983 m 481 961 q 348 958 418 961 q 229 949 278 954 l 229 49 l 257 21 l 488 21 q 790 139 690 21 q 890 496 890 257 q 845 756 890 653 q 709 910 800 858 q 481 961 618 961 m 678 1276 l 689 1265 l 493 1103 l 471 1103 l 272 1265 l 285 1276 l 482 1118 l 678 1276 z "},"Đ":{"ha":1022,"x_min":111,"x_max":911,"o":"m 481 983 q 721 930 625 983 q 864 768 817 876 q 911 496 911 660 q 865 219 911 329 q 724 55 818 110 q 488 0 631 0 l 111 0 l 111 14 l 208 35 l 208 949 l 111 969 l 111 983 l 481 983 m 481 961 q 348 958 418 961 q 229 949 278 954 l 229 49 l 257 21 l 488 21 q 790 139 690 21 q 890 496 890 257 q 845 756 890 653 q 709 910 800 858 q 481 961 618 961 m 678 1276 l 689 1265 l 493 1103 l 471 1103 l 272 1265 l 285 1276 l 482 1118 l 678 1276 z "},"Ð":{"ha":1022,"x_min":111,"x_max":911,"o":"m 111 503 l 468 503 l 468 482 l 111 482 l 111 503 m 481 983 q 721 930 625 983 q 864 768 817 876 q 911 496 911 660 q 865 219 911 329 q 724 55 818 110 q 488 0 631 0 l 111 0 l 111 14 l 208 35 l 208 949 l 111 969 l 111 983 l 481 983 m 481 961 q 348 958 418 961 q 229 949 278 954 l 229 49 l 257 21 l 488 21 q 790 139 690 21 q 890 496 890 257 q 845 756 890 653 q 709 910 800 858 q 481 961 618 961 z "},"E":{"ha":926,"x_min":111,"x_max":822,"o":"m 111 0 l 111 14 l 208 35 l 208 949 l 111 969 l 111 983 l 822 983 l 775 672 l 754 672 l 776 882 q 763 945 782 928 q 692 963 744 963 l 229 963 l 229 511 l 492 511 q 515 517 504 511 q 531 535 525 524 q 540 585 538 546 q 543 692 543 624 l 557 692 l 557 356 l 543 356 l 535 490 l 229 490 l 229 21 l 715 21 q 777 42 763 21 q 785 115 792 63 l 754 338 l 775 338 l 822 0 l 111 0 z "},"É":{"ha":926,"x_min":111,"x_max":822,"o":"m 111 0 l 111 14 l 208 35 l 208 949 l 111 969 l 111 983 l 822 983 l 775 672 l 754 672 l 776 882 q 763 945 782 928 q 692 963 744 963 l 229 963 l 229 511 l 492 511 q 515 517 504 511 q 531 535 525 524 q 540 585 538 546 q 543 692 543 624 l 557 692 l 557 356 l 543 356 l 535 490 l 229 490 l 229 21 l 715 21 q 777 42 763 21 q 785 115 792 63 l 754 338 l 775 338 l 822 0 l 111 0 m 457 1103 l 443 1117 l 651 1290 l 665 1275 l 457 1103 z "},"Ě":{"ha":926,"x_min":111,"x_max":822,"o":"m 111 0 l 111 14 l 208 35 l 208 949 l 111 969 l 111 983 l 822 983 l 775 672 l 754 672 l 776 882 q 763 945 782 928 q 692 963 744 963 l 229 963 l 229 511 l 492 511 q 515 517 504 511 q 531 535 525 524 q 540 585 538 546 q 543 692 543 624 l 557 692 l 557 356 l 543 356 l 535 490 l 229 490 l 229 21 l 715 21 q 777 42 763 21 q 785 115 792 63 l 754 338 l 775 338 l 822 0 l 111 0 m 689 1276 l 700 1265 l 504 1103 l 482 1103 l 283 1265 l 296 1276 l 493 1118 l 689 1276 z "},"Ê":{"ha":926,"x_min":111,"x_max":822,"o":"m 111 0 l 111 14 l 208 35 l 208 949 l 111 969 l 111 983 l 822 983 l 775 672 l 754 672 l 776 882 q 763 945 782 928 q 692 963 744 963 l 229 963 l 229 511 l 492 511 q 515 517 504 511 q 531 535 525 524 q 540 585 538 546 q 543 692 543 624 l 557 692 l 557 356 l 543 356 l 535 490 l 229 490 l 229 21 l 715 21 q 777 42 763 21 q 785 115 792 63 l 754 338 l 775 338 l 822 0 l 111 0 m 294 1103 l 283 1114 l 481 1276 l 503 1276 l 700 1114 l 688 1103 l 492 1261 l 294 1103 z "},"Ë":{"ha":926,"x_min":111,"x_max":822,"o":"m 111 0 l 111 14 l 208 35 l 208 949 l 111 969 l 111 983 l 822 983 l 775 672 l 754 672 l 776 882 q 763 945 782 928 q 692 963 744 963 l 229 963 l 229 511 l 492 511 q 515 517 504 511 q 531 535 525 524 q 540 585 538 546 q 543 692 543 624 l 557 692 l 557 356 l 543 356 l 535 490 l 229 490 l 229 21 l 715 21 q 777 42 763 21 q 785 115 792 63 l 754 338 l 775 338 l 822 0 l 111 0 m 631 1263 q 681 1246 661 1263 q 700 1203 700 1229 q 681 1160 700 1176 q 631 1144 661 1144 q 578 1160 599 1144 q 558 1203 558 1176 q 578 1246 558 1229 q 631 1263 599 1263 m 353 1263 q 403 1246 383 1263 q 422 1203 422 1229 q 403 1160 422 1176 q 353 1144 383 1144 q 301 1160 321 1144 q 281 1203 281 1176 q 301 1246 281 1229 q 353 1263 321 1263 z "},"Ė":{"ha":926,"x_min":111,"x_max":822,"o":"m 111 0 l 111 14 l 208 35 l 208 949 l 111 969 l 111 983 l 822 983 l 775 672 l 754 672 l 776 882 q 763 945 782 928 q 692 963 744 963 l 229 963 l 229 511 l 492 511 q 515 517 504 511 q 531 535 525 524 q 540 585 538 546 q 543 692 543 624 l 557 692 l 557 356 l 543 356 l 535 490 l 229 490 l 229 21 l 715 21 q 777 42 763 21 q 785 115 792 63 l 754 338 l 775 338 l 822 0 l 111 0 m 493 1263 q 543 1246 524 1263 q 563 1203 563 1229 q 543 1160 563 1176 q 493 1144 524 1144 q 441 1160 461 1144 q 421 1203 421 1176 q 441 1246 421 1229 q 493 1263 461 1263 z "},"È":{"ha":926,"x_min":111,"x_max":822,"o":"m 111 0 l 111 14 l 208 35 l 208 949 l 111 969 l 111 983 l 822 983 l 775 672 l 754 672 l 776 882 q 763 945 782 928 q 692 963 744 963 l 229 963 l 229 511 l 492 511 q 515 517 504 511 q 531 535 525 524 q 540 585 538 546 q 543 692 543 624 l 557 692 l 557 356 l 543 356 l 535 490 l 229 490 l 229 21 l 715 21 q 777 42 763 21 q 785 115 792 63 l 754 338 l 775 338 l 822 0 l 111 0 m 547 1103 l 339 1275 l 353 1290 l 561 1117 l 547 1103 z "},"Ē":{"ha":926,"x_min":111,"x_max":822,"o":"m 111 0 l 111 14 l 208 35 l 208 949 l 111 969 l 111 983 l 822 983 l 775 672 l 754 672 l 776 882 q 763 945 782 928 q 692 963 744 963 l 229 963 l 229 511 l 492 511 q 515 517 504 511 q 531 535 525 524 q 540 585 538 546 q 543 692 543 624 l 557 692 l 557 356 l 543 356 l 535 490 l 229 490 l 229 21 l 715 21 q 777 42 763 21 q 785 115 792 63 l 754 338 l 775 338 l 822 0 l 111 0 m 269 1178 l 269 1199 l 714 1199 l 714 1178 l 269 1178 z "},"Ę":{"ha":926,"x_min":111,"x_max":869,"o":"m 111 0 l 111 14 l 208 35 l 208 949 l 111 969 l 111 983 l 822 983 l 775 672 l 754 672 l 776 882 q 763 945 782 928 q 692 963 744 963 l 229 963 l 229 511 l 492 511 q 515 517 504 511 q 531 535 525 524 q 540 585 538 546 q 543 692 543 624 l 557 692 l 557 356 l 543 356 l 535 490 l 229 490 l 229 21 l 715 21 q 777 42 763 21 q 785 115 792 63 l 754 338 l 775 338 l 822 0 l 111 0 m 821 6 q 679 -97 726 -47 q 632 -194 632 -146 q 656 -251 632 -229 q 718 -272 681 -272 q 794 -251 758 -272 q 860 -187 829 -231 l 869 -197 q 800 -268 839 -243 q 718 -293 761 -293 q 663 -281 688 -293 q 625 -246 639 -268 q 611 -194 611 -224 q 661 -87 611 -139 q 811 14 711 -35 l 821 6 z "},"F":{"ha":831,"x_min":111,"x_max":822,"o":"m 111 0 l 111 14 l 208 35 l 208 949 l 111 969 l 111 983 l 822 983 l 775 672 l 754 672 l 776 882 q 763 945 782 928 q 692 963 744 963 l 229 963 l 229 511 l 519 511 q 542 517 532 511 q 558 535 553 524 q 568 585 565 546 q 571 692 571 624 l 585 692 l 585 356 l 571 356 l 563 490 l 229 490 l 229 35 l 326 14 l 326 0 l 111 0 z "},"G":{"ha":1021,"x_min":111,"x_max":910,"o":"m 692 411 l 692 425 l 865 425 l 865 65 q 791 30 831 46 q 709 3 751 14 q 624 -15 667 -8 q 540 -21 581 -21 q 392 2 460 -21 q 273 70 325 25 q 185 181 221 115 q 130 329 149 246 q 111 514 111 413 q 142 712 111 622 q 227 867 172 801 q 358 968 282 932 q 525 1004 433 1004 q 641 995 588 1004 q 741 967 694 986 q 829 921 788 949 q 910 856 871 893 l 844 533 l 822 533 l 850 701 q 843 828 863 775 q 779 916 824 882 q 669 967 735 950 q 525 983 604 983 q 366 949 438 983 q 242 851 294 914 q 160 703 189 789 q 132 514 132 617 q 151 335 132 417 q 204 192 169 254 q 290 87 239 129 q 406 22 340 44 q 547 0 471 0 q 688 16 613 0 q 844 67 763 32 l 844 390 l 692 411 z "},"Ğ":{"ha":1021,"x_min":111,"x_max":910,"o":"m 692 411 l 692 425 l 865 425 l 865 65 q 791 30 831 46 q 709 3 751 14 q 624 -15 667 -8 q 540 -21 581 -21 q 392 2 460 -21 q 273 70 325 25 q 185 181 221 115 q 130 329 149 246 q 111 514 111 413 q 142 712 111 622 q 227 867 172 801 q 358 968 282 932 q 525 1004 433 1004 q 641 995 588 1004 q 741 967 694 986 q 829 921 788 949 q 910 856 871 893 l 844 533 l 822 533 l 850 701 q 843 828 863 775 q 779 916 824 882 q 669 967 735 950 q 525 983 604 983 q 366 949 438 983 q 242 851 294 914 q 160 703 189 789 q 132 514 132 617 q 151 335 132 417 q 204 192 169 254 q 290 87 239 129 q 406 22 340 44 q 547 0 471 0 q 688 16 613 0 q 844 67 763 32 l 844 390 l 692 411 m 525 1117 q 401 1153 456 1117 q 317 1256 347 1189 l 335 1263 q 381 1194 353 1222 q 445 1152 408 1167 q 525 1138 482 1138 q 606 1152 569 1138 q 669 1194 642 1167 q 715 1263 697 1222 l 733 1256 q 649 1153 703 1189 q 525 1117 594 1117 z "},"Ģ":{"ha":1021,"x_min":111,"x_max":910,"o":"m 692 411 l 692 425 l 865 425 l 865 65 q 791 30 831 46 q 709 3 751 14 q 624 -15 667 -8 q 540 -21 581 -21 q 392 2 460 -21 q 273 70 325 25 q 185 181 221 115 q 130 329 149 246 q 111 514 111 413 q 142 712 111 622 q 227 867 172 801 q 358 968 282 932 q 525 1004 433 1004 q 641 995 588 1004 q 741 967 694 986 q 829 921 788 949 q 910 856 871 893 l 844 533 l 822 533 l 850 701 q 843 828 863 775 q 779 916 824 882 q 669 967 735 950 q 525 983 604 983 q 366 949 438 983 q 242 851 294 914 q 160 703 189 789 q 132 514 132 617 q 151 335 132 417 q 204 192 169 254 q 290 87 239 129 q 406 22 340 44 q 547 0 471 0 q 688 16 613 0 q 844 67 763 32 l 844 390 l 692 411 m 478 -285 l 472 -272 q 509 -254 492 -264 q 541 -232 526 -244 q 564 -207 556 -219 l 550 -194 l 544 -194 q 510 -186 525 -194 q 488 -163 496 -178 q 479 -129 479 -149 q 488 -98 479 -111 q 513 -77 497 -85 q 549 -69 529 -69 q 583 -78 568 -69 q 607 -100 599 -86 q 615 -132 615 -114 q 607 -178 615 -157 q 581 -219 599 -200 q 538 -255 564 -239 q 478 -285 513 -271 z "},"Ġ":{"ha":1021,"x_min":111,"x_max":910,"o":"m 692 411 l 692 425 l 865 425 l 865 65 q 791 30 831 46 q 709 3 751 14 q 624 -15 667 -8 q 540 -21 581 -21 q 392 2 460 -21 q 273 70 325 25 q 185 181 221 115 q 130 329 149 246 q 111 514 111 413 q 142 712 111 622 q 227 867 172 801 q 358 968 282 932 q 525 1004 433 1004 q 641 995 588 1004 q 741 967 694 986 q 829 921 788 949 q 910 856 871 893 l 844 533 l 822 533 l 850 701 q 843 828 863 775 q 779 916 824 882 q 669 967 735 950 q 525 983 604 983 q 366 949 438 983 q 242 851 294 914 q 160 703 189 789 q 132 514 132 617 q 151 335 132 417 q 204 192 169 254 q 290 87 239 129 q 406 22 340 44 q 547 0 471 0 q 688 16 613 0 q 844 67 763 32 l 844 390 l 692 411 m 526 1263 q 576 1246 557 1263 q 596 1203 596 1229 q 576 1160 596 1176 q 526 1144 557 1144 q 474 1160 494 1144 q 454 1203 454 1176 q 474 1246 454 1229 q 526 1263 494 1263 z "},"H":{"ha":1083,"x_min":111,"x_max":972,"o":"m 972 983 l 972 969 l 875 949 l 875 35 l 972 14 l 972 0 l 757 0 l 757 14 l 854 35 l 854 949 l 757 969 l 757 983 l 972 983 m 326 983 l 326 969 l 229 949 l 229 35 l 326 14 l 326 0 l 111 0 l 111 14 l 208 35 l 208 949 l 111 969 l 111 983 l 326 983 m 861 483 l 861 461 l 221 461 l 221 475 l 861 483 z "},"Ħ":{"ha":1083,"x_min":111,"x_max":972,"o":"m 111 761 l 972 761 l 972 740 l 111 740 l 111 761 m 972 983 l 972 969 l 875 949 l 875 35 l 972 14 l 972 0 l 757 0 l 757 14 l 854 35 l 854 949 l 757 969 l 757 983 l 972 983 m 326 983 l 326 969 l 229 949 l 229 35 l 326 14 l 326 0 l 111 0 l 111 14 l 208 35 l 208 949 l 111 969 l 111 983 l 326 983 m 861 483 l 861 461 l 221 461 l 221 475 l 861 483 z "},"I":{"ha":438,"x_min":111,"x_max":326,"o":"m 326 983 l 326 969 l 229 949 l 229 35 l 326 14 l 326 0 l 111 0 l 111 14 l 208 35 l 208 949 l 111 969 l 111 983 l 326 983 z "},"Ĳ":{"ha":946,"x_min":111,"x_max":840,"o":"m 326 983 l 326 969 l 229 949 l 229 35 l 326 14 l 326 0 l 111 0 l 111 14 l 208 35 l 208 949 l 111 969 l 111 983 l 326 983 m 644 -21 q 541 10 582 -21 q 479 85 500 42 q 458 165 458 129 q 463 206 458 186 q 479 240 468 225 q 507 263 490 254 q 549 271 524 271 q 586 265 568 271 q 616 247 604 260 q 628 214 628 235 q 617 172 628 186 q 590 152 607 157 q 555 145 574 147 q 519 140 536 143 q 492 128 503 138 q 482 97 482 119 q 499 67 482 92 q 551 22 515 43 q 644 0 588 0 q 724 19 690 0 q 780 76 758 38 q 810 173 801 115 q 813 308 818 231 l 813 949 l 674 969 l 674 983 l 833 983 l 833 308 q 821 125 840 199 q 758 15 801 51 q 644 -21 714 -21 z "},"Í":{"ha":438,"x_min":111,"x_max":393,"o":"m 326 983 l 326 969 l 229 949 l 229 35 l 326 14 l 326 0 l 111 0 l 111 14 l 208 35 l 208 949 l 111 969 l 111 983 l 326 983 m 185 1103 l 171 1117 l 379 1290 l 393 1275 l 185 1103 z "},"Î":{"ha":438,"x_min":11,"x_max":428,"o":"m 326 983 l 326 969 l 229 949 l 229 35 l 326 14 l 326 0 l 111 0 l 111 14 l 208 35 l 208 949 l 111 969 l 111 983 l 326 983 m 22 1103 l 11 1114 l 208 1276 l 231 1276 l 428 1114 l 415 1103 l 219 1261 l 22 1103 z "},"Ï":{"ha":438,"x_min":8,"x_max":428,"o":"m 326 983 l 326 969 l 229 949 l 229 35 l 326 14 l 326 0 l 111 0 l 111 14 l 208 35 l 208 949 l 111 969 l 111 983 l 326 983 m 358 1263 q 408 1246 389 1263 q 428 1203 428 1229 q 408 1160 428 1176 q 358 1144 389 1144 q 306 1160 326 1144 q 286 1203 286 1176 q 306 1246 286 1229 q 358 1263 326 1263 m 81 1263 q 131 1246 111 1263 q 150 1203 150 1229 q 131 1160 150 1176 q 81 1144 111 1144 q 28 1160 49 1144 q 8 1203 8 1176 q 28 1246 8 1229 q 81 1263 49 1263 z "},"İ":{"ha":438,"x_min":111,"x_max":326,"o":"m 326 983 l 326 969 l 229 949 l 229 35 l 326 14 l 326 0 l 111 0 l 111 14 l 208 35 l 208 949 l 111 969 l 111 983 l 326 983 m 221 1263 q 271 1246 251 1263 q 290 1203 290 1229 q 271 1160 290 1176 q 221 1144 251 1144 q 169 1160 189 1144 q 149 1203 149 1176 q 169 1246 149 1229 q 221 1263 189 1263 z "},"Ì":{"ha":438,"x_min":67,"x_max":326,"o":"m 326 983 l 326 969 l 229 949 l 229 35 l 326 14 l 326 0 l 111 0 l 111 14 l 208 35 l 208 949 l 111 969 l 111 983 l 326 983 m 275 1103 l 67 1275 l 81 1290 l 289 1117 l 275 1103 z "},"Ī":{"ha":438,"x_min":-3,"x_max":442,"o":"m 326 983 l 326 969 l 229 949 l 229 35 l 326 14 l 326 0 l 111 0 l 111 14 l 208 35 l 208 949 l 111 969 l 111 983 l 326 983 m -3 1178 l -3 1199 l 442 1199 l 442 1178 l -3 1178 z "},"Į":{"ha":438,"x_min":111,"x_max":374,"o":"m 326 983 l 326 969 l 229 949 l 229 35 l 326 14 l 326 0 l 111 0 l 111 14 l 208 35 l 208 949 l 111 969 l 111 983 l 326 983 m 325 6 q 183 -97 231 -47 q 136 -194 136 -146 q 160 -251 136 -229 q 222 -272 185 -272 q 298 -251 263 -272 q 364 -187 333 -231 l 374 -197 q 304 -268 343 -243 q 222 -293 265 -293 q 167 -281 192 -293 q 129 -246 143 -268 q 115 -194 115 -224 q 165 -87 115 -139 q 315 14 215 -35 l 325 6 z "},"J":{"ha":550,"x_min":63,"x_max":444,"o":"m 249 -21 q 145 10 186 -21 q 83 85 104 42 q 63 165 63 129 q 67 206 63 186 q 83 240 72 225 q 111 263 94 254 q 153 271 128 271 q 190 265 172 271 q 220 247 208 260 q 232 214 232 235 q 222 172 232 186 q 194 152 211 157 q 159 145 178 147 q 124 140 140 143 q 97 128 107 138 q 86 97 86 119 q 103 67 86 92 q 156 22 119 43 q 249 0 192 0 q 328 19 294 0 q 384 76 363 38 q 414 173 406 115 q 417 308 422 231 l 417 949 l 278 969 l 278 983 l 438 983 l 438 308 q 425 125 444 199 q 362 15 406 51 q 249 -21 318 -21 z "},"K":{"ha":924,"x_min":111,"x_max":917,"o":"m 871 -21 q 824 3 849 -21 q 766 85 799 28 q 688 238 733 142 q 623 350 657 304 q 549 424 589 396 q 456 464 508 451 q 335 476 403 476 l 229 476 l 229 35 l 326 14 l 326 0 l 111 0 l 111 14 l 208 35 l 208 949 l 111 969 l 111 983 l 229 983 l 229 494 q 292 496 261 494 q 354 497 324 497 q 456 522 407 497 q 549 586 506 546 q 625 672 592 626 q 679 762 657 717 q 713 847 701 807 q 725 914 725 886 q 701 956 725 942 q 632 969 676 969 l 632 983 l 844 983 l 844 969 l 751 949 q 739 865 751 914 q 702 763 726 817 q 640 658 678 708 q 578 586 613 619 q 505 529 543 553 q 424 494 467 506 l 424 488 q 514 467 474 482 q 588 423 554 451 q 651 352 622 394 q 708 250 681 310 q 783 102 753 157 q 838 24 814 47 q 885 0 863 0 q 917 8 900 0 l 917 -6 q 901 -15 908 -11 q 885 -19 893 -18 q 871 -21 878 -21 z "},"Ķ":{"ha":924,"x_min":111,"x_max":917,"o":"m 871 -21 q 824 3 849 -21 q 766 85 799 28 q 688 238 733 142 q 623 350 657 304 q 549 424 589 396 q 456 464 508 451 q 335 476 403 476 l 229 476 l 229 35 l 326 14 l 326 0 l 111 0 l 111 14 l 208 35 l 208 949 l 111 969 l 111 983 l 229 983 l 229 494 q 292 496 261 494 q 354 497 324 497 q 456 522 407 497 q 549 586 506 546 q 625 672 592 626 q 679 762 657 717 q 713 847 701 807 q 725 914 725 886 q 701 956 725 942 q 632 969 676 969 l 632 983 l 844 983 l 844 969 l 751 949 q 739 865 751 914 q 702 763 726 817 q 640 658 678 708 q 578 586 613 619 q 505 529 543 553 q 424 494 467 506 l 424 488 q 514 467 474 482 q 588 423 554 451 q 651 352 622 394 q 708 250 681 310 q 783 102 753 157 q 838 24 814 47 q 885 0 863 0 q 917 8 900 0 l 917 -6 q 901 -15 908 -11 q 885 -19 893 -18 q 871 -21 878 -21 m 463 -285 l 457 -272 q 494 -254 476 -264 q 526 -232 511 -244 q 549 -207 540 -219 l 535 -194 l 529 -194 q 495 -186 510 -194 q 472 -163 481 -178 q 464 -129 464 -149 q 473 -98 464 -111 q 498 -77 482 -85 q 533 -69 514 -69 q 568 -78 553 -69 q 592 -100 583 -86 q 600 -132 600 -114 q 592 -178 600 -157 q 566 -219 583 -200 q 523 -255 549 -239 q 463 -285 497 -271 z "},"L":{"ha":836,"x_min":111,"x_max":767,"o":"m 111 0 l 111 14 l 208 28 l 208 956 l 111 969 l 111 983 l 326 983 l 326 969 l 229 956 l 229 21 l 649 21 q 691 35 674 21 q 717 79 708 49 q 722 160 725 110 l 713 338 l 733 338 l 767 0 l 111 0 z "},"Ĺ":{"ha":836,"x_min":111,"x_max":767,"o":"m 111 0 l 111 14 l 208 28 l 208 956 l 111 969 l 111 983 l 326 983 l 326 969 l 229 956 l 229 21 l 649 21 q 691 35 674 21 q 717 79 708 49 q 722 160 725 110 l 713 338 l 733 338 l 767 0 l 111 0 m 189 1103 l 175 1117 l 383 1290 l 397 1275 l 189 1103 z "},"Ľ":{"ha":836,"x_min":111,"x_max":767,"o":"m 111 0 l 111 14 l 208 28 l 208 956 l 111 969 l 111 983 l 326 983 l 326 969 l 229 956 l 229 21 l 649 21 q 691 35 674 21 q 717 79 708 49 q 722 160 725 110 l 713 338 l 733 338 l 767 0 l 111 0 m 674 772 l 674 1001 l 721 1001 l 679 772 l 674 772 z "},"Ļ":{"ha":836,"x_min":111,"x_max":767,"o":"m 111 0 l 111 14 l 208 28 l 208 956 l 111 969 l 111 983 l 326 983 l 326 969 l 229 956 l 229 21 l 649 21 q 691 35 674 21 q 717 79 708 49 q 722 160 725 110 l 713 338 l 733 338 l 767 0 l 111 0 m 404 -285 l 399 -272 q 435 -254 418 -264 q 467 -232 453 -244 q 490 -207 482 -219 l 476 -194 l 471 -194 q 437 -186 451 -194 q 414 -163 422 -178 q 406 -129 406 -149 q 415 -98 406 -111 q 440 -77 424 -85 q 475 -69 456 -69 q 510 -78 494 -69 q 533 -100 525 -86 q 542 -132 542 -114 q 533 -178 542 -157 q 508 -219 525 -200 q 465 -255 490 -239 q 404 -285 439 -271 z "},"Ŀ":{"ha":850,"x_min":111,"x_max":767,"o":"m 111 0 l 111 14 l 208 28 l 208 956 l 111 969 l 111 983 l 326 983 l 326 969 l 229 956 l 229 21 l 649 21 q 691 35 674 21 q 717 79 708 49 q 722 160 725 110 l 713 338 l 733 338 l 767 0 l 111 0 m 646 603 q 676 596 661 603 q 702 576 692 589 q 713 540 713 563 q 702 506 713 521 q 676 485 692 492 q 646 478 661 478 q 614 485 631 478 q 587 506 597 492 q 576 540 576 521 q 587 576 576 563 q 614 596 597 589 q 646 603 631 603 z "},"Ł":{"ha":836,"x_min":71,"x_max":767,"o":"m 79 468 l 71 482 l 406 667 l 415 651 l 79 468 m 111 0 l 111 14 l 208 28 l 208 956 l 111 969 l 111 983 l 326 983 l 326 969 l 229 956 l 229 21 l 649 21 q 691 35 674 21 q 717 79 708 49 q 722 160 725 110 l 713 338 l 733 338 l 767 0 l 111 0 z "},"M":{"ha":1265,"x_min":111,"x_max":1196,"o":"m 111 0 l 111 14 l 208 35 l 208 949 l 111 969 l 111 983 l 210 983 l 668 17 l 656 29 l 688 29 l 675 17 l 1093 983 l 1196 983 l 1196 969 l 1099 949 l 1099 35 l 1196 14 l 1196 0 l 981 0 l 981 14 l 1078 35 l 1078 847 l 1056 847 l 690 0 l 654 0 l 253 847 l 229 847 l 229 169 q 234 100 229 128 q 251 55 239 72 q 284 28 263 38 q 340 17 306 19 q 424 14 375 14 l 424 0 l 111 0 z "},"N":{"ha":1128,"x_min":111,"x_max":1058,"o":"m 111 0 l 111 14 l 208 35 l 208 869 q 180 928 208 899 q 111 969 151 957 l 111 983 l 171 983 l 925 56 l 940 56 l 940 833 q 935 886 940 864 q 916 924 929 908 q 882 950 903 940 q 831 965 861 960 q 760 969 800 969 l 760 983 l 1058 983 l 1058 969 l 961 949 l 961 0 l 947 0 l 243 861 l 229 861 l 229 124 q 235 81 229 99 q 254 49 242 63 q 288 28 267 36 q 339 17 308 21 q 410 14 369 14 l 410 0 l 111 0 z "},"Ń":{"ha":1128,"x_min":111,"x_max":1058,"o":"m 111 0 l 111 14 l 208 35 l 208 869 q 180 928 208 899 q 111 969 151 957 l 111 983 l 171 983 l 925 56 l 940 56 l 940 833 q 935 886 940 864 q 916 924 929 908 q 882 950 903 940 q 831 965 861 960 q 760 969 800 969 l 760 983 l 1058 983 l 1058 969 l 961 949 l 961 0 l 947 0 l 243 861 l 229 861 l 229 124 q 235 81 229 99 q 254 49 242 63 q 288 28 267 36 q 339 17 308 21 q 410 14 369 14 l 410 0 l 111 0 m 543 1103 l 529 1117 l 738 1290 l 751 1275 l 543 1103 z "},"Ň":{"ha":1128,"x_min":111,"x_max":1058,"o":"m 111 0 l 111 14 l 208 35 l 208 869 q 180 928 208 899 q 111 969 151 957 l 111 983 l 171 983 l 925 56 l 940 56 l 940 833 q 935 886 940 864 q 916 924 929 908 q 882 950 903 940 q 831 965 861 960 q 760 969 800 969 l 760 983 l 1058 983 l 1058 969 l 961 949 l 961 0 l 947 0 l 243 861 l 229 861 l 229 124 q 235 81 229 99 q 254 49 242 63 q 288 28 267 36 q 339 17 308 21 q 410 14 369 14 l 410 0 l 111 0 m 775 1276 l 786 1265 l 590 1103 l 568 1103 l 369 1265 l 382 1276 l 579 1118 l 775 1276 z "},"Ņ":{"ha":1128,"x_min":111,"x_max":1058,"o":"m 111 0 l 111 14 l 208 35 l 208 869 q 180 928 208 899 q 111 969 151 957 l 111 983 l 171 983 l 925 56 l 940 56 l 940 833 q 935 886 940 864 q 916 924 929 908 q 882 950 903 940 q 831 965 861 960 q 760 969 800 969 l 760 983 l 1058 983 l 1058 969 l 961 949 l 961 0 l 947 0 l 243 861 l 229 861 l 229 124 q 235 81 229 99 q 254 49 242 63 q 288 28 267 36 q 339 17 308 21 q 410 14 369 14 l 410 0 l 111 0 m 536 -285 l 531 -272 q 567 -254 550 -264 q 599 -232 585 -244 q 622 -207 614 -219 l 608 -194 l 603 -194 q 569 -186 583 -194 q 546 -163 554 -178 q 538 -129 538 -149 q 547 -98 538 -111 q 572 -77 556 -85 q 607 -69 588 -69 q 642 -78 626 -69 q 665 -100 657 -86 q 674 -132 674 -114 q 665 -178 674 -157 q 640 -219 657 -200 q 597 -255 622 -239 q 536 -285 571 -271 z "},"Ñ":{"ha":1128,"x_min":111,"x_max":1058,"o":"m 111 0 l 111 14 l 208 35 l 208 869 q 180 928 208 899 q 111 969 151 957 l 111 983 l 171 983 l 925 56 l 940 56 l 940 833 q 935 886 940 864 q 916 924 929 908 q 882 950 903 940 q 831 965 861 960 q 760 969 800 969 l 760 983 l 1058 983 l 1058 969 l 961 949 l 961 0 l 947 0 l 243 861 l 229 861 l 229 124 q 235 81 229 99 q 254 49 242 63 q 288 28 267 36 q 339 17 308 21 q 410 14 369 14 l 410 0 l 111 0 m 710 1117 q 643 1135 674 1117 q 585 1179 613 1154 q 529 1223 557 1204 q 471 1242 501 1242 q 399 1212 425 1242 q 353 1119 374 1182 l 335 1122 q 365 1199 347 1168 q 410 1247 383 1231 q 471 1263 436 1263 q 534 1244 504 1263 q 592 1200 564 1225 q 650 1156 621 1175 q 710 1138 679 1138 q 769 1167 750 1138 q 803 1260 789 1197 l 821 1257 q 799 1178 813 1210 q 764 1132 785 1147 q 710 1117 743 1117 z "},"Ŋ":{"ha":1128,"x_min":111,"x_max":1058,"o":"m 961 -158 q 953 -217 961 -192 q 931 -261 946 -243 q 893 -289 915 -279 q 842 -299 871 -299 q 742 -280 786 -299 q 671 -228 697 -261 q 644 -157 644 -196 q 658 -120 644 -133 q 692 -107 671 -107 q 731 -123 717 -107 q 744 -169 744 -139 q 842 -278 744 -278 q 916 -246 890 -278 q 942 -158 942 -214 l 942 7 l 243 861 l 229 861 l 229 124 q 235 81 229 99 q 254 49 242 63 q 288 28 267 36 q 339 17 308 21 q 410 14 369 14 l 410 0 l 111 0 l 111 14 l 208 35 l 208 869 q 180 928 208 899 q 111 969 151 957 l 111 983 l 171 983 l 925 56 l 940 56 l 940 833 q 935 886 940 864 q 916 924 929 908 q 882 950 903 940 q 831 965 861 960 q 760 969 800 969 l 760 983 l 1058 983 l 1058 969 l 961 949 l 961 -158 z "},"O":{"ha":1028,"x_min":111,"x_max":917,"o":"m 515 1004 q 684 970 610 1004 q 810 871 758 936 q 890 713 863 806 q 917 500 917 619 q 890 281 917 378 q 810 117 863 183 q 684 15 758 50 q 515 -21 610 -21 q 344 15 419 -21 q 217 117 269 50 q 138 281 165 183 q 111 500 111 378 q 138 713 111 619 q 217 871 165 806 q 344 970 269 936 q 515 1004 419 1004 m 515 983 q 354 951 425 983 q 234 856 283 918 q 159 703 185 793 q 133 500 133 614 q 159 290 133 382 q 234 133 185 197 q 354 34 283 68 q 515 0 425 0 q 676 34 606 0 q 794 133 746 68 q 869 290 843 197 q 894 500 894 382 q 869 703 894 614 q 794 856 843 793 q 676 951 746 918 q 515 983 606 983 z "},"Ó":{"ha":1028,"x_min":111,"x_max":917,"o":"m 515 1004 q 684 970 610 1004 q 810 871 758 936 q 890 713 863 806 q 917 500 917 619 q 890 281 917 378 q 810 117 863 183 q 684 15 758 50 q 515 -21 610 -21 q 344 15 419 -21 q 217 117 269 50 q 138 281 165 183 q 111 500 111 378 q 138 713 111 619 q 217 871 165 806 q 344 970 269 936 q 515 1004 419 1004 m 515 983 q 354 951 425 983 q 234 856 283 918 q 159 703 185 793 q 133 500 133 614 q 159 290 133 382 q 234 133 185 197 q 354 34 283 68 q 515 0 425 0 q 676 34 606 0 q 794 133 746 68 q 869 290 843 197 q 894 500 894 382 q 869 703 894 614 q 794 856 843 793 q 676 951 746 918 q 515 983 606 983 m 481 1103 l 467 1117 l 675 1290 l 689 1275 l 481 1103 z "},"Ô":{"ha":1028,"x_min":111,"x_max":917,"o":"m 515 1004 q 684 970 610 1004 q 810 871 758 936 q 890 713 863 806 q 917 500 917 619 q 890 281 917 378 q 810 117 863 183 q 684 15 758 50 q 515 -21 610 -21 q 344 15 419 -21 q 217 117 269 50 q 138 281 165 183 q 111 500 111 378 q 138 713 111 619 q 217 871 165 806 q 344 970 269 936 q 515 1004 419 1004 m 515 983 q 354 951 425 983 q 234 856 283 918 q 159 703 185 793 q 133 500 133 614 q 159 290 133 382 q 234 133 185 197 q 354 34 283 68 q 515 0 425 0 q 676 34 606 0 q 794 133 746 68 q 869 290 843 197 q 894 500 894 382 q 869 703 894 614 q 794 856 843 793 q 676 951 746 918 q 515 983 606 983 m 318 1103 l 307 1114 l 504 1276 l 526 1276 l 724 1114 l 711 1103 l 515 1261 l 318 1103 z "},"Ö":{"ha":1028,"x_min":111,"x_max":917,"o":"m 515 1004 q 684 970 610 1004 q 810 871 758 936 q 890 713 863 806 q 917 500 917 619 q 890 281 917 378 q 810 117 863 183 q 684 15 758 50 q 515 -21 610 -21 q 344 15 419 -21 q 217 117 269 50 q 138 281 165 183 q 111 500 111 378 q 138 713 111 619 q 217 871 165 806 q 344 970 269 936 q 515 1004 419 1004 m 515 983 q 354 951 425 983 q 234 856 283 918 q 159 703 185 793 q 133 500 133 614 q 159 290 133 382 q 234 133 185 197 q 354 34 283 68 q 515 0 425 0 q 676 34 606 0 q 794 133 746 68 q 869 290 843 197 q 894 500 894 382 q 869 703 894 614 q 794 856 843 793 q 676 951 746 918 q 515 983 606 983 m 654 1263 q 704 1246 685 1263 q 724 1203 724 1229 q 704 1160 724 1176 q 654 1144 685 1144 q 602 1160 622 1144 q 582 1203 582 1176 q 602 1246 582 1229 q 654 1263 622 1263 m 376 1263 q 426 1246 407 1263 q 446 1203 446 1229 q 426 1160 446 1176 q 376 1144 407 1144 q 324 1160 344 1144 q 304 1203 304 1176 q 324 1246 304 1229 q 376 1263 344 1263 z "},"Ò":{"ha":1028,"x_min":111,"x_max":917,"o":"m 515 1004 q 684 970 610 1004 q 810 871 758 936 q 890 713 863 806 q 917 500 917 619 q 890 281 917 378 q 810 117 863 183 q 684 15 758 50 q 515 -21 610 -21 q 344 15 419 -21 q 217 117 269 50 q 138 281 165 183 q 111 500 111 378 q 138 713 111 619 q 217 871 165 806 q 344 970 269 936 q 515 1004 419 1004 m 515 983 q 354 951 425 983 q 234 856 283 918 q 159 703 185 793 q 133 500 133 614 q 159 290 133 382 q 234 133 185 197 q 354 34 283 68 q 515 0 425 0 q 676 34 606 0 q 794 133 746 68 q 869 290 843 197 q 894 500 894 382 q 869 703 894 614 q 794 856 843 793 q 676 951 746 918 q 515 983 606 983 m 571 1103 l 363 1275 l 376 1290 l 585 1117 l 571 1103 z "},"Ő":{"ha":1028,"x_min":111,"x_max":917,"o":"m 515 1004 q 684 970 610 1004 q 810 871 758 936 q 890 713 863 806 q 917 500 917 619 q 890 281 917 378 q 810 117 863 183 q 684 15 758 50 q 515 -21 610 -21 q 344 15 419 -21 q 217 117 269 50 q 138 281 165 183 q 111 500 111 378 q 138 713 111 619 q 217 871 165 806 q 344 970 269 936 q 515 1004 419 1004 m 515 983 q 354 951 425 983 q 234 856 283 918 q 159 703 185 793 q 133 500 133 614 q 159 290 133 382 q 234 133 185 197 q 354 34 283 68 q 515 0 425 0 q 676 34 606 0 q 794 133 746 68 q 869 290 843 197 q 894 500 894 382 q 869 703 894 614 q 794 856 843 793 q 676 951 746 918 q 515 983 606 983 m 626 1103 l 613 1117 l 821 1290 l 835 1275 l 626 1103 m 460 1103 l 446 1117 l 654 1290 l 668 1275 l 460 1103 z "},"Ō":{"ha":1028,"x_min":111,"x_max":917,"o":"m 515 1004 q 684 970 610 1004 q 810 871 758 936 q 890 713 863 806 q 917 500 917 619 q 890 281 917 378 q 810 117 863 183 q 684 15 758 50 q 515 -21 610 -21 q 344 15 419 -21 q 217 117 269 50 q 138 281 165 183 q 111 500 111 378 q 138 713 111 619 q 217 871 165 806 q 344 970 269 936 q 515 1004 419 1004 m 515 983 q 354 951 425 983 q 234 856 283 918 q 159 703 185 793 q 133 500 133 614 q 159 290 133 382 q 234 133 185 197 q 354 34 283 68 q 515 0 425 0 q 676 34 606 0 q 794 133 746 68 q 869 290 843 197 q 894 500 894 382 q 869 703 894 614 q 794 856 843 793 q 676 951 746 918 q 515 983 606 983 m 293 1178 l 293 1199 l 738 1199 l 738 1178 l 293 1178 z "},"Ø":{"ha":1028,"x_min":111,"x_max":917,"o":"m 299 -135 l 279 -128 l 732 1118 l 751 1111 l 299 -135 m 515 1004 q 684 970 610 1004 q 810 871 758 936 q 890 713 863 806 q 917 500 917 619 q 890 281 917 378 q 810 117 863 183 q 684 15 758 50 q 515 -21 610 -21 q 344 15 419 -21 q 217 117 269 50 q 138 281 165 183 q 111 500 111 378 q 138 713 111 619 q 217 871 165 806 q 344 970 269 936 q 515 1004 419 1004 m 515 983 q 354 951 425 983 q 234 856 283 918 q 159 703 185 793 q 133 500 133 614 q 159 290 133 382 q 234 133 185 197 q 354 34 283 68 q 515 0 425 0 q 676 34 606 0 q 794 133 746 68 q 869 290 843 197 q 894 500 894 382 q 869 703 894 614 q 794 856 843 793 q 676 951 746 918 q 515 983 606 983 z "},"Õ":{"ha":1028,"x_min":111,"x_max":917,"o":"m 515 1004 q 684 970 610 1004 q 810 871 758 936 q 890 713 863 806 q 917 500 917 619 q 890 281 917 378 q 810 117 863 183 q 684 15 758 50 q 515 -21 610 -21 q 344 15 419 -21 q 217 117 269 50 q 138 281 165 183 q 111 500 111 378 q 138 713 111 619 q 217 871 165 806 q 344 970 269 936 q 515 1004 419 1004 m 515 983 q 354 951 425 983 q 234 856 283 918 q 159 703 185 793 q 133 500 133 614 q 159 290 133 382 q 234 133 185 197 q 354 34 283 68 q 515 0 425 0 q 676 34 606 0 q 794 133 746 68 q 869 290 843 197 q 894 500 894 382 q 869 703 894 614 q 794 856 843 793 q 676 951 746 918 q 515 983 606 983 m 647 1117 q 581 1135 611 1117 q 522 1179 550 1154 q 467 1223 494 1204 q 408 1242 439 1242 q 337 1212 363 1242 q 290 1119 311 1182 l 272 1122 q 303 1199 285 1168 q 347 1247 321 1231 q 408 1263 374 1263 q 472 1244 442 1263 q 530 1200 501 1225 q 588 1156 558 1175 q 647 1138 617 1138 q 707 1167 688 1138 q 740 1260 726 1197 l 758 1257 q 736 1178 750 1210 q 701 1132 722 1147 q 647 1117 681 1117 z "},"Œ":{"ha":1431,"x_min":111,"x_max":1326,"o":"m 515 0 q 619 15 568 0 q 713 56 671 29 q 713 204 713 131 q 713 352 713 278 q 713 500 713 426 q 713 644 713 572 q 713 787 713 715 q 713 929 713 858 q 619 969 672 954 q 515 983 567 983 q 354 951 425 983 q 234 856 283 918 q 159 703 185 793 q 133 500 133 614 q 159 290 133 382 q 234 133 185 197 q 354 34 283 68 q 515 0 425 0 m 1196 963 l 733 963 l 733 511 l 996 511 q 1019 517 1010 511 q 1035 535 1029 524 q 1044 585 1042 551 q 1047 692 1047 619 l 1061 692 l 1061 356 l 1047 356 l 1039 490 l 733 490 l 733 21 l 1219 21 q 1281 42 1267 21 q 1289 115 1296 63 l 1258 338 l 1279 338 l 1326 0 l 647 0 q 584 -15 617 -10 q 515 -21 551 -21 q 344 15 419 -21 q 217 117 269 50 q 138 281 165 183 q 111 500 111 378 q 138 713 111 619 q 217 871 165 806 q 344 970 269 936 q 515 1004 419 1004 q 586 999 553 1004 q 650 983 619 994 l 1326 983 l 1279 672 l 1258 672 l 1281 882 q 1267 945 1286 928 q 1196 963 1249 963 z "},"P":{"ha":853,"x_min":111,"x_max":797,"o":"m 479 983 q 651 952 579 983 q 760 861 722 921 q 797 718 797 801 q 713 512 797 586 q 476 438 628 438 q 353 442 419 438 q 221 457 286 447 l 221 494 q 476 460 315 460 q 697 528 618 460 q 776 718 776 596 q 741 849 776 794 q 640 932 706 903 q 479 961 574 961 q 374 960 422 961 q 290 956 326 958 q 229 949 253 953 l 229 35 l 326 14 l 326 0 l 111 0 l 111 14 l 208 35 l 208 949 l 111 969 l 111 983 l 479 983 z "},"Þ":{"ha":853,"x_min":111,"x_max":797,"o":"m 111 0 l 111 14 l 208 28 l 208 956 l 111 969 l 111 983 l 326 983 l 326 969 l 229 956 l 229 28 l 326 14 l 326 0 l 111 0 m 451 781 q 328 774 385 781 q 224 754 271 768 l 224 786 q 333 799 276 794 q 451 803 389 803 q 640 772 563 803 q 757 683 717 742 q 797 538 797 624 q 759 387 797 450 q 649 290 721 324 q 476 257 578 257 q 353 262 419 257 q 221 276 286 267 l 221 314 q 333 288 269 296 q 476 279 396 279 q 638 310 571 279 q 741 399 706 340 q 776 538 776 457 q 739 669 776 615 q 628 752 701 724 q 451 781 556 781 z "},"Q":{"ha":1028,"x_min":111,"x_max":917,"o":"m 528 -7 l 547 -7 q 599 -120 568 -75 q 674 -187 631 -165 q 769 -210 717 -210 q 823 -203 799 -210 q 867 -181 847 -196 q 903 -146 888 -167 l 910 -153 q 886 -186 903 -168 q 841 -217 869 -204 q 769 -229 813 -229 q 622 -174 682 -229 q 528 -7 563 -118 m 515 1004 q 684 970 610 1004 q 810 871 758 936 q 890 713 863 806 q 917 500 917 619 q 890 281 917 378 q 810 117 863 183 q 684 15 758 50 q 515 -21 610 -21 q 344 15 419 -21 q 217 117 269 50 q 138 281 165 183 q 111 500 111 378 q 138 713 111 619 q 217 871 165 806 q 344 970 269 936 q 515 1004 419 1004 m 515 983 q 354 951 425 983 q 234 856 283 918 q 159 703 185 793 q 133 500 133 614 q 159 290 133 382 q 234 133 185 197 q 354 34 283 68 q 515 0 425 0 q 676 34 606 0 q 794 133 746 68 q 869 290 843 197 q 894 500 894 382 q 869 703 894 614 q 794 856 843 793 q 676 951 746 918 q 515 983 606 983 z "},"R":{"ha":924,"x_min":111,"x_max":917,"o":"m 875 -21 q 826 3 851 -21 q 769 85 801 28 q 692 238 738 142 q 577 419 635 363 q 450 476 519 476 l 229 476 l 229 35 l 326 14 l 326 0 l 111 0 l 111 14 l 208 35 l 208 949 l 111 969 l 111 983 l 493 983 q 658 957 590 983 q 762 878 726 931 q 797 746 797 825 q 766 625 797 679 q 674 535 735 571 q 525 486 613 500 l 525 479 q 571 456 549 472 q 615 411 593 439 q 660 344 638 383 q 708 250 683 304 q 784 102 753 157 q 840 24 815 47 q 885 0 864 0 q 917 8 900 0 l 917 -6 q 903 -13 911 -10 q 889 -19 896 -17 q 875 -21 882 -21 m 426 499 q 572 516 507 499 q 682 566 636 533 q 752 644 728 599 q 776 746 776 690 q 744 865 776 817 q 648 938 711 913 q 493 963 585 963 q 342 959 407 963 q 229 949 276 956 l 229 507 q 301 501 258 503 q 426 499 344 499 z "},"Ŕ":{"ha":924,"x_min":111,"x_max":917,"o":"m 875 -21 q 826 3 851 -21 q 769 85 801 28 q 692 238 738 142 q 577 419 635 363 q 450 476 519 476 l 229 476 l 229 35 l 326 14 l 326 0 l 111 0 l 111 14 l 208 35 l 208 949 l 111 969 l 111 983 l 493 983 q 658 957 590 983 q 762 878 726 931 q 797 746 797 825 q 766 625 797 679 q 674 535 735 571 q 525 486 613 500 l 525 479 q 571 456 549 472 q 615 411 593 439 q 660 344 638 383 q 708 250 683 304 q 784 102 753 157 q 840 24 815 47 q 885 0 864 0 q 917 8 900 0 l 917 -6 q 903 -13 911 -10 q 889 -19 896 -17 q 875 -21 882 -21 m 426 499 q 572 516 507 499 q 682 566 636 533 q 752 644 728 599 q 776 746 776 690 q 744 865 776 817 q 648 938 711 913 q 493 963 585 963 q 342 959 407 963 q 229 949 276 956 l 229 507 q 301 501 258 503 q 426 499 344 499 m 428 1103 l 414 1117 l 622 1290 l 636 1275 l 428 1103 z "},"Ř":{"ha":924,"x_min":111,"x_max":917,"o":"m 875 -21 q 826 3 851 -21 q 769 85 801 28 q 692 238 738 142 q 577 419 635 363 q 450 476 519 476 l 229 476 l 229 35 l 326 14 l 326 0 l 111 0 l 111 14 l 208 35 l 208 949 l 111 969 l 111 983 l 493 983 q 658 957 590 983 q 762 878 726 931 q 797 746 797 825 q 766 625 797 679 q 674 535 735 571 q 525 486 613 500 l 525 479 q 571 456 549 472 q 615 411 593 439 q 660 344 638 383 q 708 250 683 304 q 784 102 753 157 q 840 24 815 47 q 885 0 864 0 q 917 8 900 0 l 917 -6 q 903 -13 911 -10 q 889 -19 896 -17 q 875 -21 882 -21 m 426 499 q 572 516 507 499 q 682 566 636 533 q 752 644 728 599 q 776 746 776 690 q 744 865 776 817 q 648 938 711 913 q 493 963 585 963 q 342 959 407 963 q 229 949 276 956 l 229 507 q 301 501 258 503 q 426 499 344 499 m 660 1276 l 671 1265 l 475 1103 l 453 1103 l 254 1265 l 267 1276 l 464 1118 l 660 1276 z "},"Ŗ":{"ha":924,"x_min":111,"x_max":917,"o":"m 875 -21 q 826 3 851 -21 q 769 85 801 28 q 692 238 738 142 q 577 419 635 363 q 450 476 519 476 l 229 476 l 229 35 l 326 14 l 326 0 l 111 0 l 111 14 l 208 35 l 208 949 l 111 969 l 111 983 l 493 983 q 658 957 590 983 q 762 878 726 931 q 797 746 797 825 q 766 625 797 679 q 674 535 735 571 q 525 486 613 500 l 525 479 q 571 456 549 472 q 615 411 593 439 q 660 344 638 383 q 708 250 683 304 q 784 102 753 157 q 840 24 815 47 q 885 0 864 0 q 917 8 900 0 l 917 -6 q 903 -13 911 -10 q 889 -19 896 -17 q 875 -21 882 -21 m 426 499 q 572 516 507 499 q 682 566 636 533 q 752 644 728 599 q 776 746 776 690 q 744 865 776 817 q 648 938 711 913 q 493 963 585 963 q 342 959 407 963 q 229 949 276 956 l 229 507 q 301 501 258 503 q 426 499 344 499 m 449 -285 l 443 -272 q 480 -254 463 -264 q 512 -232 497 -244 q 535 -207 526 -219 l 521 -194 l 515 -194 q 481 -186 496 -194 q 458 -163 467 -178 q 450 -129 450 -149 q 459 -98 450 -111 q 484 -77 468 -85 q 519 -69 500 -69 q 554 -78 539 -69 q 578 -100 569 -86 q 586 -132 586 -114 q 578 -178 586 -157 q 552 -219 569 -200 q 509 -255 535 -239 q 449 -285 483 -271 z "},"S":{"ha":928,"x_min":97,"x_max":831,"o":"m 476 -21 q 349 -5 414 -21 q 220 41 283 11 q 97 113 157 71 l 125 389 l 139 389 l 131 228 q 170 107 128 158 q 292 28 213 56 q 476 0 371 0 q 656 28 582 0 q 770 108 731 56 q 810 232 810 160 q 778 345 810 299 q 672 428 746 392 q 472 500 599 465 q 267 572 343 535 q 158 660 190 610 q 125 779 125 710 q 148 874 125 832 q 214 944 171 915 q 319 989 257 974 q 460 1004 381 1004 q 600 988 535 1004 q 719 942 665 971 q 814 875 774 913 l 786 626 l 772 626 l 776 749 q 744 880 779 828 q 637 958 708 932 q 460 983 565 983 q 291 959 361 983 q 183 889 221 935 q 146 779 146 843 q 176 670 146 715 q 279 590 207 625 q 475 524 351 556 q 643 469 575 497 q 753 406 711 440 q 813 330 794 372 q 831 232 831 288 q 815 145 831 185 q 770 75 800 106 q 697 23 740 44 q 599 -10 654 1 q 476 -21 543 -21 z "},"Ś":{"ha":928,"x_min":97,"x_max":831,"o":"m 476 -21 q 349 -5 414 -21 q 220 41 283 11 q 97 113 157 71 l 125 389 l 139 389 l 131 228 q 170 107 128 158 q 292 28 213 56 q 476 0 371 0 q 656 28 582 0 q 770 108 731 56 q 810 232 810 160 q 778 345 810 299 q 672 428 746 392 q 472 500 599 465 q 267 572 343 535 q 158 660 190 610 q 125 779 125 710 q 148 874 125 832 q 214 944 171 915 q 319 989 257 974 q 460 1004 381 1004 q 600 988 535 1004 q 719 942 665 971 q 814 875 774 913 l 786 626 l 772 626 l 776 749 q 744 880 779 828 q 637 958 708 932 q 460 983 565 983 q 291 959 361 983 q 183 889 221 935 q 146 779 146 843 q 176 670 146 715 q 279 590 207 625 q 475 524 351 556 q 643 469 575 497 q 753 406 711 440 q 813 330 794 372 q 831 232 831 288 q 815 145 831 185 q 770 75 800 106 q 697 23 740 44 q 599 -10 654 1 q 476 -21 543 -21 m 439 1103 l 425 1117 l 633 1290 l 647 1275 l 439 1103 z "},"Š":{"ha":928,"x_min":97,"x_max":831,"o":"m 476 -21 q 349 -5 414 -21 q 220 41 283 11 q 97 113 157 71 l 125 389 l 139 389 l 131 228 q 170 107 128 158 q 292 28 213 56 q 476 0 371 0 q 656 28 582 0 q 770 108 731 56 q 810 232 810 160 q 778 345 810 299 q 672 428 746 392 q 472 500 599 465 q 267 572 343 535 q 158 660 190 610 q 125 779 125 710 q 148 874 125 832 q 214 944 171 915 q 319 989 257 974 q 460 1004 381 1004 q 600 988 535 1004 q 719 942 665 971 q 814 875 774 913 l 786 626 l 772 626 l 776 749 q 744 880 779 828 q 637 958 708 932 q 460 983 565 983 q 291 959 361 983 q 183 889 221 935 q 146 779 146 843 q 176 670 146 715 q 279 590 207 625 q 475 524 351 556 q 643 469 575 497 q 753 406 711 440 q 813 330 794 372 q 831 232 831 288 q 815 145 831 185 q 770 75 800 106 q 697 23 740 44 q 599 -10 654 1 q 476 -21 543 -21 m 671 1276 l 682 1265 l 486 1103 l 464 1103 l 265 1265 l 278 1276 l 475 1118 l 671 1276 z "},"Ş":{"ha":928,"x_min":97,"x_max":831,"o":"m 476 -21 q 349 -5 414 -21 q 220 41 283 11 q 97 113 157 71 l 125 389 l 139 389 l 131 228 q 170 107 128 158 q 292 28 213 56 q 476 0 371 0 q 656 28 582 0 q 770 108 731 56 q 810 232 810 160 q 778 345 810 299 q 672 428 746 392 q 472 500 599 465 q 267 572 343 535 q 158 660 190 610 q 125 779 125 710 q 148 874 125 832 q 214 944 171 915 q 319 989 257 974 q 460 1004 381 1004 q 600 988 535 1004 q 719 942 665 971 q 814 875 774 913 l 786 626 l 772 626 l 776 749 q 744 880 779 828 q 637 958 708 932 q 460 983 565 983 q 291 959 361 983 q 183 889 221 935 q 146 779 146 843 q 176 670 146 715 q 279 590 207 625 q 475 524 351 556 q 643 469 575 497 q 753 406 711 440 q 813 330 794 372 q 831 232 831 288 q 815 145 831 185 q 770 75 800 106 q 697 23 740 44 q 599 -10 654 1 q 476 -21 543 -21 m 529 -299 q 444 -275 481 -299 q 393 -208 408 -251 l 407 -194 q 454 -256 422 -233 q 529 -278 486 -278 q 577 -266 557 -278 q 609 -232 597 -254 q 621 -182 621 -210 q 610 -136 621 -157 q 580 -99 600 -115 q 530 -73 560 -82 q 463 -64 500 -64 l 488 0 l 508 0 l 497 -32 l 508 -47 q 581 -74 551 -56 q 626 -119 611 -92 q 642 -182 642 -146 q 627 -242 642 -215 q 588 -283 613 -268 q 529 -299 563 -299 z "},"Ș":{"ha":928,"x_min":97,"x_max":831,"o":"m 476 -21 q 349 -5 414 -21 q 220 41 283 11 q 97 113 157 71 l 125 389 l 139 389 l 131 228 q 170 107 128 158 q 292 28 213 56 q 476 0 371 0 q 656 28 582 0 q 770 108 731 56 q 810 232 810 160 q 778 345 810 299 q 672 428 746 392 q 472 500 599 465 q 267 572 343 535 q 158 660 190 610 q 125 779 125 710 q 148 874 125 832 q 214 944 171 915 q 319 989 257 974 q 460 1004 381 1004 q 600 988 535 1004 q 719 942 665 971 q 814 875 774 913 l 786 626 l 772 626 l 776 749 q 744 880 779 828 q 637 958 708 932 q 460 983 565 983 q 291 959 361 983 q 183 889 221 935 q 146 779 146 843 q 176 670 146 715 q 279 590 207 625 q 475 524 351 556 q 643 469 575 497 q 753 406 711 440 q 813 330 794 372 q 831 232 831 288 q 815 145 831 185 q 770 75 800 106 q 697 23 740 44 q 599 -10 654 1 q 476 -21 543 -21 m 432 -285 l 426 -272 q 463 -254 446 -264 q 495 -232 481 -244 q 518 -207 510 -219 l 504 -194 l 499 -194 q 465 -186 479 -194 q 442 -163 450 -178 q 433 -129 433 -149 q 442 -98 433 -111 q 467 -77 451 -85 q 503 -69 483 -69 q 538 -78 522 -69 q 561 -100 553 -86 q 569 -132 569 -114 q 561 -178 569 -157 q 535 -219 553 -200 q 492 -255 518 -239 q 432 -285 467 -271 z "},"ẞ":{"ha":993,"x_min":111,"x_max":910,"o":"m 601 -21 q 455 3 517 -21 q 355 63 393 26 q 298 142 317 100 q 279 219 279 183 q 293 274 279 253 q 328 306 307 296 q 372 317 350 317 q 410 309 393 317 q 438 288 428 301 q 449 251 449 274 q 436 222 449 233 q 406 200 424 210 q 369 182 388 190 q 338 164 350 174 q 325 140 325 154 q 343 103 325 126 q 396 57 361 81 q 483 17 431 33 q 601 0 535 0 q 750 33 685 0 q 852 123 815 65 q 889 257 889 181 q 791 451 889 383 q 511 518 693 518 l 511 539 l 810 963 l 229 963 l 229 35 l 326 14 l 326 0 l 111 0 l 111 14 l 208 35 l 208 983 l 833 983 l 833 961 l 532 538 q 737 503 653 538 q 865 407 821 469 q 910 257 910 344 q 870 112 910 175 q 761 14 831 49 q 601 -21 692 -21 z "},"T":{"ha":974,"x_min":83,"x_max":890,"o":"m 379 0 l 379 14 l 476 35 l 476 963 l 243 963 q 171 951 199 963 q 132 909 143 940 q 125 818 121 878 l 138 644 l 117 644 l 83 983 l 890 983 l 857 644 l 836 644 l 850 810 q 844 906 856 874 q 806 951 833 939 q 731 963 778 963 l 497 963 l 497 35 l 594 14 l 594 0 l 379 0 z "},"Ť":{"ha":974,"x_min":83,"x_max":890,"o":"m 379 0 l 379 14 l 476 35 l 476 963 l 243 963 q 171 951 199 963 q 132 909 143 940 q 125 818 121 878 l 138 644 l 117 644 l 83 983 l 890 983 l 857 644 l 836 644 l 850 810 q 844 906 856 874 q 806 951 833 939 q 731 963 778 963 l 497 963 l 497 35 l 594 14 l 594 0 l 379 0 m 685 1276 l 696 1265 l 500 1103 l 478 1103 l 279 1265 l 292 1276 l 489 1118 l 685 1276 z "},"Ț":{"ha":974,"x_min":83,"x_max":890,"o":"m 379 0 l 379 14 l 476 35 l 476 963 l 243 963 q 171 951 199 963 q 132 909 143 940 q 125 818 121 878 l 138 644 l 117 644 l 83 983 l 890 983 l 857 644 l 836 644 l 850 810 q 844 906 856 874 q 806 951 833 939 q 731 963 778 963 l 497 963 l 497 35 l 594 14 l 594 0 l 379 0 m 418 -285 l 413 -272 q 449 -254 432 -264 q 481 -232 467 -244 q 504 -207 496 -219 l 490 -194 l 485 -194 q 451 -186 465 -194 q 428 -163 436 -178 q 419 -129 419 -149 q 428 -98 419 -111 q 453 -77 438 -85 q 489 -69 469 -69 q 524 -78 508 -69 q 547 -100 539 -86 q 556 -132 556 -114 q 547 -178 556 -157 q 522 -219 539 -200 q 478 -255 504 -239 q 418 -285 453 -271 z "},"U":{"ha":1028,"x_min":69,"x_max":979,"o":"m 543 -21 q 260 90 354 -21 q 167 422 167 200 l 167 949 l 69 969 l 69 983 l 285 983 l 285 969 l 188 949 l 188 422 q 276 105 188 210 q 543 0 364 0 q 781 105 703 0 q 860 422 860 210 l 860 781 q 852 869 860 833 q 827 928 844 906 q 781 960 810 950 q 708 969 751 969 l 708 983 l 979 983 l 979 969 l 882 949 l 882 422 q 798 90 882 200 q 543 -21 714 -21 z "},"Ú":{"ha":1028,"x_min":69,"x_max":979,"o":"m 543 -21 q 260 90 354 -21 q 167 422 167 200 l 167 949 l 69 969 l 69 983 l 285 983 l 285 969 l 188 949 l 188 422 q 276 105 188 210 q 543 0 364 0 q 781 105 703 0 q 860 422 860 210 l 860 781 q 852 869 860 833 q 827 928 844 906 q 781 960 810 950 q 708 969 751 969 l 708 983 l 979 983 l 979 969 l 882 949 l 882 422 q 798 90 882 200 q 543 -21 714 -21 m 488 1103 l 474 1117 l 682 1290 l 696 1275 l 488 1103 z "},"Ŭ":{"ha":1028,"x_min":69,"x_max":979,"o":"m 543 -21 q 260 90 354 -21 q 167 422 167 200 l 167 949 l 69 969 l 69 983 l 285 983 l 285 969 l 188 949 l 188 422 q 276 105 188 210 q 543 0 364 0 q 781 105 703 0 q 860 422 860 210 l 860 781 q 852 869 860 833 q 827 928 844 906 q 781 960 810 950 q 708 969 751 969 l 708 983 l 979 983 l 979 969 l 882 949 l 882 422 q 798 90 882 200 q 543 -21 714 -21 m 522 1117 q 399 1153 453 1117 q 314 1256 344 1189 l 332 1263 q 378 1194 350 1222 q 442 1152 406 1167 q 522 1138 479 1138 q 603 1152 567 1138 q 667 1194 639 1167 q 713 1263 694 1222 l 731 1256 q 646 1153 700 1189 q 522 1117 592 1117 z "},"Û":{"ha":1028,"x_min":69,"x_max":979,"o":"m 543 -21 q 260 90 354 -21 q 167 422 167 200 l 167 949 l 69 969 l 69 983 l 285 983 l 285 969 l 188 949 l 188 422 q 276 105 188 210 q 543 0 364 0 q 781 105 703 0 q 860 422 860 210 l 860 781 q 852 869 860 833 q 827 928 844 906 q 781 960 810 950 q 708 969 751 969 l 708 983 l 979 983 l 979 969 l 882 949 l 882 422 q 798 90 882 200 q 543 -21 714 -21 m 325 1103 l 314 1114 l 511 1276 l 533 1276 l 731 1114 l 718 1103 l 522 1261 l 325 1103 z "},"Ü":{"ha":1028,"x_min":69,"x_max":979,"o":"m 543 -21 q 260 90 354 -21 q 167 422 167 200 l 167 949 l 69 969 l 69 983 l 285 983 l 285 969 l 188 949 l 188 422 q 276 105 188 210 q 543 0 364 0 q 781 105 703 0 q 860 422 860 210 l 860 781 q 852 869 860 833 q 827 928 844 906 q 781 960 810 950 q 708 969 751 969 l 708 983 l 979 983 l 979 969 l 882 949 l 882 422 q 798 90 882 200 q 543 -21 714 -21 m 661 1263 q 711 1246 692 1263 q 731 1203 731 1229 q 711 1160 731 1176 q 661 1144 692 1144 q 609 1160 629 1144 q 589 1203 589 1176 q 609 1246 589 1229 q 661 1263 629 1263 m 383 1263 q 433 1246 414 1263 q 453 1203 453 1229 q 433 1160 453 1176 q 383 1144 414 1144 q 331 1160 351 1144 q 311 1203 311 1176 q 331 1246 311 1229 q 383 1263 351 1263 z "},"Ù":{"ha":1028,"x_min":69,"x_max":979,"o":"m 543 -21 q 260 90 354 -21 q 167 422 167 200 l 167 949 l 69 969 l 69 983 l 285 983 l 285 969 l 188 949 l 188 422 q 276 105 188 210 q 543 0 364 0 q 781 105 703 0 q 860 422 860 210 l 860 781 q 852 869 860 833 q 827 928 844 906 q 781 960 810 950 q 708 969 751 969 l 708 983 l 979 983 l 979 969 l 882 949 l 882 422 q 798 90 882 200 q 543 -21 714 -21 m 578 1103 l 369 1275 l 383 1290 l 592 1117 l 578 1103 z "},"Ű":{"ha":1028,"x_min":69,"x_max":979,"o":"m 543 -21 q 260 90 354 -21 q 167 422 167 200 l 167 949 l 69 969 l 69 983 l 285 983 l 285 969 l 188 949 l 188 422 q 276 105 188 210 q 543 0 364 0 q 781 105 703 0 q 860 422 860 210 l 860 781 q 852 869 860 833 q 827 928 844 906 q 781 960 810 950 q 708 969 751 969 l 708 983 l 979 983 l 979 969 l 882 949 l 882 422 q 798 90 882 200 q 543 -21 714 -21 m 633 1103 l 619 1117 l 828 1290 l 842 1275 l 633 1103 m 467 1103 l 453 1117 l 661 1290 l 675 1275 l 467 1103 z "},"Ū":{"ha":1028,"x_min":69,"x_max":979,"o":"m 543 -21 q 260 90 354 -21 q 167 422 167 200 l 167 949 l 69 969 l 69 983 l 285 983 l 285 969 l 188 949 l 188 422 q 276 105 188 210 q 543 0 364 0 q 781 105 703 0 q 860 422 860 210 l 860 781 q 852 869 860 833 q 827 928 844 906 q 781 960 810 950 q 708 969 751 969 l 708 983 l 979 983 l 979 969 l 882 949 l 882 422 q 798 90 882 200 q 543 -21 714 -21 m 300 1178 l 300 1199 l 744 1199 l 744 1178 l 300 1178 z "},"Ų":{"ha":1028,"x_min":69,"x_max":979,"o":"m 543 -21 q 260 90 354 -21 q 167 422 167 200 l 167 949 l 69 969 l 69 983 l 285 983 l 285 969 l 188 949 l 188 422 q 276 105 188 210 q 543 0 364 0 q 781 105 703 0 q 860 422 860 210 l 860 781 q 852 869 860 833 q 827 928 844 906 q 781 960 810 950 q 708 969 751 969 l 708 983 l 979 983 l 979 969 l 882 949 l 882 422 q 798 90 882 200 q 543 -21 714 -21 m 688 6 q 546 -97 593 -47 q 499 -194 499 -146 q 523 -251 499 -229 q 585 -272 547 -272 q 660 -251 625 -272 q 726 -187 696 -231 l 736 -197 q 667 -268 706 -243 q 585 -293 628 -293 q 530 -281 554 -293 q 492 -246 506 -268 q 478 -194 478 -224 q 528 -87 478 -139 q 678 14 578 -35 l 688 6 z "},"Ů":{"ha":1028,"x_min":69,"x_max":979,"o":"m 543 -21 q 260 90 354 -21 q 167 422 167 200 l 167 949 l 69 969 l 69 983 l 285 983 l 285 969 l 188 949 l 188 422 q 276 105 188 210 q 543 0 364 0 q 781 105 703 0 q 860 422 860 210 l 860 781 q 852 869 860 833 q 827 928 844 906 q 781 960 810 950 q 708 969 751 969 l 708 983 l 979 983 l 979 969 l 882 949 l 882 422 q 798 90 882 200 q 543 -21 714 -21 m 521 1286 q 578 1274 553 1286 q 619 1241 604 1263 q 633 1192 633 1219 q 619 1142 633 1164 q 578 1107 604 1119 q 521 1094 553 1094 q 464 1107 489 1094 q 425 1142 439 1119 q 411 1192 411 1164 q 425 1241 411 1219 q 464 1274 439 1263 q 521 1286 489 1286 m 521 1265 q 457 1244 482 1265 q 432 1192 432 1224 q 457 1137 432 1158 q 521 1115 482 1115 q 586 1137 560 1115 q 613 1192 613 1158 q 586 1244 613 1224 q 521 1265 560 1265 z "},"V":{"ha":957,"x_min":14,"x_max":943,"o":"m 467 0 l 111 949 l 14 969 l 14 983 l 231 983 l 231 969 l 132 950 l 472 39 l 485 39 l 785 840 q 797 881 793 863 q 801 911 801 899 q 772 957 801 944 q 669 969 743 969 l 669 983 l 943 983 l 943 969 l 846 949 l 492 0 l 467 0 z "},"W":{"ha":1543,"x_min":14,"x_max":1529,"o":"m 1053 0 l 764 769 l 775 796 l 1058 39 l 1071 39 l 1371 840 q 1383 880 1379 863 q 1388 911 1388 897 q 1375 946 1388 933 q 1334 964 1363 958 q 1256 969 1306 969 l 1256 983 l 1529 983 l 1529 969 l 1432 949 l 1078 0 l 1053 0 m 467 0 l 111 949 l 14 969 l 14 983 l 231 983 l 231 969 l 132 950 l 472 39 l 485 39 l 785 840 q 797 881 793 863 q 801 911 801 899 q 772 957 801 944 q 669 969 743 969 l 669 983 l 943 983 l 943 969 l 846 949 l 492 0 l 467 0 z "},"Ẃ":{"ha":1543,"x_min":14,"x_max":1529,"o":"m 1053 0 l 764 769 l 775 796 l 1058 39 l 1071 39 l 1371 840 q 1383 880 1379 863 q 1388 911 1388 897 q 1375 946 1388 933 q 1334 964 1363 958 q 1256 969 1306 969 l 1256 983 l 1529 983 l 1529 969 l 1432 949 l 1078 0 l 1053 0 m 467 0 l 111 949 l 14 969 l 14 983 l 231 983 l 231 969 l 132 950 l 472 39 l 485 39 l 785 840 q 797 881 793 863 q 801 911 801 899 q 772 957 801 944 q 669 969 743 969 l 669 983 l 943 983 l 943 969 l 846 949 l 492 0 l 467 0 m 764 1103 l 750 1117 l 958 1290 l 972 1275 l 764 1103 z "},"Ŵ":{"ha":1543,"x_min":14,"x_max":1529,"o":"m 1053 0 l 764 769 l 775 796 l 1058 39 l 1071 39 l 1371 840 q 1383 880 1379 863 q 1388 911 1388 897 q 1375 946 1388 933 q 1334 964 1363 958 q 1256 969 1306 969 l 1256 983 l 1529 983 l 1529 969 l 1432 949 l 1078 0 l 1053 0 m 467 0 l 111 949 l 14 969 l 14 983 l 231 983 l 231 969 l 132 950 l 472 39 l 485 39 l 785 840 q 797 881 793 863 q 801 911 801 899 q 772 957 801 944 q 669 969 743 969 l 669 983 l 943 983 l 943 969 l 846 949 l 492 0 l 467 0 m 601 1103 l 590 1114 l 788 1276 l 810 1276 l 1007 1114 l 994 1103 l 799 1261 l 601 1103 z "},"Ẅ":{"ha":1543,"x_min":14,"x_max":1529,"o":"m 1053 0 l 764 769 l 775 796 l 1058 39 l 1071 39 l 1371 840 q 1383 880 1379 863 q 1388 911 1388 897 q 1375 946 1388 933 q 1334 964 1363 958 q 1256 969 1306 969 l 1256 983 l 1529 983 l 1529 969 l 1432 949 l 1078 0 l 1053 0 m 467 0 l 111 949 l 14 969 l 14 983 l 231 983 l 231 969 l 132 950 l 472 39 l 485 39 l 785 840 q 797 881 793 863 q 801 911 801 899 q 772 957 801 944 q 669 969 743 969 l 669 983 l 943 983 l 943 969 l 846 949 l 492 0 l 467 0 m 938 1263 q 988 1246 968 1263 q 1007 1203 1007 1229 q 988 1160 1007 1176 q 938 1144 968 1144 q 885 1160 906 1144 q 865 1203 865 1176 q 885 1246 865 1229 q 938 1263 906 1263 m 660 1263 q 710 1246 690 1263 q 729 1203 729 1229 q 710 1160 729 1176 q 660 1144 690 1144 q 608 1160 628 1144 q 588 1203 588 1176 q 608 1246 588 1229 q 660 1263 628 1263 z "},"Ẁ":{"ha":1543,"x_min":14,"x_max":1529,"o":"m 1053 0 l 764 769 l 775 796 l 1058 39 l 1071 39 l 1371 840 q 1383 880 1379 863 q 1388 911 1388 897 q 1375 946 1388 933 q 1334 964 1363 958 q 1256 969 1306 969 l 1256 983 l 1529 983 l 1529 969 l 1432 949 l 1078 0 l 1053 0 m 467 0 l 111 949 l 14 969 l 14 983 l 231 983 l 231 969 l 132 950 l 472 39 l 485 39 l 785 840 q 797 881 793 863 q 801 911 801 899 q 772 957 801 944 q 669 969 743 969 l 669 983 l 943 983 l 943 969 l 846 949 l 492 0 l 467 0 m 854 1103 l 646 1275 l 660 1290 l 868 1117 l 854 1103 z "},"X":{"ha":946,"x_min":28,"x_max":918,"o":"m 700 0 l 700 14 l 797 35 l 132 949 l 35 969 l 35 983 l 249 983 l 249 969 l 151 950 l 819 35 l 917 14 l 917 0 l 700 0 m 28 0 l 28 14 l 125 33 l 465 497 l 499 450 l 451 450 l 228 146 q 195 94 206 114 q 185 61 185 75 q 219 25 185 36 q 331 14 253 14 l 331 0 l 28 0 m 457 525 l 488 525 l 718 836 q 758 897 747 876 q 769 926 769 917 q 756 951 769 942 q 710 965 742 961 q 624 969 678 969 l 624 983 l 918 983 l 918 969 l 821 950 l 483 490 l 457 525 z "},"Y":{"ha":869,"x_min":14,"x_max":856,"o":"m 329 0 l 329 14 l 426 35 l 426 421 l 111 949 l 14 969 l 14 983 l 229 983 l 229 969 l 132 950 l 425 460 l 449 460 l 703 885 q 711 903 708 894 q 714 919 714 913 q 687 958 714 947 q 590 969 660 969 l 590 983 l 856 983 l 856 969 l 763 949 l 447 421 l 447 35 l 544 14 l 544 0 l 329 0 z "},"Ý":{"ha":869,"x_min":14,"x_max":856,"o":"m 329 0 l 329 14 l 426 35 l 426 421 l 111 949 l 14 969 l 14 983 l 229 983 l 229 969 l 132 950 l 425 460 l 449 460 l 703 885 q 711 903 708 894 q 714 919 714 913 q 687 958 714 947 q 590 969 660 969 l 590 983 l 856 983 l 856 969 l 763 949 l 447 421 l 447 35 l 544 14 l 544 0 l 329 0 m 403 1103 l 389 1117 l 597 1290 l 611 1275 l 403 1103 z "},"Ŷ":{"ha":869,"x_min":14,"x_max":856,"o":"m 329 0 l 329 14 l 426 35 l 426 421 l 111 949 l 14 969 l 14 983 l 229 983 l 229 969 l 132 950 l 425 460 l 449 460 l 703 885 q 711 903 708 894 q 714 919 714 913 q 687 958 714 947 q 590 969 660 969 l 590 983 l 856 983 l 856 969 l 763 949 l 447 421 l 447 35 l 544 14 l 544 0 l 329 0 m 240 1103 l 229 1114 l 426 1276 l 449 1276 l 646 1114 l 633 1103 l 438 1261 l 240 1103 z "},"Ÿ":{"ha":869,"x_min":14,"x_max":856,"o":"m 329 0 l 329 14 l 426 35 l 426 421 l 111 949 l 14 969 l 14 983 l 229 983 l 229 969 l 132 950 l 425 460 l 449 460 l 703 885 q 711 903 708 894 q 714 919 714 913 q 687 958 714 947 q 590 969 660 969 l 590 983 l 856 983 l 856 969 l 763 949 l 447 421 l 447 35 l 544 14 l 544 0 l 329 0 m 576 1263 q 626 1246 607 1263 q 646 1203 646 1229 q 626 1160 646 1176 q 576 1144 607 1144 q 524 1160 544 1144 q 504 1203 504 1176 q 524 1246 504 1229 q 576 1263 544 1263 m 299 1263 q 349 1246 329 1263 q 368 1203 368 1229 q 349 1160 368 1176 q 299 1144 329 1144 q 247 1160 267 1144 q 226 1203 226 1176 q 247 1246 226 1229 q 299 1263 267 1263 z "},"Ỳ":{"ha":869,"x_min":14,"x_max":856,"o":"m 329 0 l 329 14 l 426 35 l 426 421 l 111 949 l 14 969 l 14 983 l 229 983 l 229 969 l 132 950 l 425 460 l 449 460 l 703 885 q 711 903 708 894 q 714 919 714 913 q 687 958 714 947 q 590 969 660 969 l 590 983 l 856 983 l 856 969 l 763 949 l 447 421 l 447 35 l 544 14 l 544 0 l 329 0 m 493 1103 l 285 1275 l 299 1290 l 507 1117 l 493 1103 z "},"Z":{"ha":925,"x_min":69,"x_max":856,"o":"m 69 0 l 811 963 l 224 963 q 184 949 199 963 q 163 899 169 936 q 158 792 157 863 l 161 644 l 147 644 l 111 983 l 856 983 l 113 21 l 722 21 q 765 37 749 21 q 788 99 782 53 q 789 233 794 144 l 781 361 l 794 361 l 836 0 l 69 0 z "},"Ź":{"ha":925,"x_min":69,"x_max":856,"o":"m 69 0 l 811 963 l 224 963 q 184 949 199 963 q 163 899 169 936 q 158 792 157 863 l 161 644 l 147 644 l 111 983 l 856 983 l 113 21 l 722 21 q 765 37 749 21 q 788 99 782 53 q 789 233 794 144 l 781 361 l 794 361 l 836 0 l 69 0 m 435 1103 l 421 1117 l 629 1290 l 643 1275 l 435 1103 z "},"Ž":{"ha":925,"x_min":69,"x_max":856,"o":"m 69 0 l 811 963 l 224 963 q 184 949 199 963 q 163 899 169 936 q 158 792 157 863 l 161 644 l 147 644 l 111 983 l 856 983 l 113 21 l 722 21 q 765 37 749 21 q 788 99 782 53 q 789 233 794 144 l 781 361 l 794 361 l 836 0 l 69 0 m 667 1276 l 678 1265 l 482 1103 l 460 1103 l 261 1265 l 274 1276 l 471 1118 l 667 1276 z "},"Ż":{"ha":925,"x_min":69,"x_max":856,"o":"m 69 0 l 811 963 l 224 963 q 184 949 199 963 q 163 899 169 936 q 158 792 157 863 l 161 644 l 147 644 l 111 983 l 856 983 l 113 21 l 722 21 q 765 37 749 21 q 788 99 782 53 q 789 233 794 144 l 781 361 l 794 361 l 836 0 l 69 0 m 471 1263 q 521 1246 501 1263 q 540 1203 540 1229 q 521 1160 540 1176 q 471 1144 501 1144 q 419 1160 439 1144 q 399 1203 399 1176 q 419 1246 399 1229 q 471 1263 439 1263 z "},"a":{"ha":869,"x_min":97,"x_max":828,"o":"m 419 715 q 540 694 490 715 q 621 631 589 674 q 667 521 653 588 q 682 364 682 454 l 682 51 q 695 12 682 24 q 726 0 708 0 q 777 13 750 0 q 828 43 804 25 l 828 28 q 794 1 813 13 q 758 -15 776 -10 q 721 -21 739 -21 q 676 -1 690 -21 q 663 60 663 19 q 663 127 663 106 q 663 159 663 149 q 663 181 663 169 l 649 189 q 581 100 622 139 q 488 34 539 61 q 384 -7 438 7 q 282 -21 331 -21 q 190 -6 232 -21 q 123 41 149 8 q 97 126 97 74 q 238 304 97 244 q 663 364 378 364 q 638 551 663 478 q 560 659 614 624 q 419 694 507 694 q 306 683 356 694 q 228 656 256 671 q 200 626 200 640 q 208 615 200 621 q 239 597 217 608 q 274 549 274 579 q 251 509 274 522 q 201 496 229 496 q 152 510 175 496 q 129 553 129 524 q 153 610 129 582 q 219 663 178 639 q 312 701 260 688 q 419 715 364 715 m 663 344 q 359 320 481 344 q 177 248 238 296 q 117 126 117 200 q 139 53 117 81 q 199 13 161 25 q 282 0 236 0 q 390 16 333 0 q 501 65 447 32 q 597 144 554 97 q 663 254 640 192 l 663 344 z "},"á":{"ha":869,"x_min":97,"x_max":828,"o":"m 419 715 q 540 694 490 715 q 621 631 589 674 q 667 521 653 588 q 682 364 682 454 l 682 51 q 695 12 682 24 q 726 0 708 0 q 777 13 750 0 q 828 43 804 25 l 828 28 q 794 1 813 13 q 758 -15 776 -10 q 721 -21 739 -21 q 676 -1 690 -21 q 663 60 663 19 q 663 127 663 106 q 663 159 663 149 q 663 181 663 169 l 649 189 q 581 100 622 139 q 488 34 539 61 q 384 -7 438 7 q 282 -21 331 -21 q 190 -6 232 -21 q 123 41 149 8 q 97 126 97 74 q 238 304 97 244 q 663 364 378 364 q 638 551 663 478 q 560 659 614 624 q 419 694 507 694 q 306 683 356 694 q 228 656 256 671 q 200 626 200 640 q 208 615 200 621 q 239 597 217 608 q 274 549 274 579 q 251 509 274 522 q 201 496 229 496 q 152 510 175 496 q 129 553 129 524 q 153 610 129 582 q 219 663 178 639 q 312 701 260 688 q 419 715 364 715 m 663 344 q 359 320 481 344 q 177 248 238 296 q 117 126 117 200 q 139 53 117 81 q 199 13 161 25 q 282 0 236 0 q 390 16 333 0 q 501 65 447 32 q 597 144 554 97 q 663 254 640 192 l 663 344 m 376 814 l 363 828 l 571 1001 l 585 986 l 376 814 z "},"ă":{"ha":869,"x_min":97,"x_max":828,"o":"m 419 715 q 540 694 490 715 q 621 631 589 674 q 667 521 653 588 q 682 364 682 454 l 682 51 q 695 12 682 24 q 726 0 708 0 q 777 13 750 0 q 828 43 804 25 l 828 28 q 794 1 813 13 q 758 -15 776 -10 q 721 -21 739 -21 q 676 -1 690 -21 q 663 60 663 19 q 663 127 663 106 q 663 159 663 149 q 663 181 663 169 l 649 189 q 581 100 622 139 q 488 34 539 61 q 384 -7 438 7 q 282 -21 331 -21 q 190 -6 232 -21 q 123 41 149 8 q 97 126 97 74 q 238 304 97 244 q 663 364 378 364 q 638 551 663 478 q 560 659 614 624 q 419 694 507 694 q 306 683 356 694 q 228 656 256 671 q 200 626 200 640 q 208 615 200 621 q 239 597 217 608 q 274 549 274 579 q 251 509 274 522 q 201 496 229 496 q 152 510 175 496 q 129 553 129 524 q 153 610 129 582 q 219 663 178 639 q 312 701 260 688 q 419 715 364 715 m 663 344 q 359 320 481 344 q 177 248 238 296 q 117 126 117 200 q 139 53 117 81 q 199 13 161 25 q 282 0 236 0 q 390 16 333 0 q 501 65 447 32 q 597 144 554 97 q 663 254 640 192 l 663 344 m 411 828 q 288 864 342 828 q 203 967 233 900 l 221 974 q 267 906 239 933 q 331 863 294 878 q 411 849 368 849 q 492 863 456 849 q 556 906 528 878 q 601 974 583 933 l 619 967 q 535 864 589 900 q 411 828 481 828 z "},"ǎ":{"ha":869,"x_min":97,"x_max":828,"o":"m 419 715 q 540 694 490 715 q 621 631 589 674 q 667 521 653 588 q 682 364 682 454 l 682 51 q 695 12 682 24 q 726 0 708 0 q 777 13 750 0 q 828 43 804 25 l 828 28 q 794 1 813 13 q 758 -15 776 -10 q 721 -21 739 -21 q 676 -1 690 -21 q 663 60 663 19 q 663 127 663 106 q 663 159 663 149 q 663 181 663 169 l 649 189 q 581 100 622 139 q 488 34 539 61 q 384 -7 438 7 q 282 -21 331 -21 q 190 -6 232 -21 q 123 41 149 8 q 97 126 97 74 q 238 304 97 244 q 663 364 378 364 q 638 551 663 478 q 560 659 614 624 q 419 694 507 694 q 306 683 356 694 q 228 656 256 671 q 200 626 200 640 q 208 615 200 621 q 239 597 217 608 q 274 549 274 579 q 251 509 274 522 q 201 496 229 496 q 152 510 175 496 q 129 553 129 524 q 153 610 129 582 q 219 663 178 639 q 312 701 260 688 q 419 715 364 715 m 663 344 q 359 320 481 344 q 177 248 238 296 q 117 126 117 200 q 139 53 117 81 q 199 13 161 25 q 282 0 236 0 q 390 16 333 0 q 501 65 447 32 q 597 144 554 97 q 663 254 640 192 l 663 344 m 608 988 l 619 976 l 424 814 l 401 814 l 203 976 l 215 988 l 413 829 l 608 988 z "},"â":{"ha":869,"x_min":97,"x_max":828,"o":"m 419 715 q 540 694 490 715 q 621 631 589 674 q 667 521 653 588 q 682 364 682 454 l 682 51 q 695 12 682 24 q 726 0 708 0 q 777 13 750 0 q 828 43 804 25 l 828 28 q 794 1 813 13 q 758 -15 776 -10 q 721 -21 739 -21 q 676 -1 690 -21 q 663 60 663 19 q 663 127 663 106 q 663 159 663 149 q 663 181 663 169 l 649 189 q 581 100 622 139 q 488 34 539 61 q 384 -7 438 7 q 282 -21 331 -21 q 190 -6 232 -21 q 123 41 149 8 q 97 126 97 74 q 238 304 97 244 q 663 364 378 364 q 638 551 663 478 q 560 659 614 624 q 419 694 507 694 q 306 683 356 694 q 228 656 256 671 q 200 626 200 640 q 208 615 200 621 q 239 597 217 608 q 274 549 274 579 q 251 509 274 522 q 201 496 229 496 q 152 510 175 496 q 129 553 129 524 q 153 610 129 582 q 219 663 178 639 q 312 701 260 688 q 419 715 364 715 m 663 344 q 359 320 481 344 q 177 248 238 296 q 117 126 117 200 q 139 53 117 81 q 199 13 161 25 q 282 0 236 0 q 390 16 333 0 q 501 65 447 32 q 597 144 554 97 q 663 254 640 192 l 663 344 m 214 814 l 203 825 l 400 988 l 422 988 l 619 825 l 607 814 l 411 972 l 214 814 z "},"ä":{"ha":869,"x_min":97,"x_max":828,"o":"m 419 715 q 540 694 490 715 q 621 631 589 674 q 667 521 653 588 q 682 364 682 454 l 682 51 q 695 12 682 24 q 726 0 708 0 q 777 13 750 0 q 828 43 804 25 l 828 28 q 794 1 813 13 q 758 -15 776 -10 q 721 -21 739 -21 q 676 -1 690 -21 q 663 60 663 19 q 663 127 663 106 q 663 159 663 149 q 663 181 663 169 l 649 189 q 581 100 622 139 q 488 34 539 61 q 384 -7 438 7 q 282 -21 331 -21 q 190 -6 232 -21 q 123 41 149 8 q 97 126 97 74 q 238 304 97 244 q 663 364 378 364 q 638 551 663 478 q 560 659 614 624 q 419 694 507 694 q 306 683 356 694 q 228 656 256 671 q 200 626 200 640 q 208 615 200 621 q 239 597 217 608 q 274 549 274 579 q 251 509 274 522 q 201 496 229 496 q 152 510 175 496 q 129 553 129 524 q 153 610 129 582 q 219 663 178 639 q 312 701 260 688 q 419 715 364 715 m 663 344 q 359 320 481 344 q 177 248 238 296 q 117 126 117 200 q 139 53 117 81 q 199 13 161 25 q 282 0 236 0 q 390 16 333 0 q 501 65 447 32 q 597 144 554 97 q 663 254 640 192 l 663 344 m 550 974 q 600 957 581 974 q 619 914 619 940 q 600 872 619 888 q 550 856 581 856 q 498 872 518 856 q 478 914 478 888 q 498 957 478 940 q 550 974 518 974 m 272 974 q 322 957 303 974 q 342 914 342 940 q 322 872 342 888 q 272 856 303 856 q 220 872 240 856 q 200 914 200 888 q 220 957 200 940 q 272 974 240 974 z "},"à":{"ha":869,"x_min":97,"x_max":828,"o":"m 419 715 q 540 694 490 715 q 621 631 589 674 q 667 521 653 588 q 682 364 682 454 l 682 51 q 695 12 682 24 q 726 0 708 0 q 777 13 750 0 q 828 43 804 25 l 828 28 q 794 1 813 13 q 758 -15 776 -10 q 721 -21 739 -21 q 676 -1 690 -21 q 663 60 663 19 q 663 127 663 106 q 663 159 663 149 q 663 181 663 169 l 649 189 q 581 100 622 139 q 488 34 539 61 q 384 -7 438 7 q 282 -21 331 -21 q 190 -6 232 -21 q 123 41 149 8 q 97 126 97 74 q 238 304 97 244 q 663 364 378 364 q 638 551 663 478 q 560 659 614 624 q 419 694 507 694 q 306 683 356 694 q 228 656 256 671 q 200 626 200 640 q 208 615 200 621 q 239 597 217 608 q 274 549 274 579 q 251 509 274 522 q 201 496 229 496 q 152 510 175 496 q 129 553 129 524 q 153 610 129 582 q 219 663 178 639 q 312 701 260 688 q 419 715 364 715 m 663 344 q 359 320 481 344 q 177 248 238 296 q 117 126 117 200 q 139 53 117 81 q 199 13 161 25 q 282 0 236 0 q 390 16 333 0 q 501 65 447 32 q 597 144 554 97 q 663 254 640 192 l 663 344 m 467 814 l 258 986 l 272 1001 l 481 828 l 467 814 z "},"ā":{"ha":869,"x_min":97,"x_max":828,"o":"m 419 715 q 540 694 490 715 q 621 631 589 674 q 667 521 653 588 q 682 364 682 454 l 682 51 q 695 12 682 24 q 726 0 708 0 q 777 13 750 0 q 828 43 804 25 l 828 28 q 794 1 813 13 q 758 -15 776 -10 q 721 -21 739 -21 q 676 -1 690 -21 q 663 60 663 19 q 663 127 663 106 q 663 159 663 149 q 663 181 663 169 l 649 189 q 581 100 622 139 q 488 34 539 61 q 384 -7 438 7 q 282 -21 331 -21 q 190 -6 232 -21 q 123 41 149 8 q 97 126 97 74 q 238 304 97 244 q 663 364 378 364 q 638 551 663 478 q 560 659 614 624 q 419 694 507 694 q 306 683 356 694 q 228 656 256 671 q 200 626 200 640 q 208 615 200 621 q 239 597 217 608 q 274 549 274 579 q 251 509 274 522 q 201 496 229 496 q 152 510 175 496 q 129 553 129 524 q 153 610 129 582 q 219 663 178 639 q 312 701 260 688 q 419 715 364 715 m 663 344 q 359 320 481 344 q 177 248 238 296 q 117 126 117 200 q 139 53 117 81 q 199 13 161 25 q 282 0 236 0 q 390 16 333 0 q 501 65 447 32 q 597 144 554 97 q 663 254 640 192 l 663 344 m 189 889 l 189 910 l 633 910 l 633 889 l 189 889 z "},"ą":{"ha":869,"x_min":97,"x_max":849,"o":"m 419 715 q 540 694 490 715 q 621 631 589 674 q 667 521 653 588 q 682 364 682 454 l 682 51 q 695 12 682 24 q 726 0 708 0 q 777 13 750 0 q 828 43 804 25 l 828 28 q 794 1 813 13 q 758 -15 776 -10 q 721 -21 739 -21 q 676 -1 690 -21 q 663 60 663 19 q 663 127 663 106 q 663 159 663 149 q 663 181 663 169 l 649 189 q 581 100 622 139 q 488 34 539 61 q 384 -7 438 7 q 282 -21 331 -21 q 190 -6 232 -21 q 123 41 149 8 q 97 126 97 74 q 238 304 97 244 q 663 364 378 364 q 638 551 663 478 q 560 659 614 624 q 419 694 507 694 q 306 683 356 694 q 228 656 256 671 q 200 626 200 640 q 208 615 200 621 q 239 597 217 608 q 274 549 274 579 q 251 509 274 522 q 201 496 229 496 q 152 510 175 496 q 129 553 129 524 q 153 610 129 582 q 219 663 178 639 q 312 701 260 688 q 419 715 364 715 m 663 344 q 359 320 481 344 q 177 248 238 296 q 117 126 117 200 q 139 53 117 81 q 199 13 161 25 q 282 0 236 0 q 390 16 333 0 q 501 65 447 32 q 597 144 554 97 q 663 254 640 192 l 663 344 m 800 6 q 658 -97 706 -47 q 611 -194 611 -146 q 635 -251 611 -229 q 697 -272 660 -272 q 773 -251 738 -272 q 839 -187 808 -231 l 849 -197 q 779 -268 818 -243 q 697 -293 740 -293 q 642 -281 667 -293 q 604 -246 618 -268 q 590 -194 590 -224 q 640 -87 590 -139 q 790 14 690 -35 l 800 6 z "},"å":{"ha":869,"x_min":97,"x_max":828,"o":"m 419 715 q 540 694 490 715 q 621 631 589 674 q 667 521 653 588 q 682 364 682 454 l 682 51 q 695 12 682 24 q 726 0 708 0 q 777 13 750 0 q 828 43 804 25 l 828 28 q 794 1 813 13 q 758 -15 776 -10 q 721 -21 739 -21 q 676 -1 690 -21 q 663 60 663 19 q 663 127 663 106 q 663 159 663 149 q 663 181 663 169 l 649 189 q 581 100 622 139 q 488 34 539 61 q 384 -7 438 7 q 282 -21 331 -21 q 190 -6 232 -21 q 123 41 149 8 q 97 126 97 74 q 238 304 97 244 q 663 364 378 364 q 638 551 663 478 q 560 659 614 624 q 419 694 507 694 q 306 683 356 694 q 228 656 256 671 q 200 626 200 640 q 208 615 200 621 q 239 597 217 608 q 274 549 274 579 q 251 509 274 522 q 201 496 229 496 q 152 510 175 496 q 129 553 129 524 q 153 610 129 582 q 219 663 178 639 q 312 701 260 688 q 419 715 364 715 m 663 344 q 359 320 481 344 q 177 248 238 296 q 117 126 117 200 q 139 53 117 81 q 199 13 161 25 q 282 0 236 0 q 390 16 333 0 q 501 65 447 32 q 597 144 554 97 q 663 254 640 192 l 663 344 m 410 997 q 467 985 442 997 q 508 952 493 974 q 522 903 522 931 q 508 853 522 875 q 467 818 493 831 q 410 806 442 806 q 353 818 378 806 q 314 853 328 831 q 300 903 300 875 q 314 952 300 931 q 353 985 328 974 q 410 997 378 997 m 410 976 q 346 956 371 976 q 321 903 321 935 q 346 848 321 869 q 410 826 371 826 q 475 848 449 826 q 501 903 501 869 q 475 956 501 935 q 410 976 449 976 z "},"ã":{"ha":869,"x_min":97,"x_max":828,"o":"m 419 715 q 540 694 490 715 q 621 631 589 674 q 667 521 653 588 q 682 364 682 454 l 682 51 q 695 12 682 24 q 726 0 708 0 q 777 13 750 0 q 828 43 804 25 l 828 28 q 794 1 813 13 q 758 -15 776 -10 q 721 -21 739 -21 q 676 -1 690 -21 q 663 60 663 19 q 663 127 663 106 q 663 159 663 149 q 663 181 663 169 l 649 189 q 581 100 622 139 q 488 34 539 61 q 384 -7 438 7 q 282 -21 331 -21 q 190 -6 232 -21 q 123 41 149 8 q 97 126 97 74 q 238 304 97 244 q 663 364 378 364 q 638 551 663 478 q 560 659 614 624 q 419 694 507 694 q 306 683 356 694 q 228 656 256 671 q 200 626 200 640 q 208 615 200 621 q 239 597 217 608 q 274 549 274 579 q 251 509 274 522 q 201 496 229 496 q 152 510 175 496 q 129 553 129 524 q 153 610 129 582 q 219 663 178 639 q 312 701 260 688 q 419 715 364 715 m 663 344 q 359 320 481 344 q 177 248 238 296 q 117 126 117 200 q 139 53 117 81 q 199 13 161 25 q 282 0 236 0 q 390 16 333 0 q 501 65 447 32 q 597 144 554 97 q 663 254 640 192 l 663 344 m 543 828 q 476 847 507 828 q 418 890 446 865 q 363 934 390 915 q 304 953 335 953 q 233 923 258 953 q 186 831 207 893 l 168 833 q 199 910 181 879 q 243 958 217 942 q 304 974 269 974 q 367 955 338 974 q 426 911 397 936 q 483 867 454 886 q 543 849 513 849 q 603 878 583 849 q 636 971 622 908 l 654 968 q 632 890 646 921 q 597 843 618 858 q 543 828 576 828 z "},"æ":{"ha":1413,"x_min":97,"x_max":1322,"o":"m 282 -21 q 189 -6 231 -21 q 122 41 147 8 q 97 126 97 74 q 236 305 97 246 q 663 364 375 364 q 638 551 663 478 q 560 659 614 624 q 419 694 507 694 q 306 683 356 694 q 228 656 256 671 q 200 626 200 640 q 208 615 200 621 q 239 597 217 608 q 274 549 274 579 q 251 509 274 522 q 201 496 229 496 q 152 510 175 496 q 129 553 129 524 q 153 610 129 582 q 219 663 178 639 q 312 701 260 688 q 419 715 364 715 q 601 653 539 715 q 678 461 664 592 q 744 594 699 538 q 856 683 789 651 q 1003 715 922 715 q 1166 676 1099 715 q 1269 562 1233 636 q 1304 383 1304 488 l 682 383 l 682 344 q 705 205 682 268 q 769 96 728 142 q 867 25 810 50 q 992 0 924 0 q 1095 12 1047 0 q 1183 47 1143 24 q 1255 105 1222 69 q 1313 188 1288 140 l 1322 174 q 1265 88 1297 125 q 1191 27 1232 51 q 1100 -9 1150 3 q 992 -21 1050 -21 q 797 43 879 -21 q 682 213 714 107 l 660 213 q 594 113 636 157 q 499 40 551 69 q 390 -6 446 10 q 282 -21 333 -21 m 282 0 q 390 16 333 0 q 501 65 447 32 q 597 144 554 97 q 663 254 640 192 l 663 344 q 358 320 479 344 q 176 248 236 296 q 117 126 117 200 q 139 53 117 81 q 199 13 161 25 q 282 0 236 0 m 685 397 l 1285 403 q 1251 560 1285 494 q 1153 660 1217 625 q 1003 694 1090 694 q 850 657 918 694 q 739 553 782 619 q 685 397 696 486 z "},"b":{"ha":874,"x_min":83,"x_max":783,"o":"m 181 -21 l 181 978 l 83 978 l 83 993 l 200 1035 l 200 503 l 211 492 q 246 552 222 515 q 306 626 269 589 q 392 690 343 664 q 504 715 442 715 q 622 691 569 715 q 710 619 674 667 q 765 506 746 572 q 783 354 783 439 q 763 196 783 265 q 703 78 743 126 q 608 4 664 29 q 479 -21 551 -21 q 408 -12 444 -21 q 338 15 372 -3 q 271 60 303 33 q 214 125 239 88 l 200 125 l 194 -21 l 181 -21 m 479 0 q 631 42 567 0 q 729 164 694 85 q 764 354 764 243 q 734 537 764 461 q 646 653 704 613 q 504 694 588 694 q 382 660 442 694 q 274 563 322 626 q 200 407 226 499 l 200 249 q 227 147 200 193 q 297 68 254 101 q 389 17 340 35 q 479 0 438 0 z "},"c":{"ha":840,"x_min":90,"x_max":750,"o":"m 419 -21 q 249 26 324 -21 q 133 155 175 72 q 90 344 90 238 q 115 494 90 426 q 185 611 140 561 q 293 688 231 661 q 431 715 356 715 q 534 703 485 715 q 623 670 583 692 q 685 619 663 649 q 707 553 707 589 q 697 521 707 533 q 669 502 686 508 q 635 496 653 496 q 585 509 608 496 q 563 549 563 522 q 574 578 563 564 q 607 601 585 592 q 636 629 636 618 q 612 657 636 642 q 542 683 588 672 q 431 694 496 694 q 301 669 360 694 q 200 597 243 643 q 133 486 157 550 q 110 344 110 422 q 133 205 110 268 q 197 96 156 142 q 294 25 238 50 q 419 0 351 0 q 554 21 494 0 q 660 83 614 42 q 740 188 707 125 l 750 174 q 692 88 725 125 q 619 27 660 51 q 528 -9 578 3 q 419 -21 478 -21 z "},"ć":{"ha":840,"x_min":90,"x_max":750,"o":"m 419 -21 q 249 26 324 -21 q 133 155 175 72 q 90 344 90 238 q 115 494 90 426 q 185 611 140 561 q 293 688 231 661 q 431 715 356 715 q 534 703 485 715 q 623 670 583 692 q 685 619 663 649 q 707 553 707 589 q 697 521 707 533 q 669 502 686 508 q 635 496 653 496 q 585 509 608 496 q 563 549 563 522 q 574 578 563 564 q 607 601 585 592 q 636 629 636 618 q 612 657 636 642 q 542 683 588 672 q 431 694 496 694 q 301 669 360 694 q 200 597 243 643 q 133 486 157 550 q 110 344 110 422 q 133 205 110 268 q 197 96 156 142 q 294 25 238 50 q 419 0 351 0 q 554 21 494 0 q 660 83 614 42 q 740 188 707 125 l 750 174 q 692 88 725 125 q 619 27 660 51 q 528 -9 578 3 q 419 -21 478 -21 m 396 814 l 382 828 l 590 1001 l 604 986 l 396 814 z "},"č":{"ha":840,"x_min":90,"x_max":750,"o":"m 419 -21 q 249 26 324 -21 q 133 155 175 72 q 90 344 90 238 q 115 494 90 426 q 185 611 140 561 q 293 688 231 661 q 431 715 356 715 q 534 703 485 715 q 623 670 583 692 q 685 619 663 649 q 707 553 707 589 q 697 521 707 533 q 669 502 686 508 q 635 496 653 496 q 585 509 608 496 q 563 549 563 522 q 574 578 563 564 q 607 601 585 592 q 636 629 636 618 q 612 657 636 642 q 542 683 588 672 q 431 694 496 694 q 301 669 360 694 q 200 597 243 643 q 133 486 157 550 q 110 344 110 422 q 133 205 110 268 q 197 96 156 142 q 294 25 238 50 q 419 0 351 0 q 554 21 494 0 q 660 83 614 42 q 740 188 707 125 l 750 174 q 692 88 725 125 q 619 27 660 51 q 528 -9 578 3 q 419 -21 478 -21 m 628 988 l 639 976 l 443 814 l 421 814 l 222 976 l 235 988 l 432 829 l 628 988 z "},"ç":{"ha":840,"x_min":90,"x_max":750,"o":"m 419 -21 q 249 26 324 -21 q 133 155 175 72 q 90 344 90 238 q 115 494 90 426 q 185 611 140 561 q 293 688 231 661 q 431 715 356 715 q 534 703 485 715 q 623 670 583 692 q 685 619 663 649 q 707 553 707 589 q 697 521 707 533 q 669 502 686 508 q 635 496 653 496 q 585 509 608 496 q 563 549 563 522 q 574 578 563 564 q 607 601 585 592 q 636 629 636 618 q 612 657 636 642 q 542 683 588 672 q 431 694 496 694 q 301 669 360 694 q 200 597 243 643 q 133 486 157 550 q 110 344 110 422 q 133 205 110 268 q 197 96 156 142 q 294 25 238 50 q 419 0 351 0 q 554 21 494 0 q 660 83 614 42 q 740 188 707 125 l 750 174 q 692 88 725 125 q 619 27 660 51 q 528 -9 578 3 q 419 -21 478 -21 m 458 -299 q 374 -275 410 -299 q 322 -208 338 -251 l 336 -194 q 383 -256 351 -233 q 458 -278 415 -278 q 506 -266 486 -278 q 538 -232 526 -254 q 550 -182 550 -210 q 540 -136 550 -157 q 509 -99 529 -115 q 459 -73 489 -82 q 392 -64 429 -64 l 417 0 l 438 0 l 426 -32 l 438 -47 q 510 -74 481 -56 q 556 -119 540 -92 q 571 -182 571 -146 q 556 -242 571 -215 q 517 -283 542 -268 q 458 -299 492 -299 z "},"ċ":{"ha":840,"x_min":90,"x_max":750,"o":"m 419 -21 q 249 26 324 -21 q 133 155 175 72 q 90 344 90 238 q 115 494 90 426 q 185 611 140 561 q 293 688 231 661 q 431 715 356 715 q 534 703 485 715 q 623 670 583 692 q 685 619 663 649 q 707 553 707 589 q 697 521 707 533 q 669 502 686 508 q 635 496 653 496 q 585 509 608 496 q 563 549 563 522 q 574 578 563 564 q 607 601 585 592 q 636 629 636 618 q 612 657 636 642 q 542 683 588 672 q 431 694 496 694 q 301 669 360 694 q 200 597 243 643 q 133 486 157 550 q 110 344 110 422 q 133 205 110 268 q 197 96 156 142 q 294 25 238 50 q 419 0 351 0 q 554 21 494 0 q 660 83 614 42 q 740 188 707 125 l 750 174 q 692 88 725 125 q 619 27 660 51 q 528 -9 578 3 q 419 -21 478 -21 m 432 974 q 482 957 463 974 q 501 914 501 940 q 482 872 501 888 q 432 856 463 856 q 380 872 400 856 q 360 914 360 888 q 380 957 360 940 q 432 974 400 974 z "},"d":{"ha":860,"x_min":90,"x_max":790,"o":"m 693 1035 l 693 49 l 790 49 l 790 35 l 674 -21 l 674 192 l 663 203 q 613 111 642 153 q 549 40 585 69 q 469 -5 513 11 q 376 -21 426 -21 q 228 26 293 -21 q 127 156 164 72 q 90 346 90 239 q 131 538 90 454 q 244 668 172 621 q 408 715 315 715 q 514 694 461 715 q 610 635 567 674 q 674 540 653 596 l 674 964 l 576 964 l 576 979 l 693 1035 m 408 694 q 256 649 324 694 q 150 526 189 604 q 111 346 111 447 q 144 167 111 246 q 236 44 176 89 q 376 0 296 0 q 488 27 439 0 q 573 99 536 54 q 635 198 610 144 q 674 306 660 251 l 674 431 q 656 519 674 472 q 603 605 638 565 q 520 669 569 644 q 408 694 471 694 z "},"ď":{"ha":901,"x_min":90,"x_max":839,"o":"m 693 1035 l 693 49 l 790 49 l 790 35 l 674 -21 l 674 192 l 663 203 q 613 111 642 153 q 549 40 585 69 q 469 -5 513 11 q 376 -21 426 -21 q 228 26 293 -21 q 127 156 164 72 q 90 346 90 239 q 131 538 90 454 q 244 668 172 621 q 408 715 315 715 q 514 694 461 715 q 610 635 567 674 q 674 540 653 596 l 674 964 l 576 964 l 576 979 l 693 1035 m 408 694 q 256 649 324 694 q 150 526 189 604 q 111 346 111 447 q 144 167 111 246 q 236 44 176 89 q 376 0 296 0 q 488 27 439 0 q 573 99 536 54 q 635 198 610 144 q 674 306 660 251 l 674 431 q 656 519 674 472 q 603 605 638 565 q 520 669 569 644 q 408 694 471 694 m 792 772 l 792 1001 l 839 1001 l 797 772 l 792 772 z "},"đ":{"ha":860,"x_min":90,"x_max":790,"o":"m 535 844 l 790 844 l 790 824 l 535 824 l 535 844 m 693 1035 l 693 49 l 790 49 l 790 35 l 674 -21 l 674 192 l 663 203 q 613 111 642 153 q 549 40 585 69 q 469 -5 513 11 q 376 -21 426 -21 q 228 26 293 -21 q 127 156 164 72 q 90 346 90 239 q 131 538 90 454 q 244 668 172 621 q 408 715 315 715 q 514 694 461 715 q 610 635 567 674 q 674 540 653 596 l 674 964 l 576 964 l 576 979 l 693 1035 m 408 694 q 256 649 324 694 q 150 526 189 604 q 111 346 111 447 q 144 167 111 246 q 236 44 176 89 q 376 0 296 0 q 488 27 439 0 q 573 99 536 54 q 635 198 610 144 q 674 306 660 251 l 674 431 q 656 519 674 472 q 603 605 638 565 q 520 669 569 644 q 408 694 471 694 z "},"ð":{"ha":778,"x_min":90,"x_max":688,"o":"m 388 -21 q 228 22 294 -21 q 126 147 161 65 q 90 342 90 228 q 126 543 90 460 q 228 671 161 626 q 388 715 294 715 q 501 696 449 715 q 594 638 553 676 l 604 643 q 541 763 581 706 q 449 868 501 819 q 334 956 396 917 q 203 1021 272 994 l 214 1035 q 379 947 304 999 q 512 831 454 896 q 608 690 569 767 q 667 526 647 614 q 688 342 688 439 q 652 147 688 228 q 549 22 617 65 q 388 -21 482 -21 m 388 0 q 506 23 454 0 q 594 90 558 46 q 649 198 631 135 q 668 342 668 261 q 649 490 668 425 q 594 601 631 556 q 506 671 558 647 q 388 694 454 694 q 271 671 322 694 q 183 601 219 647 q 128 490 147 556 q 110 342 110 425 q 128 198 110 261 q 183 90 147 135 q 271 23 219 46 q 388 0 322 0 m 306 847 l 293 858 l 514 1006 l 521 992 l 306 847 z "},"e":{"ha":840,"x_min":90,"x_max":750,"o":"m 431 715 q 594 676 526 715 q 697 562 661 636 q 732 383 732 488 l 110 383 l 110 397 l 713 403 q 678 558 713 493 q 582 659 644 624 q 431 694 519 694 q 265 650 338 694 q 151 526 192 606 q 110 344 110 447 q 133 205 110 268 q 197 96 156 142 q 294 25 238 50 q 419 0 351 0 q 523 12 475 0 q 610 47 571 24 q 683 105 650 69 q 740 188 715 140 l 750 174 q 692 88 725 125 q 619 27 660 51 q 528 -9 578 3 q 419 -21 478 -21 q 287 6 347 -21 q 183 82 226 33 q 115 197 139 131 q 90 344 90 264 q 115 494 90 426 q 185 611 140 561 q 293 688 231 661 q 431 715 356 715 z "},"é":{"ha":840,"x_min":90,"x_max":750,"o":"m 431 715 q 594 676 526 715 q 697 562 661 636 q 732 383 732 488 l 110 383 l 110 397 l 713 403 q 678 558 713 493 q 582 659 644 624 q 431 694 519 694 q 265 650 338 694 q 151 526 192 606 q 110 344 110 447 q 133 205 110 268 q 197 96 156 142 q 294 25 238 50 q 419 0 351 0 q 523 12 475 0 q 610 47 571 24 q 683 105 650 69 q 740 188 715 140 l 750 174 q 692 88 725 125 q 619 27 660 51 q 528 -9 578 3 q 419 -21 478 -21 q 287 6 347 -21 q 183 82 226 33 q 115 197 139 131 q 90 344 90 264 q 115 494 90 426 q 185 611 140 561 q 293 688 231 661 q 431 715 356 715 m 379 814 l 365 828 l 574 1001 l 588 986 l 379 814 z "},"ě":{"ha":840,"x_min":90,"x_max":750,"o":"m 431 715 q 594 676 526 715 q 697 562 661 636 q 732 383 732 488 l 110 383 l 110 397 l 713 403 q 678 558 713 493 q 582 659 644 624 q 431 694 519 694 q 265 650 338 694 q 151 526 192 606 q 110 344 110 447 q 133 205 110 268 q 197 96 156 142 q 294 25 238 50 q 419 0 351 0 q 523 12 475 0 q 610 47 571 24 q 683 105 650 69 q 740 188 715 140 l 750 174 q 692 88 725 125 q 619 27 660 51 q 528 -9 578 3 q 419 -21 478 -21 q 287 6 347 -21 q 183 82 226 33 q 115 197 139 131 q 90 344 90 264 q 115 494 90 426 q 185 611 140 561 q 293 688 231 661 q 431 715 356 715 m 611 988 l 622 976 l 426 814 l 404 814 l 206 976 l 218 988 l 415 829 l 611 988 z "},"ê":{"ha":840,"x_min":90,"x_max":750,"o":"m 431 715 q 594 676 526 715 q 697 562 661 636 q 732 383 732 488 l 110 383 l 110 397 l 713 403 q 678 558 713 493 q 582 659 644 624 q 431 694 519 694 q 265 650 338 694 q 151 526 192 606 q 110 344 110 447 q 133 205 110 268 q 197 96 156 142 q 294 25 238 50 q 419 0 351 0 q 523 12 475 0 q 610 47 571 24 q 683 105 650 69 q 740 188 715 140 l 750 174 q 692 88 725 125 q 619 27 660 51 q 528 -9 578 3 q 419 -21 478 -21 q 287 6 347 -21 q 183 82 226 33 q 115 197 139 131 q 90 344 90 264 q 115 494 90 426 q 185 611 140 561 q 293 688 231 661 q 431 715 356 715 m 217 814 l 206 825 l 403 988 l 425 988 l 622 825 l 610 814 l 414 972 l 217 814 z "},"ë":{"ha":840,"x_min":90,"x_max":750,"o":"m 431 715 q 594 676 526 715 q 697 562 661 636 q 732 383 732 488 l 110 383 l 110 397 l 713 403 q 678 558 713 493 q 582 659 644 624 q 431 694 519 694 q 265 650 338 694 q 151 526 192 606 q 110 344 110 447 q 133 205 110 268 q 197 96 156 142 q 294 25 238 50 q 419 0 351 0 q 523 12 475 0 q 610 47 571 24 q 683 105 650 69 q 740 188 715 140 l 750 174 q 692 88 725 125 q 619 27 660 51 q 528 -9 578 3 q 419 -21 478 -21 q 287 6 347 -21 q 183 82 226 33 q 115 197 139 131 q 90 344 90 264 q 115 494 90 426 q 185 611 140 561 q 293 688 231 661 q 431 715 356 715 m 553 974 q 603 957 583 974 q 622 914 622 940 q 603 872 622 888 q 553 856 583 856 q 501 872 521 856 q 481 914 481 888 q 501 957 481 940 q 553 974 521 974 m 275 974 q 325 957 306 974 q 344 914 344 940 q 325 872 344 888 q 275 856 306 856 q 223 872 243 856 q 203 914 203 888 q 223 957 203 940 q 275 974 243 974 z "},"ė":{"ha":840,"x_min":90,"x_max":750,"o":"m 431 715 q 594 676 526 715 q 697 562 661 636 q 732 383 732 488 l 110 383 l 110 397 l 713 403 q 678 558 713 493 q 582 659 644 624 q 431 694 519 694 q 265 650 338 694 q 151 526 192 606 q 110 344 110 447 q 133 205 110 268 q 197 96 156 142 q 294 25 238 50 q 419 0 351 0 q 523 12 475 0 q 610 47 571 24 q 683 105 650 69 q 740 188 715 140 l 750 174 q 692 88 725 125 q 619 27 660 51 q 528 -9 578 3 q 419 -21 478 -21 q 287 6 347 -21 q 183 82 226 33 q 115 197 139 131 q 90 344 90 264 q 115 494 90 426 q 185 611 140 561 q 293 688 231 661 q 431 715 356 715 m 415 974 q 465 957 446 974 q 485 914 485 940 q 465 872 485 888 q 415 856 446 856 q 363 872 383 856 q 343 914 343 888 q 363 957 343 940 q 415 974 383 974 z "},"è":{"ha":840,"x_min":90,"x_max":750,"o":"m 431 715 q 594 676 526 715 q 697 562 661 636 q 732 383 732 488 l 110 383 l 110 397 l 713 403 q 678 558 713 493 q 582 659 644 624 q 431 694 519 694 q 265 650 338 694 q 151 526 192 606 q 110 344 110 447 q 133 205 110 268 q 197 96 156 142 q 294 25 238 50 q 419 0 351 0 q 523 12 475 0 q 610 47 571 24 q 683 105 650 69 q 740 188 715 140 l 750 174 q 692 88 725 125 q 619 27 660 51 q 528 -9 578 3 q 419 -21 478 -21 q 287 6 347 -21 q 183 82 226 33 q 115 197 139 131 q 90 344 90 264 q 115 494 90 426 q 185 611 140 561 q 293 688 231 661 q 431 715 356 715 m 469 814 l 261 986 l 275 1001 l 483 828 l 469 814 z "},"ē":{"ha":840,"x_min":90,"x_max":750,"o":"m 431 715 q 594 676 526 715 q 697 562 661 636 q 732 383 732 488 l 110 383 l 110 397 l 713 403 q 678 558 713 493 q 582 659 644 624 q 431 694 519 694 q 265 650 338 694 q 151 526 192 606 q 110 344 110 447 q 133 205 110 268 q 197 96 156 142 q 294 25 238 50 q 419 0 351 0 q 523 12 475 0 q 610 47 571 24 q 683 105 650 69 q 740 188 715 140 l 750 174 q 692 88 725 125 q 619 27 660 51 q 528 -9 578 3 q 419 -21 478 -21 q 287 6 347 -21 q 183 82 226 33 q 115 197 139 131 q 90 344 90 264 q 115 494 90 426 q 185 611 140 561 q 293 688 231 661 q 431 715 356 715 m 192 889 l 192 910 l 636 910 l 636 889 l 192 889 z "},"ę":{"ha":840,"x_min":90,"x_max":750,"o":"m 431 715 q 594 676 526 715 q 697 562 661 636 q 732 383 732 488 l 110 383 l 110 397 l 713 403 q 678 558 713 493 q 582 659 644 624 q 431 694 519 694 q 265 650 338 694 q 151 526 192 606 q 110 344 110 447 q 133 205 110 268 q 197 96 156 142 q 294 25 238 50 q 419 0 351 0 q 523 12 475 0 q 610 47 571 24 q 683 105 650 69 q 740 188 715 140 l 750 174 q 692 88 725 125 q 619 27 660 51 q 528 -9 578 3 q 419 -21 478 -21 q 287 6 347 -21 q 183 82 226 33 q 115 197 139 131 q 90 344 90 264 q 115 494 90 426 q 185 611 140 561 q 293 688 231 661 q 431 715 356 715 m 572 6 q 431 -97 478 -47 q 383 -194 383 -146 q 408 -251 383 -229 q 469 -272 432 -272 q 545 -251 510 -272 q 611 -187 581 -231 l 621 -197 q 551 -268 590 -243 q 469 -293 513 -293 q 415 -281 439 -293 q 376 -246 390 -268 q 363 -194 363 -224 q 413 -87 363 -139 q 563 14 463 -35 l 572 6 z "},"f":{"ha":475,"x_min":83,"x_max":447,"o":"m 83 0 l 83 14 l 181 28 l 181 667 l 83 667 l 83 681 l 181 694 q 172 801 175 751 q 169 885 169 850 q 184 970 169 938 q 229 1019 199 1003 q 307 1035 260 1035 q 363 1027 338 1035 q 408 1004 389 1019 q 437 968 426 989 q 447 922 447 947 q 437 890 447 903 q 410 872 426 878 q 375 865 393 865 q 326 878 349 865 q 303 918 303 892 q 310 949 303 936 q 328 972 318 963 q 345 990 338 982 q 353 1007 353 999 q 343 1017 353 1014 q 307 1019 333 1019 q 217 987 246 1019 q 189 885 189 954 q 190 818 189 851 q 194 753 192 785 q 200 694 197 722 l 388 681 l 388 667 l 200 667 l 200 28 l 311 14 l 311 0 l 83 0 z "},"g":{"ha":778,"x_min":49,"x_max":688,"o":"m 353 -299 q 244 -285 299 -299 q 147 -248 190 -271 q 76 -196 103 -225 q 49 -136 49 -167 q 59 -104 49 -117 q 86 -85 69 -92 q 121 -79 103 -79 q 171 -92 149 -79 q 193 -132 193 -106 q 185 -157 193 -147 q 167 -174 178 -167 q 146 -186 157 -181 q 127 -197 135 -192 q 119 -210 119 -203 q 152 -241 119 -225 q 238 -267 185 -257 q 353 -278 292 -278 q 517 -255 447 -278 q 624 -190 586 -232 q 661 -90 661 -147 q 633 -4 661 -39 q 541 51 604 31 q 372 81 478 72 q 113 90 267 90 l 113 111 l 281 261 l 297 247 l 156 121 l 156 110 q 362 103 274 110 q 511 83 450 97 q 610 45 572 68 q 664 -12 647 22 q 681 -90 681 -46 q 640 -201 681 -154 q 527 -273 600 -247 q 353 -299 454 -299 m 369 239 q 248 255 303 239 q 153 301 193 271 q 92 372 114 331 q 69 461 69 413 q 92 563 69 517 q 153 644 114 610 q 248 697 193 678 q 369 715 303 715 q 490 697 436 715 q 584 644 544 678 q 645 563 624 610 q 667 461 667 517 q 645 372 667 413 q 584 301 624 331 q 490 255 544 271 q 369 239 435 239 m 369 260 q 514 285 451 260 q 612 357 576 311 q 647 461 647 403 q 612 583 647 531 q 514 665 576 635 q 369 694 451 694 q 224 665 288 694 q 124 583 160 635 q 89 461 89 531 q 124 357 89 403 q 224 285 160 311 q 369 260 288 260 m 496 681 l 428 711 q 480 713 454 713 q 532 715 506 714 q 584 716 558 715 q 635 717 610 717 q 688 719 661 718 l 688 699 l 496 699 l 496 681 z "},"ğ":{"ha":778,"x_min":49,"x_max":688,"o":"m 353 -299 q 244 -285 299 -299 q 147 -248 190 -271 q 76 -196 103 -225 q 49 -136 49 -167 q 59 -104 49 -117 q 86 -85 69 -92 q 121 -79 103 -79 q 171 -92 149 -79 q 193 -132 193 -106 q 185 -157 193 -147 q 167 -174 178 -167 q 146 -186 157 -181 q 127 -197 135 -192 q 119 -210 119 -203 q 152 -241 119 -225 q 238 -267 185 -257 q 353 -278 292 -278 q 517 -255 447 -278 q 624 -190 586 -232 q 661 -90 661 -147 q 633 -4 661 -39 q 541 51 604 31 q 372 81 478 72 q 113 90 267 90 l 113 111 l 281 261 l 297 247 l 156 121 l 156 110 q 362 103 274 110 q 511 83 450 97 q 610 45 572 68 q 664 -12 647 22 q 681 -90 681 -46 q 640 -201 681 -154 q 527 -273 600 -247 q 353 -299 454 -299 m 369 239 q 248 255 303 239 q 153 301 193 271 q 92 372 114 331 q 69 461 69 413 q 92 563 69 517 q 153 644 114 610 q 248 697 193 678 q 369 715 303 715 q 490 697 436 715 q 584 644 544 678 q 645 563 624 610 q 667 461 667 517 q 645 372 667 413 q 584 301 624 331 q 490 255 544 271 q 369 239 435 239 m 369 260 q 514 285 451 260 q 612 357 576 311 q 647 461 647 403 q 612 583 647 531 q 514 665 576 635 q 369 694 451 694 q 224 665 288 694 q 124 583 160 635 q 89 461 89 531 q 124 357 89 403 q 224 285 160 311 q 369 260 288 260 m 496 681 l 428 711 q 480 713 454 713 q 532 715 506 714 q 584 716 558 715 q 635 717 610 717 q 688 719 661 718 l 688 699 l 496 699 l 496 681 m 369 828 q 246 864 300 828 q 161 967 192 900 l 179 974 q 225 906 197 933 q 290 863 253 878 q 369 849 326 849 q 450 863 414 849 q 514 906 486 878 q 560 974 542 933 l 578 967 q 493 864 547 900 q 369 828 439 828 z "},"ģ":{"ha":778,"x_min":49,"x_max":688,"o":"m 353 -299 q 244 -285 299 -299 q 147 -248 190 -271 q 76 -196 103 -225 q 49 -136 49 -167 q 59 -104 49 -117 q 86 -85 69 -92 q 121 -79 103 -79 q 171 -92 149 -79 q 193 -132 193 -106 q 185 -157 193 -147 q 167 -174 178 -167 q 146 -186 157 -181 q 127 -197 135 -192 q 119 -210 119 -203 q 152 -241 119 -225 q 238 -267 185 -257 q 353 -278 292 -278 q 517 -255 447 -278 q 624 -190 586 -232 q 661 -90 661 -147 q 633 -4 661 -39 q 541 51 604 31 q 372 81 478 72 q 113 90 267 90 l 113 111 l 281 261 l 297 247 l 156 121 l 156 110 q 362 103 274 110 q 511 83 450 97 q 610 45 572 68 q 664 -12 647 22 q 681 -90 681 -46 q 640 -201 681 -154 q 527 -273 600 -247 q 353 -299 454 -299 m 369 239 q 248 255 303 239 q 153 301 193 271 q 92 372 114 331 q 69 461 69 413 q 92 563 69 517 q 153 644 114 610 q 248 697 193 678 q 369 715 303 715 q 490 697 436 715 q 584 644 544 678 q 645 563 624 610 q 667 461 667 517 q 645 372 667 413 q 584 301 624 331 q 490 255 544 271 q 369 239 435 239 m 369 260 q 514 285 451 260 q 612 357 576 311 q 647 461 647 403 q 612 583 647 531 q 514 665 576 635 q 369 694 451 694 q 224 665 288 694 q 124 583 160 635 q 89 461 89 531 q 124 357 89 403 q 224 285 160 311 q 369 260 288 260 m 496 681 l 428 711 q 480 713 454 713 q 532 715 506 714 q 584 716 558 715 q 635 717 610 717 q 688 719 661 718 l 688 699 l 496 699 l 496 681 m 439 1029 l 444 1017 q 408 999 426 1010 q 376 977 390 989 q 353 951 361 965 l 367 939 l 372 939 q 406 931 392 939 q 429 908 421 922 q 438 874 438 893 q 428 843 438 857 q 404 822 419 829 q 368 814 389 814 q 333 823 349 814 q 310 847 318 832 q 301 879 301 861 q 310 925 301 904 q 335 965 318 946 q 378 999 353 983 q 439 1029 404 1015 z "},"ġ":{"ha":778,"x_min":49,"x_max":688,"o":"m 353 -299 q 244 -285 299 -299 q 147 -248 190 -271 q 76 -196 103 -225 q 49 -136 49 -167 q 59 -104 49 -117 q 86 -85 69 -92 q 121 -79 103 -79 q 171 -92 149 -79 q 193 -132 193 -106 q 185 -157 193 -147 q 167 -174 178 -167 q 146 -186 157 -181 q 127 -197 135 -192 q 119 -210 119 -203 q 152 -241 119 -225 q 238 -267 185 -257 q 353 -278 292 -278 q 517 -255 447 -278 q 624 -190 586 -232 q 661 -90 661 -147 q 633 -4 661 -39 q 541 51 604 31 q 372 81 478 72 q 113 90 267 90 l 113 111 l 281 261 l 297 247 l 156 121 l 156 110 q 362 103 274 110 q 511 83 450 97 q 610 45 572 68 q 664 -12 647 22 q 681 -90 681 -46 q 640 -201 681 -154 q 527 -273 600 -247 q 353 -299 454 -299 m 369 239 q 248 255 303 239 q 153 301 193 271 q 92 372 114 331 q 69 461 69 413 q 92 563 69 517 q 153 644 114 610 q 248 697 193 678 q 369 715 303 715 q 490 697 436 715 q 584 644 544 678 q 645 563 624 610 q 667 461 667 517 q 645 372 667 413 q 584 301 624 331 q 490 255 544 271 q 369 239 435 239 m 369 260 q 514 285 451 260 q 612 357 576 311 q 647 461 647 403 q 612 583 647 531 q 514 665 576 635 q 369 694 451 694 q 224 665 288 694 q 124 583 160 635 q 89 461 89 531 q 124 357 89 403 q 224 285 160 311 q 369 260 288 260 m 496 681 l 428 711 q 480 713 454 713 q 532 715 506 714 q 584 716 558 715 q 635 717 610 717 q 688 719 661 718 l 688 699 l 496 699 l 496 681 m 371 974 q 421 957 401 974 q 440 914 440 940 q 421 872 440 888 q 371 856 401 856 q 319 872 339 856 q 299 914 299 888 q 319 957 299 940 q 371 974 339 974 z "},"h":{"ha":888,"x_min":83,"x_max":832,"o":"m 832 14 l 832 0 l 646 0 l 646 14 l 729 28 l 729 469 q 688 639 729 583 q 560 694 646 694 q 458 674 510 694 q 359 617 407 654 q 270 528 311 579 q 200 417 229 478 l 200 28 l 283 14 l 283 0 l 97 0 l 97 14 l 181 28 l 181 978 l 83 978 l 83 993 l 200 1035 l 200 486 l 211 478 q 318 607 261 554 q 437 688 375 660 q 560 715 499 715 q 642 700 607 715 q 701 654 678 685 q 737 578 725 624 q 749 469 749 532 l 749 28 l 832 14 z "},"ħ":{"ha":888,"x_min":83,"x_max":832,"o":"m 83 844 l 339 844 l 339 824 l 83 824 l 83 844 m 832 14 l 832 0 l 646 0 l 646 14 l 729 28 l 729 469 q 688 639 729 583 q 560 694 646 694 q 458 674 510 694 q 359 617 407 654 q 270 528 311 579 q 200 417 229 478 l 200 28 l 283 14 l 283 0 l 97 0 l 97 14 l 181 28 l 181 978 l 83 978 l 83 993 l 200 1035 l 200 486 l 211 478 q 318 607 261 554 q 437 688 375 660 q 560 715 499 715 q 642 700 607 715 q 701 654 678 685 q 737 578 725 624 q 749 469 749 532 l 749 28 l 832 14 z "},"i":{"ha":381,"x_min":83,"x_max":283,"o":"m 179 856 q 142 863 158 856 q 117 884 126 871 q 108 914 108 897 q 117 945 108 932 q 142 966 126 958 q 179 974 158 974 q 216 966 200 974 q 241 945 232 958 q 250 914 250 932 q 241 884 250 897 q 216 863 232 871 q 179 856 200 856 m 97 0 l 97 14 l 181 28 l 181 658 l 83 658 l 83 674 l 200 715 l 200 28 l 283 14 l 283 0 l 97 0 z "},"ı":{"ha":353,"x_min":83,"x_max":283,"o":"m 97 0 l 97 14 l 181 28 l 181 658 l 83 658 l 83 674 l 200 715 l 200 28 l 283 14 l 283 0 l 97 0 z "},"í":{"ha":353,"x_min":83,"x_max":350,"o":"m 97 0 l 97 14 l 181 28 l 181 658 l 83 658 l 83 674 l 200 715 l 200 28 l 283 14 l 283 0 l 97 0 m 142 814 l 128 828 l 336 1001 l 350 986 l 142 814 z "},"î":{"ha":353,"x_min":-32,"x_max":385,"o":"m 97 0 l 97 14 l 181 28 l 181 658 l 83 658 l 83 674 l 200 715 l 200 28 l 283 14 l 283 0 l 97 0 m -21 814 l -32 825 l 165 988 l 188 988 l 385 825 l 372 814 l 176 972 l -21 814 z "},"ï":{"ha":353,"x_min":-35,"x_max":385,"o":"m 97 0 l 97 14 l 181 28 l 181 658 l 83 658 l 83 674 l 200 715 l 200 28 l 283 14 l 283 0 l 97 0 m 315 974 q 365 957 346 974 q 385 914 385 940 q 365 872 385 888 q 315 856 346 856 q 263 872 283 856 q 243 914 243 888 q 263 957 243 940 q 315 974 283 974 m 38 974 q 88 957 68 974 q 107 914 107 940 q 88 872 107 888 q 38 856 68 856 q -15 872 6 856 q -35 914 -35 888 q -15 957 -35 940 q 38 974 6 974 z "},"ì":{"ha":353,"x_min":24,"x_max":283,"o":"m 97 0 l 97 14 l 181 28 l 181 658 l 83 658 l 83 674 l 200 715 l 200 28 l 283 14 l 283 0 l 97 0 m 232 814 l 24 986 l 38 1001 l 246 828 l 232 814 z "},"ī":{"ha":353,"x_min":-46,"x_max":399,"o":"m 97 0 l 97 14 l 181 28 l 181 658 l 83 658 l 83 674 l 200 715 l 200 28 l 283 14 l 283 0 l 97 0 m -46 889 l -46 910 l 399 910 l 399 889 l -46 889 z "},"į":{"ha":381,"x_min":74,"x_max":332,"o":"m 179 856 q 142 863 158 856 q 117 884 126 871 q 108 914 108 897 q 117 945 108 932 q 142 966 126 958 q 179 974 158 974 q 216 966 200 974 q 241 945 232 958 q 250 914 250 932 q 241 884 250 897 q 216 863 232 871 q 179 856 200 856 m 97 0 l 97 14 l 181 28 l 181 658 l 83 658 l 83 674 l 200 715 l 200 28 l 283 14 l 283 0 l 97 0 m 283 6 q 142 -97 189 -47 q 94 -194 94 -146 q 119 -251 94 -229 q 181 -272 143 -272 q 256 -251 221 -272 q 322 -187 292 -231 l 332 -197 q 263 -268 301 -243 q 181 -293 224 -293 q 126 -281 150 -293 q 88 -246 101 -268 q 74 -194 74 -224 q 124 -87 74 -139 q 274 14 174 -35 l 283 6 z "},"ĳ":{"ha":785,"x_min":83,"x_max":660,"o":"m 179 856 q 142 863 158 856 q 117 884 126 871 q 108 914 108 897 q 117 945 108 932 q 142 966 126 958 q 179 974 158 974 q 216 966 200 974 q 241 945 232 958 q 250 914 250 932 q 241 884 250 897 q 216 863 232 871 q 179 856 200 856 m 97 0 l 97 14 l 181 28 l 181 658 l 83 658 l 83 674 l 200 715 l 200 28 l 283 14 l 283 0 l 97 0 m 592 800 q 556 808 572 800 q 531 828 540 815 q 521 858 521 842 q 531 891 521 878 q 556 911 540 904 q 592 918 572 918 q 626 911 611 918 q 651 891 642 904 q 660 858 660 878 q 651 828 660 842 q 626 808 642 815 q 592 800 611 800 m 486 -299 q 430 -291 456 -299 q 385 -268 404 -283 q 356 -232 367 -253 q 346 -186 346 -211 q 356 -154 346 -167 q 383 -135 367 -142 q 418 -129 400 -129 q 468 -142 446 -129 q 490 -182 490 -156 q 483 -213 490 -200 q 465 -236 475 -226 q 448 -254 456 -246 q 440 -271 440 -262 q 450 -280 440 -276 q 486 -283 460 -283 q 576 -251 547 -283 q 604 -149 604 -218 q 602 -74 604 -107 q 593 0 600 -42 l 593 658 l 496 658 l 496 674 l 613 715 l 613 0 q 622 -83 619 -49 q 624 -149 624 -117 q 591 -262 624 -226 q 486 -299 558 -299 z "},"j":{"ha":432,"x_min":-7,"x_max":307,"o":"m 239 800 q 203 808 219 800 q 178 828 188 815 q 168 858 168 842 q 178 891 168 878 q 203 911 188 904 q 239 918 219 918 q 274 911 258 918 q 298 891 289 904 q 307 858 307 878 q 298 828 307 842 q 274 808 289 815 q 239 800 258 800 m 133 -299 q 77 -291 103 -299 q 33 -268 51 -283 q 3 -232 14 -253 q -7 -186 -7 -211 q 3 -154 -7 -167 q 31 -135 14 -142 q 65 -129 47 -129 q 115 -142 93 -129 q 138 -182 138 -156 q 130 -213 138 -200 q 113 -236 122 -226 q 95 -254 103 -246 q 88 -271 88 -262 q 97 -280 88 -276 q 133 -283 107 -283 q 223 -251 194 -283 q 251 -149 251 -218 q 249 -74 251 -107 q 240 0 247 -42 l 240 658 l 143 658 l 143 674 l 260 715 l 260 0 q 269 -83 267 -49 q 271 -149 271 -117 q 238 -262 271 -226 q 133 -299 206 -299 z "},"ȷ":{"ha":432,"x_min":-7,"x_max":271,"o":"m 133 -299 q 77 -291 103 -299 q 33 -268 51 -283 q 3 -232 14 -253 q -7 -186 -7 -211 q 3 -154 -7 -167 q 31 -135 14 -142 q 65 -129 47 -129 q 115 -142 93 -129 q 138 -182 138 -156 q 130 -213 138 -200 q 113 -236 122 -226 q 95 -254 103 -246 q 88 -271 88 -262 q 97 -280 88 -276 q 133 -283 107 -283 q 223 -251 194 -283 q 251 -149 251 -218 q 249 -74 251 -107 q 240 0 247 -42 l 240 658 l 143 658 l 143 674 l 260 715 l 260 0 q 269 -83 267 -49 q 271 -149 271 -117 q 238 -262 271 -226 q 133 -299 206 -299 z "},"k":{"ha":693,"x_min":83,"x_max":638,"o":"m 200 28 l 283 14 l 283 0 l 97 0 l 97 14 l 181 28 l 181 978 l 83 978 l 83 993 l 200 1035 l 200 28 m 186 386 l 186 400 q 275 426 222 400 q 376 479 328 451 q 438 517 415 503 q 471 542 461 532 q 481 558 481 551 q 474 568 481 564 q 456 576 467 572 q 435 586 446 581 q 413 600 424 592 q 396 620 403 608 q 389 647 389 632 q 401 682 389 667 q 433 706 413 697 q 478 715 453 715 q 519 707 501 715 q 549 683 538 699 q 560 647 560 668 q 534 583 560 617 q 456 511 508 549 q 390 469 432 494 q 289 413 349 444 l 289 399 l 321 399 q 390 272 361 322 q 436 193 418 221 q 513 78 482 121 q 566 18 543 36 q 607 0 589 0 q 624 3 617 0 q 638 14 631 7 l 638 -6 q 626 -15 632 -11 q 615 -19 621 -18 q 603 -21 610 -21 q 560 -2 583 -21 q 505 61 538 17 q 424 181 472 106 q 367 276 397 225 q 306 386 338 326 l 186 386 z "},"ķ":{"ha":693,"x_min":83,"x_max":638,"o":"m 200 28 l 283 14 l 283 0 l 97 0 l 97 14 l 181 28 l 181 978 l 83 978 l 83 993 l 200 1035 l 200 28 m 186 386 l 186 400 q 275 426 222 400 q 376 479 328 451 q 438 517 415 503 q 471 542 461 532 q 481 558 481 551 q 474 568 481 564 q 456 576 467 572 q 435 586 446 581 q 413 600 424 592 q 396 620 403 608 q 389 647 389 632 q 401 682 389 667 q 433 706 413 697 q 478 715 453 715 q 519 707 501 715 q 549 683 538 699 q 560 647 560 668 q 534 583 560 617 q 456 511 508 549 q 390 469 432 494 q 289 413 349 444 l 289 399 l 321 399 q 390 272 361 322 q 436 193 418 221 q 513 78 482 121 q 566 18 543 36 q 607 0 589 0 q 624 3 617 0 q 638 14 631 7 l 638 -6 q 626 -15 632 -11 q 615 -19 621 -18 q 603 -21 610 -21 q 560 -2 583 -21 q 505 61 538 17 q 424 181 472 106 q 367 276 397 225 q 306 386 338 326 l 186 386 m 311 -285 l 306 -272 q 342 -254 325 -264 q 374 -232 360 -244 q 397 -207 389 -219 l 383 -194 l 378 -194 q 344 -186 358 -194 q 321 -163 329 -178 q 313 -129 313 -149 q 322 -98 313 -111 q 347 -77 331 -85 q 382 -69 363 -69 q 417 -78 401 -69 q 440 -100 432 -86 q 449 -132 449 -114 q 440 -178 449 -157 q 415 -219 432 -200 q 372 -255 397 -239 q 311 -285 346 -271 z "},"l":{"ha":353,"x_min":83,"x_max":283,"o":"m 200 28 l 283 14 l 283 0 l 97 0 l 97 14 l 181 28 l 181 978 l 83 978 l 83 993 l 200 1035 l 200 28 z "},"ĺ":{"ha":353,"x_min":83,"x_max":349,"o":"m 200 28 l 283 14 l 283 0 l 97 0 l 97 14 l 181 28 l 181 978 l 83 978 l 83 993 l 200 1035 l 200 28 m 140 1103 l 126 1117 l 335 1290 l 349 1275 l 140 1103 z "},"ľ":{"ha":408,"x_min":83,"x_max":346,"o":"m 200 28 l 283 14 l 283 0 l 97 0 l 97 14 l 181 28 l 181 978 l 83 978 l 83 993 l 200 1035 l 200 28 m 299 772 l 299 1001 l 346 1001 l 304 772 l 299 772 z "},"ļ":{"ha":353,"x_min":83,"x_max":283,"o":"m 200 28 l 283 14 l 283 0 l 97 0 l 97 14 l 181 28 l 181 978 l 83 978 l 83 993 l 200 1035 l 200 28 m 106 -285 l 100 -272 q 137 -254 119 -264 q 169 -232 154 -244 q 192 -207 183 -219 l 178 -194 l 172 -194 q 138 -186 153 -194 q 115 -163 124 -178 q 107 -129 107 -149 q 116 -98 107 -111 q 141 -77 125 -85 q 176 -69 157 -69 q 211 -78 196 -69 q 235 -100 226 -86 q 243 -132 243 -114 q 235 -178 243 -157 q 209 -219 226 -200 q 166 -255 192 -239 q 106 -285 140 -271 z "},"ŀ":{"ha":628,"x_min":83,"x_max":572,"o":"m 200 28 l 283 14 l 283 0 l 97 0 l 97 14 l 181 28 l 181 978 l 83 978 l 83 993 l 200 1035 l 200 28 m 506 589 q 536 582 521 589 q 562 562 551 575 q 572 526 572 549 q 562 492 572 507 q 536 471 551 478 q 506 464 521 464 q 474 471 490 464 q 447 492 457 478 q 436 526 436 507 q 447 562 436 549 q 474 582 457 575 q 506 589 490 589 z "},"ł":{"ha":353,"x_min":83,"x_max":283,"o":"m 92 483 l 83 497 l 275 604 l 283 589 l 92 483 m 200 28 l 283 14 l 283 0 l 97 0 l 97 14 l 181 28 l 181 978 l 83 978 l 83 993 l 200 1035 l 200 28 z "},"m":{"ha":1393,"x_min":83,"x_max":1338,"o":"m 97 0 l 97 14 l 181 28 l 181 658 l 83 658 l 83 674 l 200 715 l 200 486 l 211 478 q 301 601 249 547 q 415 685 354 654 q 532 715 475 715 q 615 700 579 715 q 674 654 650 685 q 709 578 697 624 q 721 469 721 532 l 721 28 l 818 14 l 818 0 l 604 0 l 604 14 l 701 28 l 701 469 q 660 639 701 583 q 532 694 618 694 q 440 675 486 694 q 351 619 394 656 q 269 532 307 583 q 200 417 231 481 l 200 28 l 297 14 l 297 0 l 97 0 m 1124 0 l 1124 14 l 1221 28 l 1221 469 q 1179 639 1221 583 q 1051 694 1138 694 q 960 675 1006 694 q 870 619 914 656 q 788 532 826 583 q 719 417 750 481 l 719 486 l 731 478 q 821 601 768 547 q 934 685 874 654 q 1051 715 994 715 q 1134 700 1099 715 q 1193 654 1169 685 q 1228 578 1217 624 q 1240 469 1240 532 l 1240 28 l 1338 14 l 1338 0 l 1124 0 z "},"n":{"ha":901,"x_min":83,"x_max":846,"o":"m 846 14 l 846 0 l 632 0 l 632 14 l 729 28 l 729 469 q 688 639 729 583 q 560 694 646 694 q 458 674 510 694 q 359 617 407 654 q 270 528 311 579 q 200 417 229 478 l 200 28 l 297 14 l 297 0 l 97 0 l 97 14 l 181 28 l 181 658 l 83 658 l 83 674 l 200 715 l 200 486 l 211 478 q 318 607 261 554 q 437 688 375 660 q 560 715 499 715 q 642 700 607 715 q 701 654 678 685 q 737 578 725 624 q 749 469 749 532 l 749 28 l 846 14 z "},"ń":{"ha":901,"x_min":83,"x_max":846,"o":"m 846 14 l 846 0 l 632 0 l 632 14 l 729 28 l 729 469 q 688 639 729 583 q 560 694 646 694 q 458 674 510 694 q 359 617 407 654 q 270 528 311 579 q 200 417 229 478 l 200 28 l 297 14 l 297 0 l 97 0 l 97 14 l 181 28 l 181 658 l 83 658 l 83 674 l 200 715 l 200 486 l 211 478 q 318 607 261 554 q 437 688 375 660 q 560 715 499 715 q 642 700 607 715 q 701 654 678 685 q 737 578 725 624 q 749 469 749 532 l 749 28 l 846 14 m 431 814 l 417 828 l 625 1001 l 639 986 l 431 814 z "},"ň":{"ha":901,"x_min":83,"x_max":846,"o":"m 846 14 l 846 0 l 632 0 l 632 14 l 729 28 l 729 469 q 688 639 729 583 q 560 694 646 694 q 458 674 510 694 q 359 617 407 654 q 270 528 311 579 q 200 417 229 478 l 200 28 l 297 14 l 297 0 l 97 0 l 97 14 l 181 28 l 181 658 l 83 658 l 83 674 l 200 715 l 200 486 l 211 478 q 318 607 261 554 q 437 688 375 660 q 560 715 499 715 q 642 700 607 715 q 701 654 678 685 q 737 578 725 624 q 749 469 749 532 l 749 28 l 846 14 m 663 988 l 674 976 l 478 814 l 456 814 l 257 976 l 269 988 l 467 829 l 663 988 z "},"ņ":{"ha":901,"x_min":83,"x_max":846,"o":"m 846 14 l 846 0 l 632 0 l 632 14 l 729 28 l 729 469 q 688 639 729 583 q 560 694 646 694 q 458 674 510 694 q 359 617 407 654 q 270 528 311 579 q 200 417 229 478 l 200 28 l 297 14 l 297 0 l 97 0 l 97 14 l 181 28 l 181 658 l 83 658 l 83 674 l 200 715 l 200 486 l 211 478 q 318 607 261 554 q 437 688 375 660 q 560 715 499 715 q 642 700 607 715 q 701 654 678 685 q 737 578 725 624 q 749 469 749 532 l 749 28 l 846 14 m 396 -285 l 390 -272 q 427 -254 410 -264 q 459 -232 444 -244 q 482 -207 474 -219 l 468 -194 l 463 -194 q 428 -186 443 -194 q 406 -163 414 -178 q 397 -129 397 -149 q 406 -98 397 -111 q 431 -77 415 -85 q 467 -69 447 -69 q 501 -78 486 -69 q 525 -100 517 -86 q 533 -132 533 -114 q 525 -178 533 -157 q 499 -219 517 -200 q 456 -255 482 -239 q 396 -285 431 -271 z "},"ñ":{"ha":901,"x_min":83,"x_max":846,"o":"m 846 14 l 846 0 l 632 0 l 632 14 l 729 28 l 729 469 q 688 639 729 583 q 560 694 646 694 q 458 674 510 694 q 359 617 407 654 q 270 528 311 579 q 200 417 229 478 l 200 28 l 297 14 l 297 0 l 97 0 l 97 14 l 181 28 l 181 658 l 83 658 l 83 674 l 200 715 l 200 486 l 211 478 q 318 607 261 554 q 437 688 375 660 q 560 715 499 715 q 642 700 607 715 q 701 654 678 685 q 737 578 725 624 q 749 469 749 532 l 749 28 l 846 14 m 597 828 q 531 847 561 828 q 472 890 500 865 q 417 934 444 915 q 358 953 389 953 q 287 923 313 953 q 240 831 261 893 l 222 833 q 253 910 235 879 q 297 958 271 942 q 358 974 324 974 q 422 955 392 974 q 480 911 451 936 q 538 867 508 886 q 597 849 567 849 q 657 878 638 849 q 690 971 676 908 l 708 968 q 686 890 700 921 q 651 843 672 858 q 597 828 631 828 z "},"ŋ":{"ha":901,"x_min":83,"x_max":749,"o":"m 749 -158 q 741 -217 749 -192 q 718 -261 733 -243 q 681 -289 703 -279 q 629 -299 658 -299 q 529 -280 574 -299 q 458 -228 485 -261 q 432 -157 432 -196 q 445 -120 432 -133 q 479 -107 458 -107 q 518 -123 504 -107 q 532 -169 532 -139 q 557 -249 532 -221 q 629 -278 582 -278 q 703 -246 678 -278 q 729 -158 729 -214 l 729 469 q 688 639 729 583 q 560 694 646 694 q 458 674 510 694 q 359 617 407 654 q 270 528 311 579 q 200 417 229 478 l 200 28 l 297 14 l 297 0 l 97 0 l 97 14 l 181 28 l 181 658 l 83 658 l 83 674 l 200 715 l 200 486 l 211 478 q 318 607 261 554 q 437 688 375 660 q 560 715 499 715 q 642 700 607 715 q 701 654 678 685 q 737 578 725 624 q 749 469 749 532 l 749 -158 z "},"o":{"ha":825,"x_min":90,"x_max":735,"o":"m 411 715 q 548 690 488 715 q 650 617 608 665 q 713 499 692 568 q 735 342 735 429 q 713 190 735 257 q 649 75 690 122 q 547 3 607 28 q 411 -21 488 -21 q 276 3 336 -21 q 175 75 217 28 q 112 190 133 122 q 90 342 90 257 q 112 499 90 429 q 175 617 133 568 q 276 690 217 665 q 411 715 336 715 m 413 694 q 250 653 318 694 q 146 532 182 611 q 110 342 110 453 q 130 198 110 261 q 190 90 150 135 q 285 23 229 46 q 411 0 340 0 q 540 23 483 0 q 635 90 596 46 q 695 198 675 135 q 715 342 715 261 q 695 490 715 425 q 635 601 675 556 q 540 671 596 647 q 413 694 483 694 z "},"ó":{"ha":825,"x_min":90,"x_max":735,"o":"m 411 715 q 548 690 488 715 q 650 617 608 665 q 713 499 692 568 q 735 342 735 429 q 713 190 735 257 q 649 75 690 122 q 547 3 607 28 q 411 -21 488 -21 q 276 3 336 -21 q 175 75 217 28 q 112 190 133 122 q 90 342 90 257 q 112 499 90 429 q 175 617 133 568 q 276 690 217 665 q 411 715 336 715 m 413 694 q 250 653 318 694 q 146 532 182 611 q 110 342 110 453 q 130 198 110 261 q 190 90 150 135 q 285 23 229 46 q 411 0 340 0 q 540 23 483 0 q 635 90 596 46 q 695 198 675 135 q 715 342 715 261 q 695 490 715 425 q 635 601 675 556 q 540 671 596 647 q 413 694 483 694 m 376 814 l 363 828 l 571 1001 l 585 986 l 376 814 z "},"ô":{"ha":825,"x_min":90,"x_max":735,"o":"m 411 715 q 548 690 488 715 q 650 617 608 665 q 713 499 692 568 q 735 342 735 429 q 713 190 735 257 q 649 75 690 122 q 547 3 607 28 q 411 -21 488 -21 q 276 3 336 -21 q 175 75 217 28 q 112 190 133 122 q 90 342 90 257 q 112 499 90 429 q 175 617 133 568 q 276 690 217 665 q 411 715 336 715 m 413 694 q 250 653 318 694 q 146 532 182 611 q 110 342 110 453 q 130 198 110 261 q 190 90 150 135 q 285 23 229 46 q 411 0 340 0 q 540 23 483 0 q 635 90 596 46 q 695 198 675 135 q 715 342 715 261 q 695 490 715 425 q 635 601 675 556 q 540 671 596 647 q 413 694 483 694 m 214 814 l 203 825 l 400 988 l 422 988 l 619 825 l 607 814 l 411 972 l 214 814 z "},"ö":{"ha":825,"x_min":90,"x_max":735,"o":"m 411 715 q 548 690 488 715 q 650 617 608 665 q 713 499 692 568 q 735 342 735 429 q 713 190 735 257 q 649 75 690 122 q 547 3 607 28 q 411 -21 488 -21 q 276 3 336 -21 q 175 75 217 28 q 112 190 133 122 q 90 342 90 257 q 112 499 90 429 q 175 617 133 568 q 276 690 217 665 q 411 715 336 715 m 413 694 q 250 653 318 694 q 146 532 182 611 q 110 342 110 453 q 130 198 110 261 q 190 90 150 135 q 285 23 229 46 q 411 0 340 0 q 540 23 483 0 q 635 90 596 46 q 695 198 675 135 q 715 342 715 261 q 695 490 715 425 q 635 601 675 556 q 540 671 596 647 q 413 694 483 694 m 550 974 q 600 957 581 974 q 619 914 619 940 q 600 872 619 888 q 550 856 581 856 q 498 872 518 856 q 478 914 478 888 q 498 957 478 940 q 550 974 518 974 m 272 974 q 322 957 303 974 q 342 914 342 940 q 322 872 342 888 q 272 856 303 856 q 220 872 240 856 q 200 914 200 888 q 220 957 200 940 q 272 974 240 974 z "},"ò":{"ha":825,"x_min":90,"x_max":735,"o":"m 411 715 q 548 690 488 715 q 650 617 608 665 q 713 499 692 568 q 735 342 735 429 q 713 190 735 257 q 649 75 690 122 q 547 3 607 28 q 411 -21 488 -21 q 276 3 336 -21 q 175 75 217 28 q 112 190 133 122 q 90 342 90 257 q 112 499 90 429 q 175 617 133 568 q 276 690 217 665 q 411 715 336 715 m 413 694 q 250 653 318 694 q 146 532 182 611 q 110 342 110 453 q 130 198 110 261 q 190 90 150 135 q 285 23 229 46 q 411 0 340 0 q 540 23 483 0 q 635 90 596 46 q 695 198 675 135 q 715 342 715 261 q 695 490 715 425 q 635 601 675 556 q 540 671 596 647 q 413 694 483 694 m 467 814 l 258 986 l 272 1001 l 481 828 l 467 814 z "},"ő":{"ha":825,"x_min":90,"x_max":735,"o":"m 411 715 q 548 690 488 715 q 650 617 608 665 q 713 499 692 568 q 735 342 735 429 q 713 190 735 257 q 649 75 690 122 q 547 3 607 28 q 411 -21 488 -21 q 276 3 336 -21 q 175 75 217 28 q 112 190 133 122 q 90 342 90 257 q 112 499 90 429 q 175 617 133 568 q 276 690 217 665 q 411 715 336 715 m 413 694 q 250 653 318 694 q 146 532 182 611 q 110 342 110 453 q 130 198 110 261 q 190 90 150 135 q 285 23 229 46 q 411 0 340 0 q 540 23 483 0 q 635 90 596 46 q 695 198 675 135 q 715 342 715 261 q 695 490 715 425 q 635 601 675 556 q 540 671 596 647 q 413 694 483 694 m 522 814 l 508 828 l 717 1001 l 731 986 l 522 814 m 356 814 l 342 828 l 550 1001 l 564 986 l 356 814 z "},"ō":{"ha":825,"x_min":90,"x_max":735,"o":"m 411 715 q 548 690 488 715 q 650 617 608 665 q 713 499 692 568 q 735 342 735 429 q 713 190 735 257 q 649 75 690 122 q 547 3 607 28 q 411 -21 488 -21 q 276 3 336 -21 q 175 75 217 28 q 112 190 133 122 q 90 342 90 257 q 112 499 90 429 q 175 617 133 568 q 276 690 217 665 q 411 715 336 715 m 413 694 q 250 653 318 694 q 146 532 182 611 q 110 342 110 453 q 130 198 110 261 q 190 90 150 135 q 285 23 229 46 q 411 0 340 0 q 540 23 483 0 q 635 90 596 46 q 695 198 675 135 q 715 342 715 261 q 695 490 715 425 q 635 601 675 556 q 540 671 596 647 q 413 694 483 694 m 189 889 l 189 910 l 633 910 l 633 889 l 189 889 z "},"ø":{"ha":825,"x_min":90,"x_max":735,"o":"m 651 778 l 183 -92 l 165 -83 l 633 786 l 651 778 m 411 715 q 548 690 488 715 q 650 617 608 665 q 713 499 692 568 q 735 342 735 429 q 713 190 735 257 q 649 75 690 122 q 547 3 607 28 q 411 -21 488 -21 q 276 3 336 -21 q 175 75 217 28 q 112 190 133 122 q 90 342 90 257 q 112 499 90 429 q 175 617 133 568 q 276 690 217 665 q 411 715 336 715 m 413 694 q 250 653 318 694 q 146 532 182 611 q 110 342 110 453 q 130 198 110 261 q 190 90 150 135 q 285 23 229 46 q 411 0 340 0 q 540 23 483 0 q 635 90 596 46 q 695 198 675 135 q 715 342 715 261 q 695 490 715 425 q 635 601 675 556 q 540 671 596 647 q 413 694 483 694 z "},"õ":{"ha":825,"x_min":90,"x_max":735,"o":"m 411 715 q 548 690 488 715 q 650 617 608 665 q 713 499 692 568 q 735 342 735 429 q 713 190 735 257 q 649 75 690 122 q 547 3 607 28 q 411 -21 488 -21 q 276 3 336 -21 q 175 75 217 28 q 112 190 133 122 q 90 342 90 257 q 112 499 90 429 q 175 617 133 568 q 276 690 217 665 q 411 715 336 715 m 413 694 q 250 653 318 694 q 146 532 182 611 q 110 342 110 453 q 130 198 110 261 q 190 90 150 135 q 285 23 229 46 q 411 0 340 0 q 540 23 483 0 q 635 90 596 46 q 695 198 675 135 q 715 342 715 261 q 695 490 715 425 q 635 601 675 556 q 540 671 596 647 q 413 694 483 694 m 543 828 q 476 847 507 828 q 418 890 446 865 q 363 934 390 915 q 304 953 335 953 q 233 923 258 953 q 186 831 207 893 l 168 833 q 199 910 181 879 q 243 958 217 942 q 304 974 269 974 q 367 955 338 974 q 426 911 397 936 q 483 867 454 886 q 543 849 513 849 q 603 878 583 849 q 636 971 622 908 l 654 968 q 632 890 646 921 q 597 843 618 858 q 543 828 576 828 z "},"œ":{"ha":1465,"x_min":90,"x_max":1375,"o":"m 411 -21 q 276 3 336 -21 q 175 75 217 28 q 112 190 133 122 q 90 342 90 257 q 112 499 90 429 q 175 617 133 568 q 276 690 217 665 q 411 715 336 715 q 563 683 497 715 q 669 592 628 651 q 726 446 711 532 q 790 588 744 528 q 904 682 836 649 q 1056 715 972 715 q 1219 676 1151 715 q 1322 562 1286 636 q 1357 383 1358 488 l 728 383 l 728 397 l 1338 403 q 1301 560 1336 494 q 1205 660 1267 625 q 1056 694 1143 694 q 927 669 986 694 q 825 598 868 644 q 758 488 782 551 q 735 347 735 424 q 757 206 735 269 q 820 96 779 142 q 918 25 861 50 q 1044 0 975 0 q 1148 12 1100 0 q 1235 47 1196 24 q 1308 105 1275 69 q 1365 188 1340 140 l 1375 174 q 1317 88 1350 125 q 1244 27 1285 51 q 1153 -9 1203 3 q 1044 -21 1103 -21 q 899 13 964 -21 q 789 105 833 46 q 726 243 744 164 q 669 100 711 158 q 563 10 628 42 q 411 -21 497 -21 m 411 0 q 540 23 483 0 q 635 90 596 46 q 695 198 675 135 q 715 342 715 261 q 695 490 715 425 q 635 601 675 556 q 540 671 596 647 q 413 694 483 694 q 250 653 318 694 q 146 532 182 611 q 110 342 110 453 q 130 198 110 261 q 190 90 150 135 q 285 23 229 46 q 411 0 340 0 z "},"p":{"ha":874,"x_min":83,"x_max":783,"o":"m 97 -278 l 97 -264 l 181 -250 l 181 646 l 83 646 l 83 660 l 200 715 l 200 503 l 211 492 q 260 583 232 542 q 325 654 289 625 q 404 699 361 683 q 497 715 447 715 q 646 669 582 715 q 747 540 710 622 q 783 349 783 457 q 742 158 783 242 q 630 26 701 74 q 465 -21 558 -21 q 360 0 414 -21 q 265 60 307 21 q 200 154 222 100 l 200 -250 l 297 -264 l 297 -278 l 97 -278 m 465 0 q 618 45 551 0 q 724 169 685 90 q 763 349 763 247 q 730 528 763 450 q 638 650 697 606 q 497 694 578 694 q 386 667 435 694 q 301 595 338 640 q 239 497 264 550 q 200 389 214 443 l 200 264 q 218 176 200 222 q 270 90 236 129 q 353 25 304 50 q 465 0 403 0 z "},"þ":{"ha":874,"x_min":83,"x_max":783,"o":"m 97 -278 l 97 -264 l 181 -250 l 181 965 l 83 965 l 83 979 l 200 1035 l 200 503 l 211 492 q 260 583 232 542 q 325 654 289 625 q 404 699 361 683 q 497 715 447 715 q 646 669 582 715 q 747 540 710 622 q 783 349 783 457 q 742 158 783 242 q 630 26 701 74 q 465 -21 558 -21 q 360 0 414 -21 q 265 60 307 21 q 200 154 222 100 l 200 -250 l 297 -264 l 297 -278 l 97 -278 m 465 0 q 618 45 551 0 q 724 169 685 90 q 763 349 763 247 q 730 528 763 450 q 638 650 697 606 q 497 694 578 694 q 386 667 435 694 q 301 595 338 640 q 239 497 264 550 q 200 389 214 443 l 200 264 q 218 176 200 222 q 270 90 236 129 q 353 25 304 50 q 465 0 403 0 z "},"q":{"ha":846,"x_min":90,"x_max":776,"o":"m 590 -278 l 590 -264 l 674 -250 l 674 192 l 663 203 q 628 142 651 179 q 567 68 604 106 q 481 5 531 31 q 369 -21 432 -21 q 252 3 304 -21 q 164 75 200 28 q 109 189 128 122 q 90 340 90 256 q 111 499 90 429 q 171 617 132 568 q 266 690 210 665 q 394 715 322 715 q 465 706 429 715 q 536 679 501 697 q 603 634 571 661 q 660 569 635 607 l 674 569 l 679 715 l 693 715 l 693 -250 l 776 -264 l 776 -278 l 590 -278 m 369 0 q 492 34 432 0 q 599 133 551 68 q 674 288 647 197 l 674 446 q 647 548 674 503 q 576 626 619 593 q 485 677 533 660 q 394 694 436 694 q 243 652 307 694 q 144 531 179 610 q 110 340 110 451 q 140 158 110 235 q 228 41 169 82 q 369 0 286 0 z "},"r":{"ha":551,"x_min":83,"x_max":524,"o":"m 97 0 l 97 14 l 181 28 l 181 658 l 83 658 l 83 674 l 200 715 l 200 489 l 211 478 q 256 566 235 528 q 299 631 278 604 q 370 696 335 676 q 444 715 406 715 q 487 706 469 715 q 514 681 504 697 q 524 640 524 664 q 515 608 524 624 q 490 583 507 593 q 447 574 474 574 q 407 581 425 574 q 378 601 389 588 q 368 629 368 614 q 369 638 368 635 q 369 646 369 642 q 369 653 369 650 q 361 663 369 663 q 320 635 343 663 q 274 567 297 608 q 233 488 253 532 q 200 399 214 444 l 200 28 l 283 14 l 283 0 l 97 0 z "},"ŕ":{"ha":551,"x_min":83,"x_max":524,"o":"m 97 0 l 97 14 l 181 28 l 181 658 l 83 658 l 83 674 l 200 715 l 200 489 l 211 478 q 256 566 235 528 q 299 631 278 604 q 370 696 335 676 q 444 715 406 715 q 487 706 469 715 q 514 681 504 697 q 524 640 524 664 q 515 608 524 624 q 490 583 507 593 q 447 574 474 574 q 407 581 425 574 q 378 601 389 588 q 368 629 368 614 q 369 638 368 635 q 369 646 369 642 q 369 653 369 650 q 361 663 369 663 q 320 635 343 663 q 274 567 297 608 q 233 488 253 532 q 200 399 214 444 l 200 28 l 283 14 l 283 0 l 97 0 m 269 814 l 256 828 l 464 1001 l 478 986 l 269 814 z "},"ř":{"ha":551,"x_min":83,"x_max":524,"o":"m 97 0 l 97 14 l 181 28 l 181 658 l 83 658 l 83 674 l 200 715 l 200 489 l 211 478 q 256 566 235 528 q 299 631 278 604 q 370 696 335 676 q 444 715 406 715 q 487 706 469 715 q 514 681 504 697 q 524 640 524 664 q 515 608 524 624 q 490 583 507 593 q 447 574 474 574 q 407 581 425 574 q 378 601 389 588 q 368 629 368 614 q 369 638 368 635 q 369 646 369 642 q 369 653 369 650 q 361 663 369 663 q 320 635 343 663 q 274 567 297 608 q 233 488 253 532 q 200 399 214 444 l 200 28 l 283 14 l 283 0 l 97 0 m 501 988 l 513 976 l 317 814 l 294 814 l 96 976 l 108 988 l 306 829 l 501 988 z "},"ŗ":{"ha":551,"x_min":83,"x_max":524,"o":"m 97 0 l 97 14 l 181 28 l 181 658 l 83 658 l 83 674 l 200 715 l 200 489 l 211 478 q 256 566 235 528 q 299 631 278 604 q 370 696 335 676 q 444 715 406 715 q 487 706 469 715 q 514 681 504 697 q 524 640 524 664 q 515 608 524 624 q 490 583 507 593 q 447 574 474 574 q 407 581 425 574 q 378 601 389 588 q 368 629 368 614 q 369 638 368 635 q 369 646 369 642 q 369 653 369 650 q 361 663 369 663 q 320 635 343 663 q 274 567 297 608 q 233 488 253 532 q 200 399 214 444 l 200 28 l 283 14 l 283 0 l 97 0 m 124 -285 l 118 -272 q 155 -254 138 -264 q 187 -232 172 -244 q 210 -207 201 -219 l 196 -194 l 190 -194 q 156 -186 171 -194 q 133 -163 142 -178 q 125 -129 125 -149 q 134 -98 125 -111 q 159 -77 143 -85 q 194 -69 175 -69 q 229 -78 214 -69 q 253 -100 244 -86 q 261 -132 261 -114 q 253 -178 261 -157 q 227 -219 244 -200 q 184 -255 210 -239 q 124 -285 158 -271 z "},"s":{"ha":717,"x_min":83,"x_max":633,"o":"m 360 -21 q 248 -10 299 -21 q 160 22 197 1 q 103 72 124 43 q 83 135 83 100 q 94 169 83 154 q 121 191 104 183 q 156 199 138 199 q 190 192 174 199 q 217 175 207 186 q 228 146 228 164 q 218 116 228 129 q 190 96 208 103 q 154 77 164 85 q 144 60 144 69 q 174 33 144 47 q 253 10 204 19 q 360 0 303 0 q 497 21 440 0 q 583 81 553 42 q 614 174 614 119 q 590 244 614 214 q 510 299 565 274 q 357 350 454 325 q 202 406 260 376 q 120 469 144 435 q 96 544 96 503 q 169 669 96 622 q 371 715 242 715 q 495 694 439 715 q 585 638 551 674 q 619 553 619 601 q 609 521 619 533 q 582 502 599 508 q 547 496 565 496 q 521 499 533 496 q 498 509 508 503 q 481 526 488 515 q 475 549 475 536 q 519 603 475 583 q 550 619 542 613 q 558 635 558 626 q 542 655 558 644 q 497 674 525 665 q 437 689 469 683 q 371 694 404 694 q 233 676 290 694 q 146 623 176 657 q 115 544 115 589 q 138 476 115 508 q 215 418 161 444 q 360 367 268 392 q 522 312 463 339 q 608 252 582 285 q 633 174 633 219 q 615 92 633 128 q 561 31 596 56 q 476 -8 526 6 q 360 -21 425 -21 z "},"ś":{"ha":717,"x_min":83,"x_max":633,"o":"m 360 -21 q 248 -10 299 -21 q 160 22 197 1 q 103 72 124 43 q 83 135 83 100 q 94 169 83 154 q 121 191 104 183 q 156 199 138 199 q 190 192 174 199 q 217 175 207 186 q 228 146 228 164 q 218 116 228 129 q 190 96 208 103 q 154 77 164 85 q 144 60 144 69 q 174 33 144 47 q 253 10 204 19 q 360 0 303 0 q 497 21 440 0 q 583 81 553 42 q 614 174 614 119 q 590 244 614 214 q 510 299 565 274 q 357 350 454 325 q 202 406 260 376 q 120 469 144 435 q 96 544 96 503 q 169 669 96 622 q 371 715 242 715 q 495 694 439 715 q 585 638 551 674 q 619 553 619 601 q 609 521 619 533 q 582 502 599 508 q 547 496 565 496 q 521 499 533 496 q 498 509 508 503 q 481 526 488 515 q 475 549 475 536 q 519 603 475 583 q 550 619 542 613 q 558 635 558 626 q 542 655 558 644 q 497 674 525 665 q 437 689 469 683 q 371 694 404 694 q 233 676 290 694 q 146 623 176 657 q 115 544 115 589 q 138 476 115 508 q 215 418 161 444 q 360 367 268 392 q 522 312 463 339 q 608 252 582 285 q 633 174 633 219 q 615 92 633 128 q 561 31 596 56 q 476 -8 526 6 q 360 -21 425 -21 m 317 814 l 303 828 l 511 1001 l 525 986 l 317 814 z "},"š":{"ha":717,"x_min":83,"x_max":633,"o":"m 360 -21 q 248 -10 299 -21 q 160 22 197 1 q 103 72 124 43 q 83 135 83 100 q 94 169 83 154 q 121 191 104 183 q 156 199 138 199 q 190 192 174 199 q 217 175 207 186 q 228 146 228 164 q 218 116 228 129 q 190 96 208 103 q 154 77 164 85 q 144 60 144 69 q 174 33 144 47 q 253 10 204 19 q 360 0 303 0 q 497 21 440 0 q 583 81 553 42 q 614 174 614 119 q 590 244 614 214 q 510 299 565 274 q 357 350 454 325 q 202 406 260 376 q 120 469 144 435 q 96 544 96 503 q 169 669 96 622 q 371 715 242 715 q 495 694 439 715 q 585 638 551 674 q 619 553 619 601 q 609 521 619 533 q 582 502 599 508 q 547 496 565 496 q 521 499 533 496 q 498 509 508 503 q 481 526 488 515 q 475 549 475 536 q 519 603 475 583 q 550 619 542 613 q 558 635 558 626 q 542 655 558 644 q 497 674 525 665 q 437 689 469 683 q 371 694 404 694 q 233 676 290 694 q 146 623 176 657 q 115 544 115 589 q 138 476 115 508 q 215 418 161 444 q 360 367 268 392 q 522 312 463 339 q 608 252 582 285 q 633 174 633 219 q 615 92 633 128 q 561 31 596 56 q 476 -8 526 6 q 360 -21 425 -21 m 549 988 l 560 976 l 364 814 l 342 814 l 143 976 l 156 988 l 353 829 l 549 988 z "},"ş":{"ha":717,"x_min":83,"x_max":633,"o":"m 360 -21 q 248 -10 299 -21 q 160 22 197 1 q 103 72 124 43 q 83 135 83 100 q 94 169 83 154 q 121 191 104 183 q 156 199 138 199 q 190 192 174 199 q 217 175 207 186 q 228 146 228 164 q 218 116 228 129 q 190 96 208 103 q 154 77 164 85 q 144 60 144 69 q 174 33 144 47 q 253 10 204 19 q 360 0 303 0 q 497 21 440 0 q 583 81 553 42 q 614 174 614 119 q 590 244 614 214 q 510 299 565 274 q 357 350 454 325 q 202 406 260 376 q 120 469 144 435 q 96 544 96 503 q 169 669 96 622 q 371 715 242 715 q 495 694 439 715 q 585 638 551 674 q 619 553 619 601 q 609 521 619 533 q 582 502 599 508 q 547 496 565 496 q 521 499 533 496 q 498 509 508 503 q 481 526 488 515 q 475 549 475 536 q 519 603 475 583 q 550 619 542 613 q 558 635 558 626 q 542 655 558 644 q 497 674 525 665 q 437 689 469 683 q 371 694 404 694 q 233 676 290 694 q 146 623 176 657 q 115 544 115 589 q 138 476 115 508 q 215 418 161 444 q 360 367 268 392 q 522 312 463 339 q 608 252 582 285 q 633 174 633 219 q 615 92 633 128 q 561 31 596 56 q 476 -8 526 6 q 360 -21 425 -21 m 407 -299 q 322 -275 358 -299 q 271 -208 286 -251 l 285 -194 q 332 -256 300 -233 q 407 -278 364 -278 q 455 -266 435 -278 q 487 -232 475 -254 q 499 -182 499 -210 q 488 -136 499 -157 q 458 -99 478 -115 q 408 -73 438 -82 q 340 -64 378 -64 l 365 0 l 386 0 l 375 -32 l 386 -47 q 459 -74 429 -56 q 504 -119 489 -92 q 519 -182 519 -146 q 505 -242 519 -215 q 465 -283 490 -268 q 407 -299 440 -299 z "},"ș":{"ha":717,"x_min":83,"x_max":633,"o":"m 360 -21 q 248 -10 299 -21 q 160 22 197 1 q 103 72 124 43 q 83 135 83 100 q 94 169 83 154 q 121 191 104 183 q 156 199 138 199 q 190 192 174 199 q 217 175 207 186 q 228 146 228 164 q 218 116 228 129 q 190 96 208 103 q 154 77 164 85 q 144 60 144 69 q 174 33 144 47 q 253 10 204 19 q 360 0 303 0 q 497 21 440 0 q 583 81 553 42 q 614 174 614 119 q 590 244 614 214 q 510 299 565 274 q 357 350 454 325 q 202 406 260 376 q 120 469 144 435 q 96 544 96 503 q 169 669 96 622 q 371 715 242 715 q 495 694 439 715 q 585 638 551 674 q 619 553 619 601 q 609 521 619 533 q 582 502 599 508 q 547 496 565 496 q 521 499 533 496 q 498 509 508 503 q 481 526 488 515 q 475 549 475 536 q 519 603 475 583 q 550 619 542 613 q 558 635 558 626 q 542 655 558 644 q 497 674 525 665 q 437 689 469 683 q 371 694 404 694 q 233 676 290 694 q 146 623 176 657 q 115 544 115 589 q 138 476 115 508 q 215 418 161 444 q 360 367 268 392 q 522 312 463 339 q 608 252 582 285 q 633 174 633 219 q 615 92 633 128 q 561 31 596 56 q 476 -8 526 6 q 360 -21 425 -21 m 310 -285 l 304 -272 q 341 -254 324 -264 q 373 -232 358 -244 q 396 -207 388 -219 l 382 -194 l 376 -194 q 342 -186 357 -194 q 319 -163 328 -178 q 311 -129 311 -149 q 320 -98 311 -111 q 345 -77 329 -85 q 381 -69 361 -69 q 415 -78 400 -69 q 439 -100 431 -86 q 447 -132 447 -114 q 439 -178 447 -157 q 413 -219 431 -200 q 370 -255 396 -239 q 310 -285 344 -271 z "},"ß":{"ha":986,"x_min":83,"x_max":979,"o":"m 706 -21 q 594 -9 644 -21 q 506 24 543 3 q 449 76 469 46 q 429 142 429 106 q 440 174 429 161 q 467 192 450 186 q 501 199 483 199 q 536 192 519 199 q 563 175 553 186 q 574 146 574 164 q 561 113 574 125 q 532 94 549 101 q 503 80 515 88 q 490 60 490 72 q 520 33 490 47 q 599 10 550 19 q 706 0 649 0 q 892 46 825 0 q 960 174 960 92 q 922 259 960 226 q 826 313 885 292 q 703 350 768 333 q 548 402 606 376 q 466 458 490 428 q 442 531 442 489 q 456 590 442 563 q 494 642 471 617 q 542 693 517 668 q 591 744 568 718 q 628 797 614 769 q 643 856 643 825 q 616 941 643 904 q 540 999 589 978 q 424 1019 492 1019 q 302 1009 349 1019 q 231 981 256 999 q 198 938 207 963 q 189 883 189 913 q 190 818 189 851 q 194 753 192 785 q 200 694 197 722 l 200 28 l 311 14 l 311 0 l 83 0 l 83 14 l 181 28 l 181 667 l 83 667 l 83 681 l 181 694 q 172 801 175 751 q 169 885 169 850 q 178 942 169 917 q 206 984 188 967 q 255 1013 225 1001 q 326 1029 285 1024 q 424 1035 368 1035 q 523 1022 479 1035 q 598 986 567 1010 q 646 930 629 963 q 663 856 663 897 q 651 803 663 828 q 622 755 640 778 q 583 710 604 732 q 541 667 563 689 q 501 624 519 646 q 472 578 483 601 q 461 531 461 556 q 469 490 461 508 q 494 455 476 471 q 540 425 513 439 q 609 397 568 411 q 706 368 650 383 q 804 339 756 354 q 892 303 853 324 q 956 251 932 282 q 979 174 979 219 q 960 92 979 128 q 907 31 942 56 q 822 -8 872 6 q 706 -21 771 -21 z "},"t":{"ha":400,"x_min":35,"x_max":344,"o":"m 210 -21 q 160 4 175 -21 q 146 85 146 29 l 146 667 l 35 667 l 35 681 l 147 694 l 151 922 l 165 922 l 165 694 l 331 681 l 331 667 l 165 667 l 165 85 q 176 19 165 39 q 210 0 186 0 q 273 26 243 0 q 333 92 303 53 l 344 83 q 319 49 333 67 q 286 15 304 31 q 249 -11 268 -1 q 210 -21 229 -21 z "},"ť":{"ha":472,"x_min":35,"x_max":410,"o":"m 210 -21 q 160 4 175 -21 q 146 85 146 29 l 146 667 l 35 667 l 35 681 l 147 694 l 151 922 l 165 922 l 165 694 l 331 681 l 331 667 l 165 667 l 165 85 q 176 19 165 39 q 210 0 186 0 q 273 26 243 0 q 333 92 303 53 l 344 83 q 319 49 333 67 q 286 15 304 31 q 249 -11 268 -1 q 210 -21 229 -21 m 363 772 l 363 1001 l 410 1001 l 368 772 l 363 772 z "},"ț":{"ha":400,"x_min":35,"x_max":344,"o":"m 210 -21 q 160 4 175 -21 q 146 85 146 29 l 146 667 l 35 667 l 35 681 l 147 694 l 151 922 l 165 922 l 165 694 l 331 681 l 331 667 l 165 667 l 165 85 q 176 19 165 39 q 210 0 186 0 q 273 26 243 0 q 333 92 303 53 l 344 83 q 319 49 333 67 q 286 15 304 31 q 249 -11 268 -1 q 210 -21 229 -21 m 168 -285 l 163 -272 q 199 -254 182 -264 q 231 -232 217 -244 q 254 -207 246 -219 l 240 -194 l 235 -194 q 201 -186 215 -194 q 178 -163 186 -178 q 169 -129 169 -149 q 178 -98 169 -111 q 203 -77 188 -85 q 239 -69 219 -69 q 274 -78 258 -69 q 297 -100 289 -86 q 306 -132 306 -114 q 297 -178 306 -157 q 272 -219 289 -200 q 228 -255 254 -239 q 168 -285 203 -271 z "},"u":{"ha":874,"x_min":56,"x_max":818,"o":"m 342 -21 q 200 40 247 -21 q 153 225 153 101 l 153 658 l 56 658 l 56 674 l 172 715 l 172 225 q 215 56 172 111 q 342 0 257 0 q 478 35 410 0 q 604 134 546 71 q 701 278 663 197 l 701 658 l 604 658 l 604 674 l 721 715 l 721 36 l 818 36 l 818 21 l 701 -21 l 701 208 l 690 217 q 525 41 615 103 q 342 -21 435 -21 z "},"ú":{"ha":874,"x_min":56,"x_max":818,"o":"m 342 -21 q 200 40 247 -21 q 153 225 153 101 l 153 658 l 56 658 l 56 674 l 172 715 l 172 225 q 215 56 172 111 q 342 0 257 0 q 478 35 410 0 q 604 134 546 71 q 701 278 663 197 l 701 658 l 604 658 l 604 674 l 721 715 l 721 36 l 818 36 l 818 21 l 701 -21 l 701 208 l 690 217 q 525 41 615 103 q 342 -21 435 -21 m 403 814 l 389 828 l 597 1001 l 611 986 l 403 814 z "},"ŭ":{"ha":874,"x_min":56,"x_max":818,"o":"m 342 -21 q 200 40 247 -21 q 153 225 153 101 l 153 658 l 56 658 l 56 674 l 172 715 l 172 225 q 215 56 172 111 q 342 0 257 0 q 478 35 410 0 q 604 134 546 71 q 701 278 663 197 l 701 658 l 604 658 l 604 674 l 721 715 l 721 36 l 818 36 l 818 21 l 701 -21 l 701 208 l 690 217 q 525 41 615 103 q 342 -21 435 -21 m 438 828 q 314 864 368 828 q 229 967 260 900 l 247 974 q 293 906 265 933 q 358 863 321 878 q 438 849 394 849 q 518 863 482 849 q 582 906 554 878 q 628 974 610 933 l 646 967 q 561 864 615 900 q 438 828 507 828 z "},"û":{"ha":874,"x_min":56,"x_max":818,"o":"m 342 -21 q 200 40 247 -21 q 153 225 153 101 l 153 658 l 56 658 l 56 674 l 172 715 l 172 225 q 215 56 172 111 q 342 0 257 0 q 478 35 410 0 q 604 134 546 71 q 701 278 663 197 l 701 658 l 604 658 l 604 674 l 721 715 l 721 36 l 818 36 l 818 21 l 701 -21 l 701 208 l 690 217 q 525 41 615 103 q 342 -21 435 -21 m 240 814 l 229 825 l 426 988 l 449 988 l 646 825 l 633 814 l 438 972 l 240 814 z "},"ü":{"ha":874,"x_min":56,"x_max":818,"o":"m 342 -21 q 200 40 247 -21 q 153 225 153 101 l 153 658 l 56 658 l 56 674 l 172 715 l 172 225 q 215 56 172 111 q 342 0 257 0 q 478 35 410 0 q 604 134 546 71 q 701 278 663 197 l 701 658 l 604 658 l 604 674 l 721 715 l 721 36 l 818 36 l 818 21 l 701 -21 l 701 208 l 690 217 q 525 41 615 103 q 342 -21 435 -21 m 576 974 q 626 957 607 974 q 646 914 646 940 q 626 872 646 888 q 576 856 607 856 q 524 872 544 856 q 504 914 504 888 q 524 957 504 940 q 576 974 544 974 m 299 974 q 349 957 329 974 q 368 914 368 940 q 349 872 368 888 q 299 856 329 856 q 247 872 267 856 q 226 914 226 888 q 247 957 226 940 q 299 974 267 974 z "},"ù":{"ha":874,"x_min":56,"x_max":818,"o":"m 342 -21 q 200 40 247 -21 q 153 225 153 101 l 153 658 l 56 658 l 56 674 l 172 715 l 172 225 q 215 56 172 111 q 342 0 257 0 q 478 35 410 0 q 604 134 546 71 q 701 278 663 197 l 701 658 l 604 658 l 604 674 l 721 715 l 721 36 l 818 36 l 818 21 l 701 -21 l 701 208 l 690 217 q 525 41 615 103 q 342 -21 435 -21 m 493 814 l 285 986 l 299 1001 l 507 828 l 493 814 z "},"ű":{"ha":874,"x_min":56,"x_max":818,"o":"m 342 -21 q 200 40 247 -21 q 153 225 153 101 l 153 658 l 56 658 l 56 674 l 172 715 l 172 225 q 215 56 172 111 q 342 0 257 0 q 478 35 410 0 q 604 134 546 71 q 701 278 663 197 l 701 658 l 604 658 l 604 674 l 721 715 l 721 36 l 818 36 l 818 21 l 701 -21 l 701 208 l 690 217 q 525 41 615 103 q 342 -21 435 -21 m 549 814 l 535 828 l 743 1001 l 757 986 l 549 814 m 382 814 l 368 828 l 576 1001 l 590 986 l 382 814 z "},"ū":{"ha":874,"x_min":56,"x_max":818,"o":"m 342 -21 q 200 40 247 -21 q 153 225 153 101 l 153 658 l 56 658 l 56 674 l 172 715 l 172 225 q 215 56 172 111 q 342 0 257 0 q 478 35 410 0 q 604 134 546 71 q 701 278 663 197 l 701 658 l 604 658 l 604 674 l 721 715 l 721 36 l 818 36 l 818 21 l 701 -21 l 701 208 l 690 217 q 525 41 615 103 q 342 -21 435 -21 m 215 889 l 215 910 l 660 910 l 660 889 l 215 889 z "},"ų":{"ha":874,"x_min":56,"x_max":821,"o":"m 342 -21 q 200 40 247 -21 q 153 225 153 101 l 153 658 l 56 658 l 56 674 l 172 715 l 172 225 q 215 56 172 111 q 342 0 257 0 q 478 35 410 0 q 604 134 546 71 q 701 278 663 197 l 701 658 l 604 658 l 604 674 l 721 715 l 721 36 l 818 36 l 818 21 l 701 -21 l 701 208 l 690 217 q 525 41 615 103 q 342 -21 435 -21 m 772 6 q 631 -97 678 -47 q 583 -194 583 -146 q 608 -251 583 -229 q 669 -272 632 -272 q 745 -251 710 -272 q 811 -187 781 -231 l 821 -197 q 751 -268 790 -243 q 669 -293 713 -293 q 615 -281 639 -293 q 576 -246 590 -268 q 563 -194 563 -224 q 613 -87 563 -139 q 763 14 663 -35 l 772 6 z "},"ů":{"ha":874,"x_min":56,"x_max":818,"o":"m 342 -21 q 200 40 247 -21 q 153 225 153 101 l 153 658 l 56 658 l 56 674 l 172 715 l 172 225 q 215 56 172 111 q 342 0 257 0 q 478 35 410 0 q 604 134 546 71 q 701 278 663 197 l 701 658 l 604 658 l 604 674 l 721 715 l 721 36 l 818 36 l 818 21 l 701 -21 l 701 208 l 690 217 q 525 41 615 103 q 342 -21 435 -21 m 436 997 q 494 985 468 997 q 534 952 519 974 q 549 903 549 931 q 534 853 549 875 q 494 818 519 831 q 436 806 468 806 q 379 818 404 806 q 340 853 354 831 q 326 903 326 875 q 340 952 326 931 q 379 985 354 974 q 436 997 404 997 m 436 976 q 372 956 397 976 q 347 903 347 935 q 372 848 347 869 q 436 826 397 826 q 501 848 475 826 q 528 903 528 869 q 501 956 528 935 q 436 976 475 976 z "},"v":{"ha":790,"x_min":35,"x_max":749,"o":"m 392 0 l 129 667 l 35 681 l 35 694 l 251 694 l 251 681 l 151 668 l 397 38 l 410 38 l 611 607 q 613 615 613 610 q 614 624 614 619 q 606 651 614 640 q 581 668 599 661 q 533 678 563 675 q 460 681 503 681 l 460 694 l 749 694 l 749 681 l 653 667 l 413 0 l 392 0 z "},"w":{"ha":1207,"x_min":35,"x_max":1165,"o":"m 607 568 l 814 38 l 826 38 l 1028 607 q 1030 615 1029 610 q 1031 624 1031 619 q 1023 651 1031 640 q 997 668 1015 661 q 949 678 979 675 q 876 681 919 681 l 876 694 l 1165 694 l 1165 681 l 1069 667 l 829 0 l 808 0 l 596 540 l 607 568 m 392 0 l 129 667 l 35 681 l 35 694 l 251 694 l 251 681 l 151 668 l 397 38 l 410 38 l 611 607 q 613 615 613 610 q 614 624 614 619 q 606 651 614 640 q 581 668 599 661 q 533 678 563 675 q 460 681 503 681 l 460 694 l 749 694 l 749 681 l 653 667 l 413 0 l 392 0 z "},"ẃ":{"ha":1207,"x_min":35,"x_max":1165,"o":"m 607 568 l 814 38 l 826 38 l 1028 607 q 1030 615 1029 610 q 1031 624 1031 619 q 1023 651 1031 640 q 997 668 1015 661 q 949 678 979 675 q 876 681 919 681 l 876 694 l 1165 694 l 1165 681 l 1069 667 l 829 0 l 808 0 l 596 540 l 607 568 m 392 0 l 129 667 l 35 681 l 35 694 l 251 694 l 251 681 l 151 668 l 397 38 l 410 38 l 611 607 q 613 615 613 610 q 614 624 614 619 q 606 651 614 640 q 581 668 599 661 q 533 678 563 675 q 460 681 503 681 l 460 694 l 749 694 l 749 681 l 653 667 l 413 0 l 392 0 m 568 814 l 554 828 l 763 1001 l 776 986 l 568 814 z "},"ŵ":{"ha":1207,"x_min":35,"x_max":1165,"o":"m 607 568 l 814 38 l 826 38 l 1028 607 q 1030 615 1029 610 q 1031 624 1031 619 q 1023 651 1031 640 q 997 668 1015 661 q 949 678 979 675 q 876 681 919 681 l 876 694 l 1165 694 l 1165 681 l 1069 667 l 829 0 l 808 0 l 596 540 l 607 568 m 392 0 l 129 667 l 35 681 l 35 694 l 251 694 l 251 681 l 151 668 l 397 38 l 410 38 l 611 607 q 613 615 613 610 q 614 624 614 619 q 606 651 614 640 q 581 668 599 661 q 533 678 563 675 q 460 681 503 681 l 460 694 l 749 694 l 749 681 l 653 667 l 413 0 l 392 0 m 406 814 l 394 825 l 592 988 l 614 988 l 811 825 l 799 814 l 603 972 l 406 814 z "},"ẅ":{"ha":1207,"x_min":35,"x_max":1165,"o":"m 607 568 l 814 38 l 826 38 l 1028 607 q 1030 615 1029 610 q 1031 624 1031 619 q 1023 651 1031 640 q 997 668 1015 661 q 949 678 979 675 q 876 681 919 681 l 876 694 l 1165 694 l 1165 681 l 1069 667 l 829 0 l 808 0 l 596 540 l 607 568 m 392 0 l 129 667 l 35 681 l 35 694 l 251 694 l 251 681 l 151 668 l 397 38 l 410 38 l 611 607 q 613 615 613 610 q 614 624 614 619 q 606 651 614 640 q 581 668 599 661 q 533 678 563 675 q 460 681 503 681 l 460 694 l 749 694 l 749 681 l 653 667 l 413 0 l 392 0 m 742 974 q 792 957 772 974 q 811 914 811 940 q 792 872 811 888 q 742 856 772 856 q 690 872 710 856 q 669 914 669 888 q 690 957 669 940 q 742 974 710 974 m 464 974 q 514 957 494 974 q 533 914 533 940 q 514 872 533 888 q 464 856 494 856 q 412 872 432 856 q 392 914 392 888 q 412 957 392 940 q 464 974 432 974 z "},"ẁ":{"ha":1207,"x_min":35,"x_max":1165,"o":"m 607 568 l 814 38 l 826 38 l 1028 607 q 1030 615 1029 610 q 1031 624 1031 619 q 1023 651 1031 640 q 997 668 1015 661 q 949 678 979 675 q 876 681 919 681 l 876 694 l 1165 694 l 1165 681 l 1069 667 l 829 0 l 808 0 l 596 540 l 607 568 m 392 0 l 129 667 l 35 681 l 35 694 l 251 694 l 251 681 l 151 668 l 397 38 l 410 38 l 611 607 q 613 615 613 610 q 614 624 614 619 q 606 651 614 640 q 581 668 599 661 q 533 678 563 675 q 460 681 503 681 l 460 694 l 749 694 l 749 681 l 653 667 l 413 0 l 392 0 m 658 814 l 450 986 l 464 1001 l 672 828 l 658 814 z "},"x":{"ha":857,"x_min":76,"x_max":808,"o":"m 538 0 l 538 14 l 640 28 l 179 667 l 86 681 l 86 694 l 301 694 l 301 681 l 200 667 l 661 28 l 753 14 l 753 0 l 538 0 m 163 -21 q 115 -10 135 -21 q 86 18 96 1 q 76 51 76 35 q 88 87 76 74 q 119 107 100 100 q 156 114 138 114 q 180 110 168 114 q 201 101 192 107 q 215 85 210 94 q 221 64 221 76 q 220 51 221 57 q 219 40 219 44 q 218 29 218 35 q 228 17 218 17 q 273 59 242 17 q 345 173 304 101 q 428 332 386 244 l 450 307 l 432 307 q 326 113 372 185 q 242 10 281 40 q 163 -21 204 -21 m 728 581 q 688 590 703 581 q 668 612 674 599 q 663 635 663 625 q 664 649 663 643 q 666 659 665 654 q 667 667 667 664 q 660 672 667 672 q 609 626 643 672 q 532 500 575 579 q 446 322 489 421 l 428 349 l 440 349 q 556 567 507 486 q 645 681 604 647 q 728 715 686 715 q 774 705 756 715 q 800 678 792 694 q 808 644 808 663 q 799 613 808 628 q 772 590 790 599 q 728 581 754 581 z "},"y":{"ha":790,"x_min":35,"x_max":749,"o":"m 204 -299 q 132 -285 164 -299 q 81 -245 100 -271 q 63 -186 63 -219 q 69 -160 63 -171 q 85 -143 75 -150 q 108 -133 96 -136 q 135 -129 121 -129 q 169 -135 153 -129 q 197 -153 186 -142 q 207 -182 207 -164 q 199 -216 207 -200 q 176 -246 192 -232 q 162 -261 167 -256 q 157 -269 157 -267 q 204 -283 157 -283 q 256 -268 232 -283 q 300 -224 281 -253 q 343 -140 317 -200 q 396 0 369 -79 l 392 0 l 129 667 l 35 681 l 35 694 l 251 694 l 251 681 l 151 668 l 397 38 l 410 38 l 611 607 q 613 615 613 610 q 614 625 614 619 q 606 651 614 640 q 581 669 599 663 q 533 678 563 675 q 460 681 503 681 l 460 694 l 749 694 l 749 681 l 653 667 l 413 0 q 355 -148 382 -87 q 311 -235 328 -208 q 263 -282 290 -265 q 204 -299 236 -299 z "},"ý":{"ha":790,"x_min":35,"x_max":749,"o":"m 204 -299 q 132 -285 164 -299 q 81 -245 100 -271 q 63 -186 63 -219 q 69 -160 63 -171 q 85 -143 75 -150 q 108 -133 96 -136 q 135 -129 121 -129 q 169 -135 153 -129 q 197 -153 186 -142 q 207 -182 207 -164 q 199 -216 207 -200 q 176 -246 192 -232 q 162 -261 167 -256 q 157 -269 157 -267 q 204 -283 157 -283 q 256 -268 232 -283 q 300 -224 281 -253 q 343 -140 317 -200 q 396 0 369 -79 l 392 0 l 129 667 l 35 681 l 35 694 l 251 694 l 251 681 l 151 668 l 397 38 l 410 38 l 611 607 q 613 615 613 610 q 614 625 614 619 q 606 651 614 640 q 581 669 599 663 q 533 678 563 675 q 460 681 503 681 l 460 694 l 749 694 l 749 681 l 653 667 l 413 0 q 355 -148 382 -87 q 311 -235 328 -208 q 263 -282 290 -265 q 204 -299 236 -299 m 354 814 l 340 828 l 549 1001 l 563 986 l 354 814 z "},"ŷ":{"ha":790,"x_min":35,"x_max":749,"o":"m 204 -299 q 132 -285 164 -299 q 81 -245 100 -271 q 63 -186 63 -219 q 69 -160 63 -171 q 85 -143 75 -150 q 108 -133 96 -136 q 135 -129 121 -129 q 169 -135 153 -129 q 197 -153 186 -142 q 207 -182 207 -164 q 199 -216 207 -200 q 176 -246 192 -232 q 162 -261 167 -256 q 157 -269 157 -267 q 204 -283 157 -283 q 256 -268 232 -283 q 300 -224 281 -253 q 343 -140 317 -200 q 396 0 369 -79 l 392 0 l 129 667 l 35 681 l 35 694 l 251 694 l 251 681 l 151 668 l 397 38 l 410 38 l 611 607 q 613 615 613 610 q 614 625 614 619 q 606 651 614 640 q 581 669 599 663 q 533 678 563 675 q 460 681 503 681 l 460 694 l 749 694 l 749 681 l 653 667 l 413 0 q 355 -148 382 -87 q 311 -235 328 -208 q 263 -282 290 -265 q 204 -299 236 -299 m 192 814 l 181 825 l 378 988 l 400 988 l 597 825 l 585 814 l 389 972 l 192 814 z "},"ÿ":{"ha":790,"x_min":35,"x_max":749,"o":"m 204 -299 q 132 -285 164 -299 q 81 -245 100 -271 q 63 -186 63 -219 q 69 -160 63 -171 q 85 -143 75 -150 q 108 -133 96 -136 q 135 -129 121 -129 q 169 -135 153 -129 q 197 -153 186 -142 q 207 -182 207 -164 q 199 -216 207 -200 q 176 -246 192 -232 q 162 -261 167 -256 q 157 -269 157 -267 q 204 -283 157 -283 q 256 -268 232 -283 q 300 -224 281 -253 q 343 -140 317 -200 q 396 0 369 -79 l 392 0 l 129 667 l 35 681 l 35 694 l 251 694 l 251 681 l 151 668 l 397 38 l 410 38 l 611 607 q 613 615 613 610 q 614 625 614 619 q 606 651 614 640 q 581 669 599 663 q 533 678 563 675 q 460 681 503 681 l 460 694 l 749 694 l 749 681 l 653 667 l 413 0 q 355 -148 382 -87 q 311 -235 328 -208 q 263 -282 290 -265 q 204 -299 236 -299 m 528 974 q 578 957 558 974 q 597 914 597 940 q 578 872 597 888 q 528 856 558 856 q 476 872 496 856 q 456 914 456 888 q 476 957 456 940 q 528 974 496 974 m 250 974 q 300 957 281 974 q 319 914 319 940 q 300 872 319 888 q 250 856 281 856 q 198 872 218 856 q 178 914 178 888 q 198 957 178 940 q 250 974 218 974 z "},"ỳ":{"ha":790,"x_min":35,"x_max":749,"o":"m 204 -299 q 132 -285 164 -299 q 81 -245 100 -271 q 63 -186 63 -219 q 69 -160 63 -171 q 85 -143 75 -150 q 108 -133 96 -136 q 135 -129 121 -129 q 169 -135 153 -129 q 197 -153 186 -142 q 207 -182 207 -164 q 199 -216 207 -200 q 176 -246 192 -232 q 162 -261 167 -256 q 157 -269 157 -267 q 204 -283 157 -283 q 256 -268 232 -283 q 300 -224 281 -253 q 343 -140 317 -200 q 396 0 369 -79 l 392 0 l 129 667 l 35 681 l 35 694 l 251 694 l 251 681 l 151 668 l 397 38 l 410 38 l 611 607 q 613 615 613 610 q 614 625 614 619 q 606 651 614 640 q 581 669 599 663 q 533 678 563 675 q 460 681 503 681 l 460 694 l 749 694 l 749 681 l 653 667 l 413 0 q 355 -148 382 -87 q 311 -235 328 -208 q 263 -282 290 -265 q 204 -299 236 -299 m 444 814 l 236 986 l 250 1001 l 458 828 l 444 814 z "},"z":{"ha":738,"x_min":83,"x_max":654,"o":"m 83 0 l 608 674 l 213 674 q 177 653 190 674 q 175 563 164 632 l 193 453 l 179 453 l 114 694 l 653 694 l 126 21 l 540 21 q 585 47 568 21 q 590 150 601 72 l 578 236 l 592 236 l 654 0 l 83 0 z "},"ź":{"ha":738,"x_min":83,"x_max":654,"o":"m 83 0 l 608 674 l 213 674 q 177 653 190 674 q 175 563 164 632 l 193 453 l 179 453 l 114 694 l 653 694 l 126 21 l 540 21 q 585 47 568 21 q 590 150 601 72 l 578 236 l 592 236 l 654 0 l 83 0 m 357 814 l 343 828 l 551 1001 l 565 986 l 357 814 z "},"ž":{"ha":738,"x_min":83,"x_max":654,"o":"m 83 0 l 608 674 l 213 674 q 177 653 190 674 q 175 563 164 632 l 193 453 l 179 453 l 114 694 l 653 694 l 126 21 l 540 21 q 585 47 568 21 q 590 150 601 72 l 578 236 l 592 236 l 654 0 l 83 0 m 589 988 l 600 976 l 404 814 l 382 814 l 183 976 l 196 988 l 393 829 l 589 988 z "},"ż":{"ha":738,"x_min":83,"x_max":654,"o":"m 83 0 l 608 674 l 213 674 q 177 653 190 674 q 175 563 164 632 l 193 453 l 179 453 l 114 694 l 653 694 l 126 21 l 540 21 q 585 47 568 21 q 590 150 601 72 l 578 236 l 592 236 l 654 0 l 83 0 m 393 974 q 443 957 424 974 q 463 914 463 940 q 443 872 463 888 q 393 856 424 856 q 341 872 361 856 q 321 914 321 888 q 341 957 321 940 q 393 974 361 974 z "},"ﬁ":{"ha":856,"x_min":83,"x_max":758,"o":"m 83 0 l 83 14 l 181 28 l 181 667 l 83 667 l 83 681 l 181 694 q 172 801 175 751 q 169 885 169 850 q 183 953 169 925 q 228 1000 197 982 q 310 1026 260 1018 q 433 1035 361 1035 q 581 1012 515 1035 q 685 951 647 989 q 724 865 724 913 q 704 818 724 836 q 654 800 685 800 q 603 815 624 800 q 583 853 583 831 q 596 890 583 872 q 621 922 608 907 q 633 950 633 938 q 604 985 633 969 q 529 1010 575 1001 q 433 1019 483 1019 q 276 1001 329 1019 q 206 953 224 983 q 189 885 189 924 q 190 818 189 851 q 194 753 192 785 q 200 694 197 722 l 413 679 l 675 715 l 675 28 l 758 14 l 758 0 l 572 0 l 572 14 l 656 28 l 656 667 l 200 667 l 200 28 l 311 14 l 311 0 l 83 0 z "},"ﬂ":{"ha":828,"x_min":83,"x_max":758,"o":"m 83 0 l 83 14 l 181 28 l 181 667 l 83 667 l 83 681 l 181 694 q 172 801 175 751 q 169 885 169 850 q 195 972 169 939 q 278 1020 221 1006 q 433 1035 336 1035 q 499 1032 468 1035 q 557 1024 529 1029 q 610 1013 585 1019 l 675 1035 l 675 28 l 758 14 l 758 0 l 572 0 l 572 14 l 656 28 l 656 872 q 643 940 656 913 q 605 985 631 968 q 537 1011 579 1003 q 433 1019 494 1019 q 276 1001 329 1019 q 206 953 224 983 q 189 885 189 924 q 190 818 189 851 q 194 753 192 785 q 200 694 197 722 l 388 681 l 388 667 l 200 667 l 200 28 l 311 14 l 311 0 l 83 0 z "},"ª":{"ha":515,"x_min":83,"x_max":432,"o":"m 176 653 q 113 673 136 653 q 90 729 90 693 q 102 771 90 751 q 136 806 114 790 q 189 833 158 822 q 258 851 219 844 q 340 857 296 857 q 322 960 340 935 q 246 986 303 986 q 166 966 194 986 q 138 939 138 946 q 145 931 138 933 q 164 924 153 928 q 183 913 175 919 q 190 896 190 907 q 178 873 190 882 q 149 864 167 864 q 112 875 125 864 q 99 908 99 886 q 110 943 99 926 q 142 974 122 960 q 189 996 163 988 q 246 1004 215 1004 q 316 992 292 1004 q 349 948 340 979 q 358 857 358 917 l 358 722 q 365 682 358 693 q 383 671 371 671 q 405 675 394 671 q 422 685 415 679 l 422 671 q 413 662 421 671 q 383 653 404 653 q 355 661 364 653 q 343 690 346 669 q 340 749 340 710 l 328 756 q 256 679 294 706 q 176 653 218 653 m 83 585 l 83 603 l 432 603 l 432 585 l 83 585 m 176 671 q 238 690 207 671 q 297 744 269 710 q 340 818 325 778 l 340 839 q 220 825 272 839 q 138 786 168 811 q 108 729 108 761 q 126 687 108 703 q 176 671 144 671 z "},"º":{"ha":504,"x_min":83,"x_max":421,"o":"m 251 653 q 169 674 204 653 q 116 734 135 694 q 97 826 97 774 q 116 922 97 882 q 169 983 135 961 q 251 1004 204 1004 q 365 956 324 1004 q 407 826 407 908 q 388 734 407 774 q 335 674 369 694 q 251 653 300 653 m 83 585 l 83 603 l 421 603 l 421 585 l 83 585 m 251 674 q 350 715 314 674 q 386 826 386 756 q 370 910 386 875 q 324 964 354 944 q 251 983 293 983 q 154 941 190 983 q 118 826 118 899 q 134 745 118 779 q 181 692 150 711 q 251 674 211 674 z "},"μ":{"ha":1082,"x_min":28,"x_max":1054,"o":"m 149 -299 q 60 -261 92 -299 q 28 -158 28 -224 q 58 -11 28 -93 q 138 159 88 71 q 249 326 189 247 q 275 488 258 417 q 315 610 292 560 q 367 688 339 661 q 426 715 394 715 q 444 710 438 715 q 450 694 450 706 q 434 644 450 675 q 392 576 418 613 q 338 504 367 540 q 286 439 310 468 q 263 222 263 307 q 282 88 264 136 q 329 19 300 39 q 392 0 358 0 q 480 28 433 0 q 577 128 526 57 q 681 326 628 199 q 735 554 708 469 q 791 677 763 639 q 853 715 819 715 q 870 710 864 715 q 876 694 876 704 q 862 639 876 672 q 824 567 847 606 q 773 489 800 528 q 721 418 746 450 q 701 201 700 283 q 720 74 703 118 q 763 15 738 31 q 813 0 788 0 q 871 16 838 0 q 938 66 904 32 q 999 154 971 100 q 1040 283 1026 208 l 1054 283 q 999 115 1039 182 q 908 13 958 47 q 813 -21 858 -21 q 735 13 768 -21 q 689 116 703 47 q 686 290 675 185 l 681 290 q 544 58 622 136 q 392 -21 467 -21 q 309 10 346 -21 q 255 106 272 42 q 247 272 238 171 l 233 272 q 140 123 182 201 q 73 -28 97 44 q 49 -158 49 -101 q 74 -247 49 -217 q 149 -278 100 -278 q 214 -249 182 -278 q 246 -169 246 -221 q 260 -123 246 -139 q 299 -107 274 -107 q 333 -120 321 -107 q 346 -157 346 -133 q 319 -228 346 -196 q 249 -280 293 -261 q 149 -299 204 -299 z "},"⁄":{"ha":400,"x_min":28,"x_max":372,"o":"m 28 -21 l 351 1004 l 372 1004 l 49 -21 l 28 -21 z "},"½":{"ha":739,"x_min":69,"x_max":669,"o":"m 69 585 l 69 599 l 110 606 l 110 949 l 69 949 l 69 961 l 111 983 l 128 983 l 128 606 l 169 599 l 169 585 l 69 585 m 424 -21 q 402 -13 413 -21 q 392 13 392 -6 q 406 65 392 43 q 442 106 419 88 q 490 142 464 125 q 615 236 581 199 q 649 317 649 274 q 636 359 649 342 q 599 385 624 376 q 539 394 575 394 q 477 386 506 394 q 431 364 449 378 q 414 333 414 350 q 422 322 414 326 q 442 314 431 318 q 463 305 454 310 q 471 290 471 300 q 457 270 471 276 q 428 264 443 264 q 401 276 410 264 q 392 304 392 289 q 409 353 392 328 q 460 395 426 378 q 539 413 493 413 q 608 401 579 413 q 651 368 636 389 q 667 317 667 347 q 630 222 667 258 q 547 158 593 186 q 487 122 521 143 q 435 76 453 100 l 446 69 q 457 62 450 67 q 474 50 464 57 q 496 35 485 43 q 523 19 508 28 q 554 3 538 10 q 585 -3 571 -3 q 638 24 619 -3 q 656 103 656 51 l 669 103 q 647 11 669 43 q 585 -21 625 -21 q 538 -8 563 -21 q 489 21 513 4 q 447 50 465 38 q 418 63 428 63 q 414 57 414 63 q 423 40 414 50 q 441 19 432 31 q 450 -1 450 8 q 442 -16 450 -11 q 424 -21 435 -21 m 119 -21 l 443 1004 l 464 1004 l 140 -21 l 119 -21 z "},"¼":{"ha":697,"x_min":69,"x_max":628,"o":"m 69 585 l 69 599 l 110 606 l 110 949 l 69 949 l 69 961 l 111 983 l 128 983 l 128 606 l 169 599 l 169 585 l 69 585 m 363 113 l 363 133 q 405 164 383 144 q 442 207 426 183 q 460 249 453 225 q 467 294 467 272 q 458 338 467 322 q 439 361 450 353 q 419 376 428 369 q 411 393 411 382 q 420 413 411 406 q 443 419 429 419 q 477 392 465 419 q 489 317 489 365 q 481 255 489 288 q 456 197 472 222 q 422 158 442 175 q 376 129 403 140 l 376 122 l 544 129 l 544 319 l 558 419 l 563 419 l 563 131 l 628 133 l 628 113 l 563 113 l 563 21 l 617 14 l 617 0 l 489 0 l 489 14 l 544 21 l 544 113 l 363 113 m 119 -21 l 443 1004 l 464 1004 l 140 -21 l 119 -21 z "},"¾":{"ha":850,"x_min":69,"x_max":781,"o":"m 203 571 q 127 588 157 571 q 83 630 97 604 q 69 679 69 656 q 82 707 69 694 q 113 719 94 719 q 140 710 128 719 q 151 686 151 701 q 142 670 151 675 q 121 663 133 665 q 99 658 108 661 q 90 646 90 654 q 107 619 90 632 q 149 597 124 606 q 203 589 175 589 q 297 614 264 589 q 331 686 331 639 q 313 736 331 713 q 265 776 296 760 q 193 792 235 792 l 179 792 l 179 813 q 292 844 253 813 q 331 910 331 876 q 300 967 331 947 q 215 986 269 986 q 155 978 183 986 q 109 956 126 969 q 92 928 92 943 q 101 918 92 921 q 122 913 110 915 q 142 906 133 911 q 151 890 151 901 q 140 866 151 875 q 113 857 128 857 q 82 869 94 857 q 69 897 69 881 q 85 945 69 921 q 133 987 101 969 q 215 1004 165 1004 q 313 979 276 1004 q 349 910 349 954 q 332 860 349 882 q 292 824 315 838 q 244 807 268 811 l 244 800 q 292 782 268 794 q 332 747 315 769 q 349 686 349 724 q 339 638 349 660 q 310 601 329 617 q 265 578 292 586 q 203 571 238 571 m 515 113 l 515 133 q 558 164 536 144 q 594 207 579 183 q 613 249 606 225 q 619 294 619 272 q 611 338 619 322 q 592 361 603 353 q 572 376 581 369 q 564 393 564 382 q 573 413 564 406 q 596 419 582 419 q 630 392 618 419 q 642 317 642 365 q 633 255 642 288 q 608 197 625 222 q 575 158 594 175 q 529 129 556 140 l 529 122 l 697 129 l 697 319 l 711 419 l 715 419 l 715 131 l 781 133 l 781 113 l 715 113 l 715 21 l 769 14 l 769 0 l 642 0 l 642 14 l 697 21 l 697 113 l 515 113 m 272 -21 l 596 1004 l 617 1004 l 293 -21 l 272 -21 z "},"¹":{"ha":239,"x_min":69,"x_max":169,"o":"m 69 585 l 69 599 l 110 606 l 110 949 l 69 949 l 69 961 l 111 983 l 128 983 l 128 606 l 169 599 l 169 585 l 69 585 z "},"²":{"ha":389,"x_min":56,"x_max":333,"o":"m 88 571 q 66 578 76 571 q 56 604 56 586 q 69 657 56 635 q 106 698 83 679 q 154 733 128 717 q 278 828 244 790 q 313 908 313 865 q 300 951 313 933 q 263 977 288 968 q 203 986 239 986 q 141 978 169 986 q 95 956 113 969 q 78 925 78 942 q 86 914 78 918 q 106 906 94 910 q 126 897 118 901 q 135 882 135 892 q 121 862 135 868 q 92 856 107 856 q 65 868 74 856 q 56 896 56 881 q 73 944 56 919 q 124 987 90 969 q 203 1004 157 1004 q 272 992 243 1004 q 315 960 300 981 q 331 908 331 939 q 294 814 331 850 q 211 750 257 778 q 151 713 185 735 q 99 668 117 692 l 110 661 q 121 653 114 658 q 138 642 128 649 q 160 626 149 635 q 187 610 172 619 q 218 595 201 601 q 249 589 235 589 q 301 616 283 589 q 319 694 319 643 l 333 694 q 311 603 333 635 q 249 571 289 571 q 201 583 226 571 q 153 613 176 596 q 110 642 129 629 q 82 654 92 654 q 78 649 78 654 q 87 632 78 642 q 105 611 96 622 q 114 590 114 600 q 106 576 114 581 q 88 571 99 571 z "},"³":{"ha":390,"x_min":56,"x_max":335,"o":"m 189 571 q 113 588 143 571 q 69 630 83 604 q 56 679 56 656 q 68 707 56 694 q 99 719 81 719 q 126 710 114 719 q 138 686 138 701 q 128 670 138 675 q 107 663 119 665 q 85 658 94 661 q 76 646 76 654 q 93 619 76 632 q 135 597 110 606 q 189 589 161 589 q 283 614 250 589 q 317 686 317 639 q 299 736 317 713 q 251 776 282 760 q 179 792 221 792 l 165 792 l 165 813 q 278 844 239 813 q 317 910 317 876 q 286 967 317 947 q 201 986 256 986 q 141 978 169 986 q 95 956 113 969 q 78 928 78 943 q 87 918 78 921 q 108 913 96 915 q 128 906 119 911 q 138 890 138 901 q 126 866 138 875 q 99 857 114 857 q 68 869 81 857 q 56 897 56 881 q 72 945 56 921 q 119 987 88 969 q 201 1004 151 1004 q 299 979 263 1004 q 335 910 335 954 q 318 860 335 882 q 278 824 301 838 q 231 807 254 811 l 231 800 q 278 782 254 794 q 318 747 301 769 q 335 686 335 724 q 325 638 335 660 q 297 601 315 617 q 251 578 278 586 q 189 571 224 571 z "},"⁴":{"ha":376,"x_min":56,"x_max":321,"o":"m 56 697 l 56 718 q 98 749 76 729 q 135 792 119 768 q 153 833 146 810 q 160 879 160 857 q 151 922 160 907 q 132 946 143 938 q 113 960 121 954 q 104 978 104 967 q 113 997 104 990 q 136 1004 122 1004 q 170 977 158 1004 q 182 901 182 950 q 174 840 182 872 q 149 782 165 807 q 115 742 135 760 q 69 714 96 725 l 69 707 l 238 714 l 238 904 l 251 1004 l 256 1004 l 256 715 l 321 718 l 321 697 l 256 697 l 256 606 l 310 599 l 310 585 l 182 585 l 182 599 l 238 606 l 238 697 l 56 697 z "}," ":{"ha":417,"x_min":0,"x_max":0,"o":""}," ":{"ha":417,"x_min":0,"x_max":0,"o":""}," ":{"ha":917,"x_min":0,"x_max":0,"o":""}," ":{"ha":183,"x_min":0,"x_max":0,"o":""},"​":{"ha":0,"x_min":0,"x_max":0,"o":""},"﻿":{"ha":0,"x_min":0,"x_max":0,"o":""},"\r":{"ha":833,"x_min":0,"x_max":0,"o":""},".":{"ha":275,"x_min":69,"x_max":206,"o":"m 139 104 q 169 97 154 104 q 195 77 185 90 q 206 42 206 64 q 195 7 206 21 q 169 -14 185 -7 q 139 -21 154 -21 q 107 -14 124 -21 q 80 7 90 -7 q 69 42 69 21 q 80 77 69 64 q 107 97 90 90 q 139 104 124 104 z "},",":{"ha":282,"x_min":69,"x_max":213,"o":"m 75 -111 l 69 -99 q 106 -81 89 -90 q 138 -58 124 -71 q 161 -33 153 -46 l 147 -21 l 142 -21 q 108 -12 122 -21 q 85 10 93 -4 q 76 44 76 25 q 85 76 76 63 q 110 97 94 89 q 146 104 126 104 q 181 96 165 104 q 204 74 196 88 q 213 42 213 60 q 204 -3 213 18 q 178 -44 196 -25 q 135 -81 161 -64 q 75 -111 110 -97 z "},":":{"ha":275,"x_min":69,"x_max":206,"o":"m 139 106 q 169 99 154 106 q 195 78 185 92 q 206 43 206 65 q 195 8 206 22 q 169 -12 185 -6 q 139 -19 154 -19 q 107 -12 124 -19 q 80 8 90 -6 q 69 43 69 22 q 80 78 69 65 q 107 99 90 92 q 139 106 124 106 m 139 563 q 169 556 154 563 q 195 535 185 549 q 206 500 206 522 q 195 465 206 479 q 169 444 185 451 q 139 438 154 438 q 107 444 124 438 q 80 465 90 451 q 69 500 69 479 q 80 535 69 522 q 107 556 90 549 q 139 563 124 563 z "},";":{"ha":282,"x_min":69,"x_max":213,"o":"m 75 -111 l 69 -99 q 106 -81 89 -90 q 138 -58 124 -71 q 161 -33 153 -46 l 147 -21 l 142 -21 q 108 -12 122 -21 q 85 10 93 -4 q 76 44 76 25 q 85 76 76 63 q 110 97 94 89 q 146 104 126 104 q 181 96 165 104 q 204 74 196 88 q 213 42 213 60 q 204 -3 213 18 q 178 -44 196 -25 q 135 -81 161 -64 q 75 -111 110 -97 m 139 563 q 169 556 154 563 q 195 535 185 549 q 206 500 206 522 q 195 465 206 479 q 169 444 185 451 q 139 438 154 438 q 107 444 124 438 q 80 465 90 451 q 69 500 69 479 q 80 535 69 522 q 107 556 90 549 q 139 563 124 563 z "},"…":{"ha":714,"x_min":69,"x_max":644,"o":"m 139 104 q 169 97 154 104 q 195 77 185 90 q 206 42 206 64 q 195 7 206 21 q 169 -14 185 -7 q 139 -21 154 -21 q 107 -14 124 -21 q 80 7 90 -7 q 69 42 69 21 q 80 77 69 64 q 107 97 90 90 q 139 104 124 104 m 358 104 q 389 97 374 104 q 415 77 404 90 q 425 42 425 64 q 415 7 425 21 q 389 -14 404 -7 q 358 -21 374 -21 q 326 -14 343 -21 q 299 7 310 -7 q 289 42 289 21 q 299 77 289 64 q 326 97 310 90 q 358 104 343 104 m 578 104 q 608 97 593 104 q 634 77 624 90 q 644 42 644 64 q 634 7 644 21 q 608 -14 624 -7 q 578 -21 593 -21 q 546 -14 563 -21 q 519 7 529 -7 q 508 42 508 21 q 519 77 508 64 q 546 97 529 90 q 578 104 563 104 z "},"!":{"ha":469,"x_min":167,"x_max":303,"o":"m 236 1132 q 254 1118 247 1132 q 261 1081 261 1104 q 260 1023 261 1053 q 256 953 258 993 q 251 858 253 914 q 246 723 249 801 q 242 536 243 644 q 240 282 240 428 l 229 282 q 228 536 229 428 q 224 724 226 644 q 219 859 221 803 q 214 955 217 915 q 210 1024 211 994 q 208 1081 208 1054 q 216 1118 208 1104 q 236 1132 224 1132 m 236 104 q 267 97 251 104 q 292 77 282 90 q 303 42 303 64 q 292 7 303 21 q 267 -14 282 -7 q 236 -21 251 -21 q 204 -14 221 -21 q 177 7 188 -7 q 167 42 167 21 q 177 77 167 64 q 204 97 188 90 q 236 104 221 104 z "},"¡":{"ha":469,"x_min":167,"x_max":303,"o":"m 236 -299 q 216 -284 224 -299 q 208 -247 208 -269 q 210 -191 208 -221 q 214 -122 211 -161 q 219 -26 217 -82 q 224 110 221 31 q 228 298 226 189 q 229 551 229 407 l 240 551 q 242 298 240 407 q 246 110 243 189 q 251 -24 249 32 q 256 -120 253 -81 q 260 -190 258 -160 q 261 -247 261 -219 q 254 -284 261 -269 q 236 -299 247 -299 m 236 829 q 267 822 251 829 q 292 802 282 815 q 303 767 303 789 q 292 733 303 747 q 267 711 282 718 q 236 704 251 704 q 204 711 221 704 q 177 733 188 718 q 167 767 167 747 q 177 802 167 789 q 204 822 188 815 q 236 829 221 829 z "},"?":{"ha":692,"x_min":42,"x_max":650,"o":"m 368 1132 q 520 1099 457 1132 q 617 1002 583 1065 q 650 850 650 939 q 636 751 650 796 q 590 664 622 707 q 503 569 558 621 q 374 444 422 496 q 306 354 326 393 q 286 281 286 315 l 265 281 q 266 290 265 285 q 267 299 267 294 q 288 364 267 328 q 357 453 308 400 q 489 585 406 507 q 572 676 542 635 q 616 759 603 718 q 629 850 629 800 q 598 990 629 932 q 508 1080 567 1049 q 368 1111 450 1111 q 153 1049 231 1111 q 79 872 75 988 l 83 754 l 69 754 l 42 1003 q 129 1069 82 1040 q 235 1115 176 1099 q 368 1132 294 1132 m 282 104 q 313 97 297 104 q 338 77 328 90 q 349 42 349 64 q 338 7 349 21 q 313 -14 328 -7 q 282 -21 297 -21 q 250 -14 267 -21 q 223 7 233 -7 q 213 42 213 21 q 223 77 213 64 q 250 97 233 90 q 282 104 267 104 z "},"¿":{"ha":692,"x_min":42,"x_max":650,"o":"m 324 -299 q 172 -265 235 -299 q 75 -169 108 -232 q 42 -17 42 -106 q 56 82 42 38 q 101 169 69 126 q 189 264 133 213 q 318 389 271 338 q 385 479 365 440 q 406 553 406 518 l 426 553 q 426 544 426 549 q 425 535 425 539 q 404 469 425 506 q 335 381 383 433 q 203 249 286 328 q 119 158 150 199 q 76 75 89 117 q 63 -17 63 33 q 94 -157 63 -99 q 183 -247 125 -215 q 324 -278 242 -278 q 539 -215 461 -278 q 613 -39 617 -153 l 608 79 l 622 79 l 650 -169 q 563 -235 610 -206 q 457 -282 515 -265 q 324 -299 399 -299 m 414 831 q 444 824 429 831 q 470 803 460 817 q 481 768 481 790 q 470 734 481 749 q 444 713 460 719 q 414 706 429 706 q 382 713 399 706 q 355 734 365 719 q 344 768 344 749 q 355 803 344 790 q 382 824 365 817 q 414 831 399 831 z "},"·":{"ha":386,"x_min":125,"x_max":261,"o":"m 194 464 q 225 457 210 464 q 251 437 240 450 q 261 401 261 424 q 251 367 261 381 q 225 346 240 353 q 194 339 210 339 q 163 346 179 339 q 135 367 146 353 q 125 401 125 381 q 135 437 125 424 q 163 457 146 450 q 194 464 179 464 z "},"•":{"ha":438,"x_min":139,"x_max":299,"o":"m 219 507 q 261 497 243 507 q 289 471 279 488 q 299 433 299 454 q 289 397 299 414 q 261 371 279 381 q 219 361 243 361 q 178 371 196 361 q 149 397 160 381 q 139 433 139 414 q 149 471 139 454 q 178 497 160 488 q 219 507 196 507 z "},"*":{"ha":624,"x_min":138,"x_max":485,"o":"m 311 628 q 282 640 293 628 q 271 671 271 651 q 276 698 271 685 q 288 724 281 711 q 299 750 294 736 q 304 781 304 764 q 299 796 304 792 q 281 793 294 800 q 253 769 264 785 q 232 740 242 754 q 210 715 222 725 q 179 704 199 704 q 149 716 161 704 q 138 746 138 728 q 154 779 138 767 q 197 792 171 792 q 222 793 208 792 q 249 797 236 794 q 272 806 263 800 q 287 819 288 814 q 272 833 286 825 q 249 842 263 839 q 222 846 236 844 q 197 847 208 847 q 154 860 171 847 q 138 893 138 872 q 149 923 138 911 q 179 935 161 935 q 210 924 199 935 q 232 899 222 914 q 253 869 242 885 q 281 846 264 854 q 299 843 294 839 q 304 858 304 847 q 299 888 304 874 q 288 916 294 903 q 276 942 281 929 q 271 968 271 956 q 282 999 271 988 q 311 1011 293 1011 q 341 999 331 1011 q 351 968 351 988 q 347 941 351 954 q 335 915 342 928 q 323 889 328 903 q 318 858 318 875 q 323 843 318 847 q 342 846 328 839 q 369 869 358 854 q 390 899 381 885 q 413 924 400 914 q 443 935 425 935 q 473 923 461 935 q 485 893 485 911 q 468 860 485 872 q 425 847 451 847 q 400 846 414 847 q 373 842 386 844 q 350 833 360 839 q 336 819 336 825 q 350 806 336 814 q 373 797 360 800 q 400 793 386 794 q 425 792 414 792 q 468 779 451 792 q 485 746 485 767 q 473 716 485 728 q 443 704 461 704 q 417 711 428 704 q 399 728 407 718 q 382 751 390 739 q 364 775 374 764 q 342 793 354 786 q 323 796 328 800 q 318 781 318 792 q 323 751 318 765 q 335 723 328 736 q 347 697 342 710 q 351 671 351 683 q 341 640 351 651 q 311 628 331 628 z "},"#":{"ha":994,"x_min":56,"x_max":939,"o":"m 272 0 l 253 0 l 431 983 l 453 983 l 272 0 m 563 0 l 543 0 l 721 983 l 743 983 l 563 0 m 56 376 l 60 397 l 885 397 l 882 376 l 56 376 m 935 674 l 110 674 l 114 694 l 939 694 l 935 674 z "},"/":{"ha":400,"x_min":28,"x_max":372,"o":"m 28 -21 l 351 1004 l 372 1004 l 49 -21 l 28 -21 z "},"\\":{"ha":400,"x_min":28,"x_max":372,"o":"m 372 -21 l 351 -21 l 28 1004 l 49 1004 l 372 -21 z "},"-":{"ha":639,"x_min":83,"x_max":556,"o":"m 83 406 l 83 428 l 556 428 l 556 406 l 83 406 z "},"–":{"ha":917,"x_min":83,"x_max":833,"o":"m 83 406 l 83 428 l 833 428 l 833 406 l 83 406 z "},"—":{"ha":1125,"x_min":83,"x_max":1042,"o":"m 83 406 l 83 428 l 1042 428 l 1042 406 l 83 406 z "},"_":{"ha":806,"x_min":28,"x_max":778,"o":"m 28 -122 l 28 -100 l 778 -100 l 778 -122 l 28 -122 z "},"(":{"ha":610,"x_min":139,"x_max":526,"o":"m 522 -119 q 410 -80 463 -107 q 316 -11 358 -53 q 240 85 274 31 q 185 204 207 139 q 151 347 163 269 q 139 510 139 424 q 185 814 139 683 q 317 1026 231 944 q 522 1132 403 1107 l 526 1111 q 329 1003 411 1083 q 204 797 247 922 q 161 510 161 672 q 204 221 161 347 q 329 13 247 94 q 526 -99 411 -69 l 522 -119 z "},")":{"ha":610,"x_min":83,"x_max":471,"o":"m 88 -119 l 83 -99 q 281 13 199 -69 q 406 221 363 94 q 449 510 449 347 q 406 797 449 672 q 281 1003 363 922 q 83 1111 199 1083 l 88 1132 q 294 1026 208 1107 q 425 814 379 944 q 471 510 471 683 q 459 347 471 424 q 425 204 447 269 q 369 85 403 139 q 294 -11 336 31 q 199 -80 251 -53 q 88 -119 147 -107 z "},"{":{"ha":746,"x_min":139,"x_max":663,"o":"m 457 1132 q 513 1127 486 1132 q 565 1113 539 1122 q 615 1090 590 1104 q 663 1057 639 1076 l 657 1042 q 552 1094 601 1078 q 457 1111 503 1111 q 312 1074 364 1111 q 260 968 260 1036 q 280 880 260 926 q 327 785 300 833 q 374 690 354 738 q 394 601 394 643 q 378 546 394 576 q 320 494 361 515 q 203 472 279 472 q 324 450 282 472 q 381 396 365 428 q 396 332 396 364 q 382 270 396 304 q 348 198 368 236 q 307 122 328 160 q 272 50 286 85 q 258 -12 258 15 q 281 -99 258 -62 q 344 -154 303 -135 q 443 -174 385 -174 q 518 -165 481 -174 q 591 -141 556 -157 q 657 -104 626 -125 l 663 -119 q 616 -151 642 -137 q 562 -175 590 -165 q 503 -190 533 -185 q 443 -194 474 -194 q 333 -173 379 -194 q 262 -110 286 -151 q 238 -12 238 -69 q 258 80 238 35 q 306 168 279 125 q 354 252 333 211 q 375 332 375 293 q 355 397 375 372 q 304 435 335 422 q 240 454 274 449 q 178 460 206 460 l 139 458 l 140 488 l 178 486 q 240 490 207 486 q 304 507 274 494 q 354 542 335 519 q 374 601 374 565 q 353 690 374 646 q 306 779 333 735 q 259 871 279 824 q 239 968 239 918 q 265 1056 239 1019 q 340 1113 290 1093 q 457 1132 389 1132 z "},"}":{"ha":746,"x_min":83,"x_max":607,"o":"m 289 1132 q 407 1113 358 1132 q 481 1056 456 1093 q 507 968 507 1019 q 487 871 507 918 q 440 779 467 824 q 392 690 413 735 q 372 601 372 646 q 392 542 372 565 q 442 507 411 519 q 506 490 472 494 q 568 486 539 486 l 606 488 l 607 458 l 568 460 q 506 454 540 460 q 442 435 472 449 q 391 397 411 422 q 371 332 371 372 q 392 252 371 293 q 440 168 413 211 q 488 80 467 125 q 508 -12 508 35 q 484 -110 508 -69 q 414 -173 460 -151 q 303 -194 368 -194 q 242 -190 272 -194 q 184 -175 213 -185 q 130 -151 156 -165 q 83 -119 104 -137 l 89 -104 q 155 -141 119 -125 q 228 -165 190 -157 q 303 -174 267 -174 q 402 -154 361 -174 q 465 -99 443 -135 q 488 -12 488 -62 q 474 50 488 15 q 440 122 460 85 q 399 198 419 160 q 364 270 378 236 q 350 332 350 304 q 365 396 350 364 q 423 450 381 428 q 543 472 465 472 q 426 494 468 472 q 368 546 385 515 q 351 601 351 576 q 372 690 351 643 q 419 785 392 738 q 466 880 446 833 q 486 968 486 926 q 434 1074 486 1036 q 289 1111 382 1111 q 194 1094 243 1111 q 89 1042 144 1078 l 83 1057 q 131 1090 107 1076 q 181 1113 156 1104 q 233 1127 207 1122 q 289 1132 260 1132 z "},"[":{"ha":524,"x_min":208,"x_max":385,"o":"m 385 1111 l 385 1090 l 229 1090 l 229 -146 l 385 -146 l 385 -167 l 208 -167 l 208 1111 l 385 1111 z "},"]":{"ha":524,"x_min":139,"x_max":315,"o":"m 139 1111 l 315 1111 l 315 -167 l 139 -167 l 139 -146 l 294 -146 l 294 1090 l 139 1090 l 139 1111 z "},"‚":{"ha":282,"x_min":69,"x_max":213,"o":"m 75 -111 l 69 -99 q 106 -81 89 -90 q 138 -58 124 -71 q 161 -33 153 -46 l 147 -21 l 142 -21 q 108 -12 122 -21 q 85 10 93 -4 q 76 44 76 25 q 85 76 76 63 q 110 97 94 89 q 146 104 126 104 q 181 96 165 104 q 204 74 196 88 q 213 42 213 60 q 204 -3 213 18 q 178 -44 196 -25 q 135 -81 161 -64 q 75 -111 110 -97 z "},"„":{"ha":474,"x_min":69,"x_max":404,"o":"m 75 -111 l 69 -99 q 106 -81 89 -90 q 138 -58 124 -71 q 161 -33 153 -46 l 147 -21 l 142 -21 q 108 -12 122 -21 q 85 10 93 -4 q 76 44 76 25 q 85 76 76 63 q 110 97 94 89 q 146 104 126 104 q 181 96 165 104 q 204 74 196 88 q 213 42 213 60 q 204 -3 213 18 q 178 -44 196 -25 q 135 -81 161 -64 q 75 -111 110 -97 m 267 -111 l 261 -99 q 298 -81 281 -90 q 330 -58 315 -71 q 353 -33 344 -46 l 339 -21 l 333 -21 q 299 -12 314 -21 q 276 10 285 -4 q 268 44 268 25 q 277 76 268 63 q 302 97 286 89 q 338 104 318 104 q 372 96 357 104 q 396 74 388 88 q 404 42 404 60 q 396 -3 404 18 q 370 -44 388 -25 q 327 -81 353 -64 q 267 -111 301 -97 z "},"“":{"ha":572,"x_min":111,"x_max":461,"o":"m 456 1004 l 461 992 q 425 974 443 985 q 392 952 407 964 q 369 926 378 940 l 383 914 l 389 914 q 423 906 408 914 q 446 883 438 897 q 454 849 454 868 q 445 818 454 832 q 421 797 436 804 q 385 789 406 789 q 350 798 365 789 q 326 822 335 807 q 318 854 318 836 q 326 900 318 879 q 352 940 335 921 q 395 974 369 958 q 456 1004 421 990 m 249 1004 l 254 992 q 218 974 236 985 q 185 952 200 964 q 163 926 171 940 l 176 914 l 182 914 q 216 906 201 914 q 239 883 231 897 q 247 849 247 868 q 238 818 247 832 q 214 797 229 804 q 178 789 199 789 q 143 798 158 789 q 119 822 128 807 q 111 854 111 836 q 119 900 111 879 q 145 940 128 921 q 188 974 163 958 q 249 1004 214 990 z "},"”":{"ha":574,"x_min":111,"x_max":463,"o":"m 117 789 l 111 801 q 148 819 131 810 q 180 842 165 829 q 203 867 194 854 l 189 879 l 183 879 q 149 888 164 879 q 126 910 135 896 q 118 944 118 925 q 127 976 118 963 q 152 997 136 989 q 188 1004 168 1004 q 222 996 207 1004 q 246 974 238 988 q 254 942 254 960 q 246 895 254 917 q 220 854 238 874 q 177 819 203 835 q 117 789 151 803 m 325 789 l 319 801 q 356 819 339 810 q 388 842 374 829 q 411 867 403 854 l 397 879 l 392 879 q 358 888 372 879 q 335 910 343 896 q 326 944 326 925 q 335 976 326 963 q 360 997 344 989 q 396 1004 376 1004 q 431 996 415 1004 q 454 974 446 988 q 463 942 463 960 q 454 895 463 917 q 428 854 446 874 q 385 819 411 835 q 325 789 360 803 z "},"‘":{"ha":365,"x_min":111,"x_max":254,"o":"m 249 1004 l 254 992 q 218 974 236 985 q 185 952 200 964 q 163 926 171 940 l 176 914 l 182 914 q 216 906 201 914 q 239 883 231 897 q 247 849 247 868 q 238 818 247 832 q 214 797 229 804 q 178 789 199 789 q 143 798 158 789 q 119 822 128 807 q 111 854 111 836 q 119 900 111 879 q 145 940 128 921 q 188 974 163 958 q 249 1004 214 990 z "},"’":{"ha":365,"x_min":111,"x_max":254,"o":"m 117 789 l 111 801 q 148 819 131 810 q 180 842 165 829 q 203 867 194 854 l 189 879 l 183 879 q 149 888 164 879 q 126 910 135 896 q 118 944 118 925 q 127 976 118 963 q 152 997 136 989 q 188 1004 168 1004 q 222 996 207 1004 q 246 974 238 988 q 254 942 254 960 q 246 895 254 917 q 220 854 238 874 q 177 819 203 835 q 117 789 151 803 z "},"«":{"ha":835,"x_min":111,"x_max":724,"o":"m 436 667 l 446 653 l 147 442 l 147 419 l 446 208 l 436 194 l 111 417 l 111 444 l 436 667 m 714 667 l 724 653 l 425 442 l 425 419 l 724 208 l 714 194 l 389 417 l 389 444 l 714 667 z "},"»":{"ha":835,"x_min":111,"x_max":724,"o":"m 399 667 l 724 444 l 724 417 l 399 194 l 389 208 l 688 419 l 688 442 l 389 653 l 399 667 m 121 667 l 446 444 l 446 417 l 121 194 l 111 208 l 410 419 l 410 442 l 111 653 l 121 667 z "},"‹":{"ha":557,"x_min":111,"x_max":446,"o":"m 436 667 l 446 653 l 147 442 l 147 419 l 446 208 l 436 194 l 111 417 l 111 444 l 436 667 z "},"›":{"ha":557,"x_min":111,"x_max":446,"o":"m 121 667 l 446 444 l 446 417 l 121 194 l 111 208 l 410 419 l 410 442 l 111 653 l 121 667 z "},"\"":{"ha":363,"x_min":97,"x_max":265,"o":"m 103 657 l 97 983 l 121 983 l 115 657 l 103 657 m 247 657 l 242 983 l 265 983 l 260 657 l 247 657 z "},"'":{"ha":218,"x_min":97,"x_max":121,"o":"m 103 657 l 97 983 l 121 983 l 115 657 l 103 657 z "},"ƒ":{"ha":660,"x_min":-7,"x_max":632,"o":"m 247 0 l 365 667 l 268 667 l 268 681 l 365 694 q 357 801 360 751 q 354 885 354 850 q 369 970 354 938 q 414 1019 383 1003 q 492 1035 444 1035 q 548 1027 522 1035 q 592 1004 574 1019 q 622 968 611 989 q 632 922 632 947 q 622 890 632 903 q 594 872 611 878 q 560 865 578 865 q 510 878 533 865 q 488 918 488 892 q 495 949 488 936 q 513 972 503 963 q 530 990 522 982 q 538 1007 538 999 q 528 1017 538 1014 q 492 1019 518 1019 q 402 987 431 1019 q 374 885 374 954 q 375 818 374 851 q 379 753 376 785 q 385 694 382 722 l 572 681 l 572 667 l 385 667 l 267 0 q 264 -54 263 -28 q 268 -104 265 -81 q 271 -149 271 -128 q 256 -233 271 -200 q 212 -283 242 -267 q 133 -299 182 -299 q 77 -291 103 -299 q 33 -268 51 -283 q 3 -232 14 -253 q -7 -186 -7 -211 q 3 -154 -7 -167 q 31 -135 14 -142 q 65 -129 47 -129 q 115 -142 93 -129 q 138 -182 138 -156 q 130 -213 138 -200 q 113 -236 122 -226 q 95 -254 103 -246 q 88 -271 88 -262 q 97 -280 88 -276 q 133 -283 107 -283 q 223 -251 194 -283 q 251 -149 251 -218 q 249 -104 251 -128 q 244 -54 246 -81 q 247 0 243 -28 z "},"@":{"ha":1213,"x_min":90,"x_max":1122,"o":"m 631 842 q 828 808 739 842 q 984 713 918 775 q 1086 567 1050 651 q 1122 383 1122 483 q 1108 253 1122 311 q 1068 156 1094 196 q 1005 96 1042 117 q 924 75 968 75 q 846 94 882 75 q 783 144 810 114 q 739 208 757 175 l 722 208 q 683 135 707 165 q 631 90 660 106 q 572 75 603 75 q 440 146 489 75 q 390 343 390 217 q 406 453 390 401 q 450 544 422 504 q 514 607 478 585 q 592 629 550 629 q 658 615 632 629 q 703 578 685 600 q 735 533 722 557 l 735 614 q 745 611 742 614 q 750 602 749 608 q 751 582 751 596 l 751 275 q 769 200 751 233 q 815 143 788 167 q 871 108 842 119 q 924 96 900 96 q 1017 130 978 96 q 1079 228 1057 164 q 1101 383 1101 293 q 1067 560 1101 479 q 969 699 1032 640 q 821 789 907 757 q 631 821 735 821 q 421 785 517 821 q 256 685 325 750 q 148 530 186 619 q 110 333 110 440 q 144 150 110 233 q 240 6 178 67 q 388 -87 303 -54 q 576 -121 474 -121 q 682 -108 625 -121 q 793 -74 739 -96 q 888 -22 847 -51 l 894 -29 q 792 -93 849 -68 q 678 -130 735 -118 q 576 -142 622 -142 q 381 -107 469 -142 q 226 -8 292 -72 q 126 142 161 56 q 90 333 90 229 q 116 500 90 422 q 190 640 142 578 q 304 748 238 703 q 453 817 371 793 q 631 842 536 842 m 572 96 q 638 118 607 96 q 692 186 668 140 q 731 303 717 232 l 731 497 q 669 583 706 558 q 592 608 632 608 q 500 572 542 608 q 433 476 458 536 q 408 343 408 415 q 428 210 408 265 q 485 125 449 154 q 572 96 522 96 z "},"&":{"ha":1093,"x_min":90,"x_max":1044,"o":"m 350 -21 q 220 8 279 -21 q 126 90 161 38 q 90 213 90 142 q 108 303 90 261 q 166 385 126 344 q 272 467 206 425 q 436 558 339 510 q 355 674 385 626 q 312 760 325 722 q 299 832 299 797 q 322 924 299 886 q 390 983 346 963 q 497 1004 435 1004 q 602 984 558 1004 q 669 926 646 964 q 692 833 692 888 q 640 698 692 765 q 481 561 588 631 l 481 533 l 451 568 q 568 651 519 607 q 644 742 617 696 q 671 832 671 789 q 650 916 671 882 q 591 967 629 950 q 497 983 553 983 q 367 945 414 983 q 319 832 319 907 q 334 758 319 799 q 380 670 349 718 q 460 563 411 622 l 831 90 q 898 22 868 43 q 958 0 928 0 q 1006 19 990 0 q 1021 74 1021 39 q 1017 106 1021 89 q 1007 142 1014 124 l 1021 147 q 1033 105 1029 125 q 1038 68 1038 85 q 1028 22 1038 42 q 1003 -10 1019 1 q 960 -21 986 -21 q 913 -10 936 -21 q 866 21 890 0 q 815 76 842 42 l 447 543 l 386 513 q 226 416 288 463 q 138 320 165 369 q 111 213 111 271 q 142 107 111 156 q 226 29 172 58 q 350 0 281 0 q 530 59 456 0 q 675 258 604 118 l 688 243 q 589 90 639 149 q 481 6 539 32 q 350 -21 424 -21 m 978 510 q 940 520 954 510 q 916 546 925 531 q 901 576 907 561 q 890 602 896 592 q 876 613 885 613 q 851 597 864 613 q 824 543 839 581 l 696 258 l 683 275 l 810 551 q 872 640 836 608 q 949 671 908 671 q 1003 657 982 671 q 1034 622 1024 643 q 1044 579 1044 601 q 1040 553 1044 565 q 1028 531 1036 540 q 1007 515 1019 521 q 978 510 994 510 z "},"¶":{"ha":671,"x_min":111,"x_max":560,"o":"m 560 983 l 560 969 l 463 949 l 463 35 l 560 14 l 560 0 l 253 0 l 253 14 l 322 14 l 322 568 q 228 585 268 568 q 163 631 189 601 q 124 696 138 660 q 111 771 111 732 q 124 846 111 808 q 165 915 138 883 q 231 965 192 946 q 322 983 271 983 l 560 983 m 343 969 l 343 14 l 442 35 l 442 949 l 343 969 z "},"§":{"ha":772,"x_min":111,"x_max":661,"o":"m 388 -21 q 276 -9 326 -21 q 188 24 225 3 q 131 76 151 46 q 111 142 111 106 q 122 174 111 161 q 149 192 132 186 q 183 199 165 199 q 218 192 201 199 q 245 175 235 186 q 256 146 256 164 q 247 118 256 131 q 218 96 238 106 q 182 75 192 83 q 172 60 172 67 q 202 33 172 47 q 281 10 232 19 q 388 0 331 0 q 524 21 468 0 q 611 81 581 42 q 642 174 642 119 q 617 244 642 214 q 538 299 593 274 q 385 350 482 325 q 286 379 321 368 q 225 401 251 390 q 152 453 181 424 q 124 531 124 483 q 133 590 124 563 q 163 638 143 617 q 210 675 182 660 l 210 707 l 272 678 q 178 624 213 660 q 143 531 143 588 q 156 481 143 503 q 197 440 168 458 q 272 403 225 421 q 388 367 319 385 q 550 312 490 339 q 635 251 610 285 q 661 174 661 218 q 642 92 661 128 q 589 31 624 56 q 503 -8 554 6 q 388 -21 453 -21 m 533 313 q 614 372 586 335 q 642 463 642 410 q 617 533 642 503 q 538 588 593 563 q 385 639 482 614 q 230 691 288 665 q 148 747 172 717 q 124 819 124 778 q 156 919 124 878 q 251 983 189 961 q 399 1004 313 1004 q 523 983 467 1004 q 613 926 579 963 q 647 842 647 890 q 625 799 647 813 q 575 785 603 785 q 540 791 557 785 q 513 809 524 797 q 503 838 503 821 q 547 893 503 874 q 578 910 569 903 q 586 924 586 917 q 569 944 586 933 q 525 963 553 954 q 465 978 497 972 q 399 983 432 983 q 210 940 278 983 q 143 819 143 897 q 166 756 143 783 q 242 704 189 728 q 388 656 296 681 q 475 631 432 644 q 554 601 518 618 q 634 542 607 576 q 661 463 661 507 q 642 379 661 415 q 588 318 624 343 l 588 285 l 533 313 z "},"©":{"ha":842,"x_min":53,"x_max":789,"o":"m 421 -21 q 277 8 344 -21 q 160 86 210 36 q 81 203 110 136 q 53 347 53 271 q 81 492 53 425 q 160 608 110 558 q 277 687 210 658 q 421 715 344 715 q 565 687 499 715 q 682 608 632 658 q 760 492 732 558 q 789 347 789 425 q 760 203 789 271 q 682 86 732 136 q 565 8 632 36 q 421 -21 499 -21 m 421 0 q 556 26 493 0 q 667 101 619 53 q 740 212 714 149 q 767 349 767 275 q 740 484 767 421 q 667 594 714 547 q 556 668 619 642 q 421 694 493 694 q 285 668 349 694 q 174 594 222 642 q 100 484 126 547 q 74 349 74 421 q 100 212 74 275 q 174 101 126 149 q 285 26 222 53 q 421 0 349 0 m 421 135 q 317 160 363 135 q 245 232 271 186 q 219 336 219 278 q 235 426 219 385 q 278 497 250 467 q 347 543 307 526 q 433 560 386 560 q 517 542 483 560 q 569 497 551 524 q 586 442 586 469 q 568 403 586 418 q 522 388 550 388 q 487 398 500 388 q 474 424 474 408 q 513 463 474 446 q 539 479 531 471 q 547 494 547 488 q 531 514 547 504 q 489 531 515 524 q 433 539 463 539 q 334 513 378 539 q 265 442 290 488 q 240 336 240 396 q 263 242 240 283 q 327 178 286 201 q 421 156 368 156 q 491 170 457 156 q 552 210 525 185 q 594 269 579 236 l 607 260 q 579 209 597 232 q 536 169 561 186 q 482 144 511 153 q 421 135 453 135 z "},"®":{"ha":842,"x_min":53,"x_max":789,"o":"m 421 269 q 277 298 344 269 q 160 376 210 326 q 81 494 110 426 q 53 638 53 561 q 81 781 53 715 q 160 898 110 847 q 277 976 210 949 q 421 1004 344 1004 q 565 976 499 1004 q 682 898 632 949 q 760 781 732 847 q 789 638 789 715 q 760 494 789 561 q 682 376 732 426 q 565 298 632 326 q 421 269 499 269 m 421 290 q 556 317 493 290 q 667 391 619 343 q 740 502 714 439 q 767 639 767 565 q 740 774 767 711 q 667 883 714 836 q 556 957 619 931 q 421 983 493 983 q 285 957 349 983 q 174 883 222 931 q 100 774 126 836 q 74 639 74 711 q 100 502 74 565 q 174 391 126 439 q 285 317 222 343 q 421 290 349 290 m 567 424 q 521 447 540 424 q 478 531 501 471 q 447 599 460 578 q 418 625 433 619 l 331 625 l 331 453 l 368 446 l 368 432 l 271 432 l 271 446 l 310 453 l 310 811 l 271 819 l 271 833 l 426 833 q 502 822 472 833 q 547 789 532 811 q 561 733 561 767 q 544 678 561 700 q 501 645 528 656 q 444 635 475 635 l 444 632 q 469 606 457 626 q 494 550 481 586 l 507 517 q 535 467 518 489 q 582 444 551 444 q 594 445 588 444 q 606 447 600 446 l 606 433 q 585 426 594 428 q 567 424 575 424 m 393 646 q 469 654 436 646 q 522 682 503 663 q 540 733 540 701 q 512 794 540 774 q 426 814 483 814 l 331 814 l 331 646 l 393 646 z "},"™":{"ha":960,"x_min":56,"x_max":918,"o":"m 410 983 l 410 969 l 394 847 l 381 847 l 385 906 q 365 952 388 939 q 285 965 342 965 l 243 965 l 243 606 l 296 592 l 296 578 l 169 578 l 169 592 l 222 606 l 222 965 l 181 965 q 103 952 125 965 q 82 904 81 939 l 83 847 l 69 847 l 56 969 l 56 983 l 410 983 m 918 983 l 918 969 l 865 956 l 865 606 l 918 592 l 918 578 l 790 578 l 790 592 l 844 606 l 844 929 l 831 929 l 690 569 l 676 569 l 526 929 l 513 929 l 513 657 q 517 626 513 639 q 533 606 522 614 q 562 595 544 599 q 606 592 579 592 l 606 578 l 438 578 l 438 592 l 492 606 l 492 956 l 438 969 l 438 983 l 526 983 l 679 618 l 686 618 l 829 983 l 918 983 z "},"°":{"ha":374,"x_min":56,"x_max":318,"o":"m 186 997 q 253 980 224 997 q 301 933 283 963 q 318 867 318 904 q 301 800 318 831 q 253 752 283 769 q 186 735 224 735 q 120 752 150 735 q 73 800 90 769 q 56 867 56 831 q 73 933 56 904 q 120 980 90 963 q 186 997 150 997 m 186 976 q 109 945 140 976 q 78 868 78 914 q 109 788 78 821 q 186 756 140 756 q 265 788 233 756 q 297 868 297 821 q 265 945 297 914 q 186 976 233 976 z "},"′":{"ha":342,"x_min":83,"x_max":258,"o":"m 83 657 l 229 983 l 258 983 l 96 657 l 83 657 z "},"″":{"ha":481,"x_min":83,"x_max":397,"o":"m 83 657 l 229 983 l 258 983 l 96 657 l 83 657 m 222 657 l 368 983 l 397 983 l 235 657 l 222 657 z "},"|":{"ha":299,"x_min":139,"x_max":160,"o":"m 139 1139 l 160 1139 l 160 -194 l 139 -194 l 139 1139 z "},"¦":{"ha":299,"x_min":139,"x_max":160,"o":"m 160 417 l 160 -194 l 139 -194 l 139 417 l 160 417 m 139 528 l 139 1139 l 160 1139 l 160 528 l 139 528 z "},"†":{"ha":608,"x_min":76,"x_max":532,"o":"m 297 -21 q 297 146 297 61 q 295 317 296 231 q 294 488 294 403 q 293 654 293 572 q 297 773 296 729 q 299 856 299 817 q 294 919 299 892 q 283 969 289 947 q 269 1010 276 992 q 258 1044 263 1028 q 253 1076 253 1060 q 267 1117 253 1103 q 304 1132 281 1132 q 342 1117 328 1132 q 356 1076 356 1103 q 351 1044 356 1060 q 340 1010 346 1028 q 326 969 333 992 q 315 919 319 947 q 310 856 310 892 q 311 773 310 817 q 315 654 313 729 q 315 488 315 572 q 313 317 314 403 q 312 146 313 231 q 311 -21 311 61 l 297 -21 m 126 790 q 90 804 104 790 q 76 842 76 818 q 90 879 76 865 q 126 893 104 893 q 156 886 142 893 q 188 870 169 879 q 233 854 206 861 q 304 847 261 847 q 376 854 349 847 q 421 870 403 861 q 453 886 439 879 q 482 893 467 893 q 519 879 506 893 q 532 842 532 865 q 519 804 532 818 q 482 790 506 790 q 453 797 467 790 q 421 813 439 804 q 376 829 403 822 q 304 836 349 836 q 233 829 261 836 q 188 813 206 822 q 156 797 169 804 q 126 790 142 790 z "}}}
